<svg id="Group_48033" data-name="Group 48033" xmlns="http://www.w3.org/2000/svg" width="18.629" height="12.434" viewBox="0 0 18.629 12.434">
  <path id="Path_39846" data-name="Path 39846" d="M-816.934-93.31c-.577,0-1.155,0-1.732,0a.164.164,0,0,1-.163-.09q-1.876-3.134-3.757-6.265c-.041-.069-.031-.1.035-.139q1.276-.764,2.547-1.534c.1-.062.115.011.147.064q.789,1.312,1.577,2.625,1.563,2.6,3.126,5.209c.021.035.07.071.046.111s-.078.016-.119.016Z" transform="translate(831.098 101.36)"/>
  <path id="Path_39847" data-name="Path 39847" d="M-944.3,15.888h-.135q-1.713,0-3.425,0a.182.182,0,0,1-.181-.1q-1.012-1.694-2.032-3.383c-.036-.06-.037-.088.028-.126q1.276-.763,2.547-1.533c.068-.041.1-.047.149.03q1.518,2.54,3.041,5.078A.3.3,0,0,1-944.3,15.888Z" transform="translate(955.31 -7.838)"/>
  <path id="Path_39848" data-name="Path 39848" d="M-1009.475,216.194v-.737c0-.137,0-.274,0-.41,0-.074.024-.1.1-.094.179,0,.359.007.538,0,.1,0,.137.024.137.133,0,1.1,0,2.206,0,3.309,0,.222,0,.445,0,.667,0,.081-.019.115-.107.111-.162-.007-.325,0-.487,0s-.163,0-.189-.161a1.651,1.651,0,0,1-1.377.178,1.659,1.659,0,0,1-.851-.608,1.649,1.649,0,0,1,.013-1.983,1.607,1.607,0,0,1,1.033-.637A1.669,1.669,0,0,1-1009.475,216.194Zm0,1.411a.9.9,0,0,0-.9-.926.921.921,0,0,0-.916.913.919.919,0,0,0,.923.919A.889.889,0,0,0-1009.475,217.605Z" transform="translate(1015.668 -206.833)"/>
  <path id="Path_39849" data-name="Path 39849" d="M-820.113,217.054c0,.663,0,1.326,0,1.988,0,.1-.019.137-.126.131-.179-.009-.359-.005-.539,0-.069,0-.106-.015-.1-.091s-.04-.061-.084-.036a1.955,1.955,0,0,1-.489.184,1.669,1.669,0,0,1-1.975-1.393,1.676,1.676,0,0,1,1.462-1.894,1.581,1.581,0,0,1,.977.195c.084.048.113.048.111-.062-.005-.338,0-.676,0-1.013,0-.086.025-.109.108-.107.179.005.359.008.539,0,.1,0,.119.034.118.125C-820.115,215.737-820.113,216.4-820.113,217.054Zm-.761.553a.9.9,0,0,0-.9-.926.916.916,0,0,0-.912.912.915.915,0,0,0,.918.92A.893.893,0,0,0-820.874,217.607Z" transform="translate(831.908 -206.834)"/>
  <path id="Path_39850" data-name="Path 39850" d="M-1150.737,253.457c-.032-.165.054-.178.173-.172.162.008.325,0,.487,0,.072,0,.107.012.106.1q0,1.482,0,2.963c0,.082-.029.1-.1.1-.162,0-.325,0-.487,0s-.162,0-.19-.16a1.644,1.644,0,0,1-1.366.18,1.677,1.677,0,0,1-.883-.648,1.667,1.667,0,0,1,.1-2.024A1.681,1.681,0,0,1-1150.737,253.457Zm0,1.415a.891.891,0,0,0-.891-.919.915.915,0,0,0-.919.919.921.921,0,0,0,.913.915A.889.889,0,0,0-1150.736,254.872Z" transform="translate(1153.296 -244.107)"/>
  <path id="Path_39851" data-name="Path 39851" d="M-680.75,253.423c-.038-.174.047-.184.16-.179.166.007.334,0,.5,0,.069,0,.1.016.1.092q0,1.488,0,2.976c0,.064-.016.092-.086.091-.2,0-.4,0-.6,0-.046,0-.077-.01-.072-.062.01-.115-.036-.09-.107-.052a1.659,1.659,0,0,1-2.23-.62,1.668,1.668,0,0,1,1.388-2.5,1.746,1.746,0,0,1,.482.055A2.195,2.195,0,0,1-680.75,253.423Zm0,1.409a.9.9,0,0,0-.893-.92.915.915,0,0,0-.92.918.914.914,0,0,0,.924.914A.887.887,0,0,0-680.755,254.833Z" transform="translate(695.382 -244.066)"/>
  <path id="Path_39852" data-name="Path 39852" d="M-539.684,253.776h.346c.042,0,.075,0,.081.057.03.252.2.351.427.387a1.239,1.239,0,0,0,.5-.009.421.421,0,0,0,.21-.117.206.206,0,0,0-.036-.345,1.624,1.624,0,0,0-.557-.179c-.212-.05-.424-.1-.631-.166a.814.814,0,0,1-.646-.711.954.954,0,0,1,.506-.975,1.516,1.516,0,0,1,.78-.171,2.155,2.155,0,0,1,.792.129.9.9,0,0,1,.605.816c.006.067,0,.1-.085.1-.214,0-.428,0-.641,0a.087.087,0,0,1-.1-.083.383.383,0,0,0-.354-.319,1.13,1.13,0,0,0-.471.019.27.27,0,0,0-.222.249c-.006.129.09.176.184.219a4.567,4.567,0,0,0,.728.2,4.39,4.39,0,0,1,.49.147.793.793,0,0,1,.569.718.931.931,0,0,1-.414.872,1.626,1.626,0,0,1-.888.253,2.109,2.109,0,0,1-1.048-.194.923.923,0,0,1-.539-.786c-.006-.08.011-.118.1-.112C-539.9,253.781-539.791,253.776-539.684,253.776Z" transform="translate(555.846 -242.488)"/>
  <path id="Path_39853" data-name="Path 39853" d="M-1073.4,124.824a.192.192,0,0,1-.112.011c-1.146,0-2.292,0-3.438,0a.189.189,0,0,1-.191-.11c-.1-.176-.2-.347-.308-.517-.033-.053-.026-.075.028-.107q1.286-.77,2.57-1.545c.05-.03.084-.045.122.02q.662,1.111,1.329,2.22C-1073.4,124.8-1073.4,124.814-1073.4,124.824Z" transform="translate(1079.418 -116.786)"/>
  <path id="Path_39854" data-name="Path 39854" d="M-866.632,254.7c0,.5,0,1,0,1.5,0,.092-.017.128-.118.124-.2-.008-.41-.005-.615,0-.075,0-.1-.016-.1-.1q0-1.519,0-3.038c0-.091.033-.1.11-.1.205,0,.41.006.615,0,.094,0,.112.032.111.117C-866.634,253.7-866.632,254.2-866.632,254.7Z" transform="translate(874.803 -243.985)"/>
  <path id="Path_39855" data-name="Path 39855" d="M-867.021,215.765c-.1,0-.205,0-.307,0-.074,0-.109-.015-.107-.1,0-.184,0-.367,0-.551,0-.051.008-.08.068-.079q.346,0,.692,0c.055,0,.075.021.074.076q0,.288,0,.576c0,.055-.019.076-.074.075C-866.791,215.763-866.906,215.765-867.021,215.765Z" transform="translate(874.773 -206.918)"/>
  <path id="Path_39856" data-name="Path 39856" d="M-469.889,200.563a.483.483,0,0,1-.485.491.489.489,0,0,1-.488-.49.484.484,0,0,1,.48-.482A.48.48,0,0,1-469.889,200.563Zm-.483-.4a.409.409,0,0,0-.412.4.411.411,0,0,0,.405.41.4.4,0,0,0,.409-.4A.4.4,0,0,0-470.371,200.162Z" transform="translate(488.377 -192.345)"/>
  <path id="Path_39857" data-name="Path 39857" d="M-459.7,209.255c-.055.029-.087,0-.113-.045a1.057,1.057,0,0,0-.076-.117.111.111,0,0,0-.114-.042c-.052.013-.024.064-.029.1a.651.651,0,0,0,0,.076.036.036,0,0,1-.039.039.035.035,0,0,1-.04-.039q0-.217,0-.434a.051.051,0,0,1,.015-.033.392.392,0,0,1,.372.074.1.1,0,0,1-.022.139c-.116.065-.05.119,0,.182A.172.172,0,0,1-459.7,209.255Zm-.226-.436c-.047.006-.107-.02-.109.067,0,.067.022.095.088.088s.133.006.139-.077S-459.869,208.826-459.921,208.82Z" transform="translate(477.9 -200.778)"/>
</svg>
