<svg id="Group_46195" data-name="Group 46195" xmlns="http://www.w3.org/2000/svg" width="14.889" height="13" viewBox="0 0 14.889 13">
  <path id="Path_27877" data-name="Path 27877" d="M-3260.777,1528.176c-1.418,0-2.837.005-4.255-.006-.2,0-.542.129-.552-.195s.338-.211.533-.212c2.775-.009,5.55,0,8.325-.006a1.889,1.889,0,0,0,2.148-2.156c0-.432,0-.863,0-1.295a1.878,1.878,0,0,0-2.093-2.1c-1.952-.015-3.906,0-5.858,0-.165,0-.33,0-.493-.011-.1-.008-.214-.028-.227-.159-.015-.162.1-.218.231-.217,2.382.023,4.771-.135,7.146.078a2.066,2.066,0,0,1,1.71,2.128c.018.616.013,1.233,0,1.85a2.233,2.233,0,0,1-2.3,2.3C-3257.9,1528.189-3259.338,1528.176-3260.777,1528.176Z" transform="translate(3269.038 -1515.195)" fill="#9ea7b7"/>
  <path id="Path_27878" data-name="Path 27878" d="M-3257.74,1536.848c-1.315,0-2.63,0-3.944,0-.187,0-.489.087-.492-.2s.3-.216.486-.217q3.852-.006,7.7,0c.921,0,1.067-.154,1.08-1.075.027-1.983.008-1.858-1.848-1.849-1.582.008-3.164,0-4.746,0a1.561,1.561,0,0,1-.246,0c-.2-.032-.535.112-.529-.232,0-.292.315-.182.5-.189.369-.015.74,0,1.109,0,1.6,0,3.2,0,4.808,0,.974,0,1.346.372,1.355,1.332,0,.411.007.822,0,1.233a1.086,1.086,0,0,1-1.228,1.209C-3255.068,1536.857-3256.4,1536.848-3257.74,1536.848Z" transform="translate(3266.05 -1525.082)" fill="#9ea7b7"/>
  <path id="Path_27879" data-name="Path 27879" d="M-3288.185,1511.928a2.719,2.719,0,0,1-.86,1.972,4.8,4.8,0,0,0-1.617,2.957c-.011.132-.047.266-.182.28-.182.019-.233-.132-.245-.285a4.93,4.93,0,0,0-1.7-3.043,2.669,2.669,0,0,1-.394-3.29,2.711,2.711,0,0,1,3.038-1.2A2.662,2.662,0,0,1-3288.185,1511.928Zm-2.688,3.91a9.078,9.078,0,0,1,1.776-2.531,2.212,2.212,0,0,0-.236-3.064,2.26,2.26,0,0,0-3.035-.038,2.234,2.234,0,0,0-.322,3.062A9.019,9.019,0,0,1-3290.874,1515.838Z" transform="translate(3293.574 -1504.188)" fill="#9ea7b7"/>
  <path id="Path_27880" data-name="Path 27880" d="M-3280.314,1487.547c-1.378,0-2.755,0-4.132,0a1.6,1.6,0,0,0-1.758,1.577c-.019.17.053.441-.214.427-.307-.015-.206-.308-.2-.49a1.985,1.985,0,0,1,2.006-1.935c2.878-.021,5.756-.009,8.634-.005.169,0,.428-.063.417.218s-.266.2-.436.2C-3277.437,1487.549-3278.876,1487.547-3280.314,1487.547Z" transform="translate(3287.494 -1484.807)" fill="#9ea7b7"/>
  <path id="Path_27881" data-name="Path 27881" d="M-3270.289,1497.8c-1.478,0-2.956,0-4.435,0-.364,0-.713-.005-.822.45a.185.185,0,0,1-.225.157c-.163-.031-.163-.17-.145-.289.086-.557.476-.73.975-.733,1.109-.007,2.217-.007,3.326-.008q2.833,0,5.666,0a2.512,2.512,0,0,1,.489.038.255.255,0,0,1,.146.165c.031.122-.058.189-.171.2-.143.014-.287.016-.43.016Z" transform="translate(3278.101 -1493.805)" fill="#9ea7b7"/>
  <path id="Path_27882" data-name="Path 27882" d="M-3195.539,1469.774a1.376,1.376,0,0,1,.96-1.292,1.389,1.389,0,0,1,1.539.474,1.324,1.324,0,0,1,.039,1.607,3.665,3.665,0,0,0-.979,1.671.228.228,0,0,1-.163.147.218.218,0,0,1-.17-.131,3.578,3.578,0,0,0-1.012-1.72A1.125,1.125,0,0,1-3195.539,1469.774Zm1.392,1.509c.247-.289.478-.549.7-.818a.959.959,0,0,0-.05-1.38.936.936,0,0,0-1.285-.013.955.955,0,0,0-.079,1.377C-3194.645,1470.719-3194.411,1470.977-3194.147,1471.282Z" transform="translate(3207.637 -1468.411)" fill="#9ea7b7"/>
  <path id="Path_27883" data-name="Path 27883" d="M-3278.8,1522.936a.964.964,0,0,1,.988,1.075.989.989,0,0,1-1.063.952.981.981,0,0,1-.95-1.06A.941.941,0,0,1-3278.8,1522.936Zm.6.988c-.056-.356-.253-.592-.6-.594a.582.582,0,0,0-.634.6.584.584,0,0,0,.62.616C-3278.42,1524.547-3278.257,1524.269-3278.2,1523.923Z" transform="translate(3281.523 -1516.207)" fill="#9ea7b7"/>
</svg>
