<svg xmlns="http://www.w3.org/2000/svg" width="14.157" height="15.891" viewBox="0 0 14.157 15.891">
  <path id="Path_40707" data-name="Path 40707" d="M5439.63,2576.419a4.713,4.713,0,0,1,4.867,4.64,8.341,8.341,0,0,0,1.549,5.374c1.553,2.055.458,3.769-2.163,3.842-1.138.032-2.223-.215-2.926,1.276a1.665,1.665,0,0,1-2.927-.264c-.478-1.078-1.177-.984-2.026-1.019-1.134-.046-2.585.485-3.167-.941a3.488,3.488,0,0,1,.915-3.757c1.1-1.215.934-2.72.955-4.193A4.808,4.808,0,0,1,5439.63,2576.419Zm-.032,13.021v-.005c1.415,0,2.83.005,4.244,0,1.835-.01,2.586-1.207,1.4-2.673-1.41-1.749-1.595-3.634-1.63-5.708a4,4,0,0,0-3.991-3.831,3.953,3.953,0,0,0-4,3.814,9.025,9.025,0,0,1-1.7,5.865c-1.122,1.468-.4,2.528,1.428,2.537C5436.767,2589.446,5438.182,2589.44,5439.6,2589.44Z" transform="translate(-5432.603 -2576.419)" fill="#5f5f5f"/>
</svg>
