<svg id="TcZvQr" xmlns="http://www.w3.org/2000/svg" width="22.992" height="22.994" viewBox="0 0 22.992 22.994">
  <g id="Group_50500" data-name="Group 50500" transform="translate(0 0)">
    <path id="Path_40851" data-name="Path 40851" d="M1924.513,143.993q0,5.644,0,11.287c0,.148-.022.187-.181.187q-11.31-.008-22.62,0c-.17,0-.191-.045-.191-.2q.006-11.3,0-22.6c0-.155.023-.2.192-.2q11.3.008,22.6,0c.175,0,.2.047.2.21Q1924.509,138.338,1924.513,143.993Zm-18.692-.028c0,.987,0,1.975,0,2.962a4.052,4.052,0,0,0,.381,1.758,4.2,4.2,0,0,0,3.986,2.52c1.885.028,3.77.011,5.655,0a5.108,5.108,0,0,0,.978-.1,4.239,4.239,0,0,0,3.385-3.973c.044-1.352.018-2.708.008-4.061a1.02,1.02,0,0,0-.9-1.016,3.152,3.152,0,0,0-.737-.028,1,1,0,0,1-1.1-1.1,3.774,3.774,0,0,0-.17-1.146,4.274,4.274,0,0,0-4.153-3.055q-1.5-.016-3.007,0a4.379,4.379,0,0,0-1,.113,4.264,4.264,0,0,0-3.335,4.247Q1905.819,142.529,1905.821,143.965Z" transform="translate(-1901.525 -132.473)" fill="#db6d27"/>
    <path id="Path_40852" data-name="Path 40852" d="M2082.452,431.871c.934,0,1.868,0,2.8,0a.778.778,0,0,1,.768.654.789.789,0,0,1-.486.846,1.22,1.22,0,0,1-.459.081q-2.623,0-5.246,0a1.564,1.564,0,0,1-.419-.061.772.772,0,0,1-.529-.877.737.737,0,0,1,.723-.641c.949-.007,1.9,0,2.847,0Z" transform="translate(-2070.915 -418.43)" fill="#db6d27"/>
    <path id="Path_40853" data-name="Path 40853" d="M2081.381,311.446c-.522,0-1.045,0-1.569,0-.551,0-.879-.27-.893-.725a.781.781,0,0,1,.851-.853c1.068-.016,2.136-.019,3.2,0a.8.8,0,0,1,.789,1.146.706.706,0,0,1-.657.428c-.575.007-1.15,0-1.726,0Z" transform="translate(-2070.956 -301.892)" fill="#db6d27"/>
  </g>
</svg>
