<svg xmlns="http://www.w3.org/2000/svg" width="19" height="19" viewBox="0 0 19 19">
  <g id="Group_50802" data-name="Group 50802" transform="translate(-346 -451)">
    <circle id="Ellipse_2511" data-name="Ellipse 2511" cx="9.5" cy="9.5" r="9.5" transform="translate(346 451)" fill="#fff"/>
    <path id="Path_18346" data-name="Path 18346" d="M239.5,335.668a.517.517,0,0,1,.2-.379c.787-.779,1.571-1.562,2.362-2.337.111-.109.112-.164,0-.273-.781-.771-1.555-1.549-2.33-2.326a1.064,1.064,0,0,1-.137-.157.472.472,0,0,1,.072-.614.478.478,0,0,1,.617-.035,1.378,1.378,0,0,1,.143.132q1.175,1.174,2.347,2.352c.09.091.132.083.217,0,.776-.776,1.557-1.547,2.335-2.321a.548.548,0,0,1,.45-.193.473.473,0,0,1,.353.735,1.223,1.223,0,0,1-.15.167c-.768.763-1.535,1.527-2.308,2.285-.1.1-.085.142,0,.23.786.78,1.567,1.565,2.352,2.347a.542.542,0,0,1,.2.419.462.462,0,0,1-.256.41.45.45,0,0,1-.494-.03,1.133,1.133,0,0,1-.156-.139q-1.16-1.158-2.316-2.319c-.1-.1-.144-.112-.249-.006-.788.792-1.585,1.576-2.377,2.364a.5.5,0,0,1-.553.16A.48.48,0,0,1,239.5,335.668Z" transform="translate(112.794 127.751)" fill="#d00000"/>
  </g>
</svg>
