<svg xmlns="http://www.w3.org/2000/svg" width="26" height="26" viewBox="0 0 26 26">
  <g id="Group_42782" data-name="Group 42782" transform="translate(-102 -493)">
    <g id="Group_53862" data-name="Group 53862" transform="translate(128 31)">
      <g id="Rectangle_15825" data-name="Rectangle 15825" transform="translate(-26 462)" fill="none" stroke="#1a202e" stroke-width="0.4" opacity="0.999">
        <rect width="26" height="26" rx="13" stroke="none"/>
        <rect x="0.2" y="0.2" width="25.6" height="25.6" rx="12.8" fill="none"/>
      </g>
      <g id="RBjm5M.tif" transform="translate(-1542.492 -911.41)">
        <g id="Group_42781" data-name="Group 42781" transform="translate(1527.613 1383)">
          <path id="Path_25359" data-name="Path 25359" d="M1531.37,1383.426a.981.981,0,0,1-.229.286q-1.31,1.309-2.621,2.617c-.067.067-.065.1,0,.163q1.332,1.325,2.659,2.655a.754.754,0,0,1,.19.265v.149a.362.362,0,0,1-.637.113q-1.388-1.391-2.778-2.779c-.073-.073-.147-.145-.218-.219a.346.346,0,0,1,0-.527q1.5-1.507,3.011-3.013a.977.977,0,0,1,.2-.136h.149a.432.432,0,0,1,.277.277Z" transform="translate(-1527.613 -1383)" fill="#1a202e"/>
        </g>
      </g>
    </g>
  </g>
</svg>
