<svg xmlns="http://www.w3.org/2000/svg" width="20.665" height="20.665" viewBox="0 0 20.665 20.665">
  <g id="Group_50907" data-name="Group 50907" transform="translate(60.584 -5.154)">
    <circle id="Ellipse_4152" data-name="Ellipse 4152" cx="10.332" cy="10.332" r="10.332" transform="translate(-60.584 5.154)" fill="#45a7d4"/>
    <g id="Group_46949" data-name="Group 46949" transform="translate(-56.21 10.163)">
      <g id="Group_38789" data-name="Group 38789">
        <g id="Group_50906" data-name="Group 50906">
          <path id="Path_39510" data-name="Path 39510" d="M575.481,737.4a1.724,1.724,0,0,0-2.423,0l-2.991,3.712-1.424,1.767c-.168.209-.369.523-.588.814l-.128-.132-.967-.993c-1.541-1.583-3.963.841-2.423,2.423a9.125,9.125,0,0,0,2.684,2.39,2.557,2.557,0,0,0,2.99-1.018c1.78-2.16,3.513-4.36,5.269-6.54A1.768,1.768,0,0,0,575.481,737.4Z" transform="translate(-564.045 -736.902)" fill="#fff"/>
        </g>
      </g>
    </g>
  </g>
</svg>
