<svg xmlns="http://www.w3.org/2000/svg" width="13.072" height="13.07" viewBox="0 0 13.072 13.07">
  <g id="Group_53862" data-name="Group 53862" transform="translate(-324.114 -18375.293)">
    <path id="Path_50239" data-name="Path 50239" d="M80.626-643.995a6.532,6.532,0,0,1-6.542,6.536,6.533,6.533,0,0,1-6.53-6.547,6.532,6.532,0,0,1,6.553-6.525A6.532,6.532,0,0,1,80.626-643.995Zm-6.533-5.484a5.5,5.5,0,0,0-5.487,5.467,5.5,5.5,0,0,0,5.475,5.5,5.5,5.5,0,0,0,5.493-5.472A5.5,5.5,0,0,0,74.093-649.479Z" transform="translate(256.561 19025.822)" fill="#9b9ca5"/>
    <path id="Path_50248" data-name="Path 50248" d="M336.74-545.388c0-.606,0-1.212,0-1.818a.526.526,0,0,1,.6-.561.528.528,0,0,1,.463.561q0,1.5,0,3c0,.174-.017.148.147.148h2.208a.529.529,0,0,1,.552.409.527.527,0,0,1-.541.65c-.368,0-.736,0-1.1,0q-.864,0-1.729,0a.54.54,0,0,1-.594-.6Q336.739-544.49,336.74-545.388Z" transform="translate(-6.62 18926.063)" fill="#9b9ca5"/>
  </g>
</svg>
