<svg xmlns="http://www.w3.org/2000/svg" width="16.031" height="16.814" viewBox="0 0 16.031 16.814">
  <path id="Path_40719" data-name="Path 40719" d="M5473.405,3813.013a7.851,7.851,0,0,0-4.956-7.5,8,8,0,0,0-8.818,1.824,7.838,7.838,0,0,0-1.491,8.868c.66,1.374,1.149,2.583.513,4.11-.487,1.169.106,1.688,1.279,1.25,1.991-.744,4.04-.614,6.1-.687A7.777,7.777,0,0,0,5473.405,3813.013Zm-13.578,7.7c.143-2.635.143-2.635-.794-4.521a7.141,7.141,0,0,1,1.488-8.55,7.191,7.191,0,0,1,11.911,6.751,6.873,6.873,0,0,1-6.554,5.629C5463.846,3820.062,5461.827,3819.912,5459.827,3820.716Z" transform="translate(-5457.375 -3804.903)" fill="#45a7d4"/>
</svg>
