<svg xmlns="http://www.w3.org/2000/svg" width="12.775" height="14.849" viewBox="0 0 12.775 14.849">
  <g id="Group_20519" data-name="Group 20519" transform="translate(197.535 -321.45)">
    <path id="Path_9069" data-name="Path 9069" d="M-169.352,326.329a4.884,4.884,0,0,1-4.889,4.864,4.886,4.886,0,0,1-4.837-4.915,4.849,4.849,0,0,1,4.869-4.827A4.846,4.846,0,0,1-169.352,326.329Zm-8.595-.019a3.749,3.749,0,0,0,3.728,3.744,3.751,3.751,0,0,0,3.735-3.737,3.767,3.767,0,0,0-3.728-3.752A3.767,3.767,0,0,0-177.947,326.309Z" transform="translate(-16.949)" fill="#45a7d4"/>
    <path id="Path_9070" data-name="Path 9070" d="M-191.136,461.813a9.282,9.282,0,0,1,6.21,2.438c.209.188.229.293.017.5-.55.531-.54.541-1.137.054a8,8,0,0,0-10.489.227c-.24.216-.37.252-.607,0-.522-.56-.542-.552.06-1.051A9.282,9.282,0,0,1-191.136,461.813Z" transform="translate(0 -128.905)" fill="#45a7d4"/>
  </g>
</svg>
