<svg xmlns="http://www.w3.org/2000/svg" width="26.688" height="26.632" viewBox="0 0 26.688 26.632">
  <g id="Group_48219" data-name="Group 48219" transform="translate(2030.679 -942.751)">
    <path id="Path_39982" data-name="Path 39982" d="M-2026.142,956.469c0-.117-.081-.148-.132-.2q-1.972-1.845-3.948-3.687a1.267,1.267,0,0,1-.069-1.887q.825-.89,1.657-1.772a.432.432,0,0,1,.71-.046,2.178,2.178,0,0,0,3.025-.161,2.185,2.185,0,0,0-.051-3.032c-.249-.264-.254-.438,0-.71q.814-.882,1.637-1.757a1.276,1.276,0,0,1,1.926-.061q2.808,2.618,5.613,5.239,4.233,3.95,8.464,7.9a.579.579,0,0,0,.443.171c.508-.01,1.017-.008,1.526,0a1.271,1.271,0,0,1,1.345,1.353c0,.792,0,1.584,0,2.376,0,.41-.1.511-.512.544a2.2,2.2,0,0,0-2.06,1.857,2.2,2.2,0,0,0,1.347,2.357,2.375,2.375,0,0,0,.78.159c.3.018.442.154.444.458.005.85.016,1.7,0,2.551a1.244,1.244,0,0,1-1.307,1.257q-11.194,0-22.387,0a1.243,1.243,0,0,1-1.317-1.3c-.012-.825-.007-1.651,0-2.476,0-.356.119-.47.481-.5a2.189,2.189,0,0,0,2.108-2.18,2.187,2.187,0,0,0-2.121-2.192c-.342-.024-.462-.136-.465-.485-.007-.842-.014-1.684,0-2.526a1.246,1.246,0,0,1,1.279-1.26C-2027.205,956.463-2026.675,956.469-2026.142,956.469Zm12.287,12.1h8.453c.431,0,.584-.155.585-.589,0-.508,0-1.017,0-1.526s0-.51-.49-.664l-.095-.032a3,3,0,0,1-2-2.982,2.972,2.972,0,0,1,2.337-2.772c.184-.042.257-.1.252-.306-.016-.616-.005-1.234-.007-1.851,0-.4-.159-.568-.556-.569q-2.663-.007-5.327-.008-4.009,0-8.017.007c-1.216,0-2.431,0-3.646,0-.175,0-.237.049-.226.225.014.216.008.433,0,.65a.394.394,0,0,1-.394.426.4.4,0,0,1-.414-.432c-.006-.225-.011-.451,0-.675.008-.161-.065-.2-.207-.2-1.35,0-2.7,0-4.05.007-.383,0-.546.169-.547.552,0,.634,0,1.267,0,1.9,0,.162.047.224.21.262a3,3,0,0,1,2.386,2.94,3,3,0,0,1-2.4,2.93c-.138.031-.2.072-.194.223.008.658,0,1.317,0,1.976a.447.447,0,0,0,.488.506c1.375,0,2.751,0,4.126,0,.14,0,.194-.046.189-.188-.008-.233-.008-.467,0-.7a.394.394,0,0,1,.386-.408.4.4,0,0,1,.419.4c.009.191,0,.383,0,.575,0,.316,0,.317.329.317Zm5.464-12.1a.338.338,0,0,0-.141-.192l-5.629-5.257q-1.956-1.826-3.911-3.653c-.123-.116-.2-.138-.316,0a5.968,5.968,0,0,1-.442.476.4.4,0,0,1-.581.043.41.41,0,0,1-.012-.6,5.578,5.578,0,0,1,.429-.454c.138-.126.132-.21-.007-.337-.987-.91-1.966-1.828-2.948-2.742a.475.475,0,0,0-.775.033c-.416.444-.824.9-1.249,1.332-.143.147-.175.24-.042.431a2.982,2.982,0,0,1-.275,3.715,3.008,3.008,0,0,1-3.752.539c-.085-.05-.158-.155-.276-.026-.467.511-.947,1.009-1.41,1.523a.432.432,0,0,0,.026.649c1.014.954,2.035,1.9,3.05,2.852.1.1.162.066.241-.024.143-.163.293-.319.445-.474a.406.406,0,0,1,.616-.059.418.418,0,0,1-.01.6c-.142.164-.288.325-.444.475-.11.105-.115.173.006.277.27.235.531.482.787.732a.466.466,0,0,0,.355.137c2,0,4,0,6,0q4.85,0,9.7-.006Z" transform="translate(0 0)" fill="#45a7d4"/>
    <path id="Path_39983" data-name="Path 39983" d="M-1792.07,1266.551a2.589,2.589,0,0,1,.135-.884,1.79,1.79,0,0,1,2.28-1.21,1.468,1.468,0,0,1,.833.6,2.646,2.646,0,0,1-.221,3.232,1.7,1.7,0,0,1-2.65-.334A2.559,2.559,0,0,1-1792.07,1266.551Zm1.078-.016c.017.19.026.381.052.57a1.593,1.593,0,0,0,.088.337.628.628,0,0,0,.606.471.638.638,0,0,0,.65-.45,2.678,2.678,0,0,0,.017-1.784.631.631,0,0,0-.621-.454.665.665,0,0,0-.65.454A2.431,2.431,0,0,0-1790.992,1266.535Z" transform="translate(-226.671 -305.533)" fill="#45a7d4"/>
    <path id="Path_39984" data-name="Path 39984" d="M-1695.1,1339.159a2.315,2.315,0,0,1-.387,1.4,1.761,1.761,0,0,1-3.068-.276,2.625,2.625,0,0,1,.38-2.783,1.718,1.718,0,0,1,2.926.679A3.166,3.166,0,0,1-1695.1,1339.159Zm-1.043-.031c-.018-.191-.034-.381-.057-.571a1.441,1.441,0,0,0-.055-.243.656.656,0,0,0-.6-.515.671.671,0,0,0-.69.439,2.559,2.559,0,0,0-.008,1.809.616.616,0,0,0,.61.434.624.624,0,0,0,.605-.4A2.319,2.319,0,0,0-1696.142,1339.129Z" transform="translate(-315.287 -374.46)" fill="#45a7d4"/>
    <path id="Path_39985" data-name="Path 39985" d="M-1760.693,1264.906c-.139.23-.249.414-.361.6q-2.209,3.57-4.416,7.142a.4.4,0,0,1-.416.233c-.221-.018-.446,0-.665,0-.024-.108.039-.161.077-.222q2.346-3.779,4.691-7.558a.328.328,0,0,1,.337-.19C-1761.214,1264.917-1760.981,1264.906-1760.693,1264.906Z" transform="translate(-250.909 -306.032)" fill="#45a7d4"/>
  </g>
</svg>
