<svg xmlns="http://www.w3.org/2000/svg" width="17.177" height="15" viewBox="0 0 17.177 15">
  <path id="Path_39613" data-name="Path 39613" d="M2182.767,352.974c-2.064,0-4.129.035-6.192-.012a2.137,2.137,0,0,1-2.286-2.155c-.132-1.6-.068-3.212-.076-4.819-.008-1.514,0-3.028-.008-4.543,0-.191.053-.239.241-.239,1.622.007,3.243,0,4.865.01.216,0,.277-.053.272-.272-.014-.728,0-1.457-.009-2.186a.63.63,0,0,1,.172-.435.9.9,0,0,1,.8-.338c1.593.018,3.185.011,4.778.006a.484.484,0,0,1,.351.153,1.04,1.04,0,0,1,.352.907c-.031.648,0,1.3-.012,1.949,0,.173.053.214.219.213,1.636-.005,3.271,0,4.907-.008.2,0,.247.059.246.251-.012,2.793.019,5.585-.037,8.378a8.992,8.992,0,0,1-.092,1.281,2.006,2.006,0,0,1-1.376,1.681,2.9,2.9,0,0,1-1,.18c-2.035-.01-4.071,0-6.107,0Zm-.01-1.084c1.414,0,2.828.009,4.241,0a18.43,18.43,0,0,0,2.416-.091.873.873,0,0,0,.742-.678,1.541,1.541,0,0,0,.064-.357c.087-1.34.069-2.683.094-4.025,0-.117-.033-.166-.157-.165q-2.528,0-5.055,0c-.121,0-.165.04-.161.161.007.25,0,.5.005.75,0,.117-.033.165-.157.165q-1.992,0-3.984,0c-.125,0-.16-.048-.158-.164.005-.228-.012-.458,0-.685.011-.182-.058-.226-.232-.226q-2.453.009-4.905,0c-.172,0-.236.039-.232.224.019.964.022,1.928.035,2.891a8.305,8.305,0,0,0,.083,1.324.923.923,0,0,0,.809.793,7.082,7.082,0,0,0,.96.07C2179.03,351.905,2180.893,351.9,2182.756,351.89Zm.054-9.6H2181.1q-2.807,0-5.613,0c-.142,0-.2.033-.2.189.007.95.007,1.9.005,2.849,0,.124.034.179.169.178q2.506,0,5.013,0c.15,0,.18-.063.177-.193-.006-.235,0-.471,0-.707,0-.124.032-.178.169-.178q1.982,0,3.964,0c.135,0,.172.051.168.177-.008.228.006.458-.006.685-.009.165.039.221.213.22q2.464-.01,4.928,0c.179,0,.229-.053.227-.23-.009-.907-.014-1.814,0-2.721,0-.225-.067-.269-.276-.269C2187.624,342.291,2185.218,342.289,2182.811,342.289Zm-.041-1.078h0c.664,0,1.328,0,1.992,0,.141,0,.184-.044.183-.184q-.009-.889,0-1.778c0-.143-.049-.182-.186-.182q-1.96,0-3.92,0c-.152,0-.2.053-.194.2.006.585.007,1.171,0,1.756,0,.152.05.194.2.192C2181.485,341.207,2182.127,341.211,2182.77,341.211Zm.019,5.359h0c.3,0,.6,0,.9,0,.124,0,.184-.029.179-.167-.008-.25-.005-.5,0-.749,0-.126-.053-.157-.168-.156-.592,0-1.185.006-1.777,0-.142,0-.207.034-.2.19.011.235.009.471,0,.706-.007.148.056.18.189.176C2182.2,346.565,2182.5,346.57,2182.789,346.57Z" transform="translate(-2174.204 -337.986)" fill="#45a7d4"/>
</svg>
