<svg xmlns="http://www.w3.org/2000/svg" width="13.788" height="13.759" viewBox="0 0 13.788 13.759">
  <g id="m3WheW" transform="translate(1783.37 -2322.041)">
    <g id="Group_48253" data-name="Group 48253" transform="translate(-1783.37 2322.041)">
      <path id="Path_40007" data-name="Path 40007" d="M-1777.275,2335.8a5.982,5.982,0,0,1-5.669-4.019,5.847,5.847,0,0,1,.614-5.513,6,6,0,0,1,3.836-2.67,5.227,5.227,0,0,1,1.982-.1.624.624,0,0,0,.618-.226,3.6,3.6,0,0,1,4.919-.462,3.612,3.612,0,0,1,.385,5.35,1.187,1.187,0,0,0-.419,1.02,6.008,6.008,0,0,1-2.285,5.277A5.862,5.862,0,0,1-1777.275,2335.8Zm4.056-6.532a3.3,3.3,0,0,1-1.081-.136,3.591,3.591,0,0,1-2.463-4.059c.065-.384.037-.414-.334-.419a5.26,5.26,0,0,0-1.829.309,1,1,0,0,0-.519.3c-.1.15.116.272.174.415.034.085.065.165-.038.222s-.155-.021-.2-.095-.08-.127-.118-.192c-.108-.184-.239-.182-.4-.063a4.968,4.968,0,0,0-1,.951c-.328.43-.326.432.069.786.016.014.034.027.049.041a.121.121,0,0,1,.029.146.114.114,0,0,1-.16.063,1.043,1.043,0,0,1-.222-.126c-.164-.122-.269-.108-.382.084a4.11,4.11,0,0,0-.426,1.375c-.1.529-.08.533.46.632.021,0,.043,0,.064.01a.128.128,0,0,1,.1.14.1.1,0,0,1-.1.1,1.037,1.037,0,0,1-.224.016c-.311-.032-.372.135-.33.4a6.578,6.578,0,0,0,.3,1.25c.2.531.2.534.708.337.073-.029.149-.059.2.025s-.016.138-.078.183a1.127,1.127,0,0,1-.136.086c-.241.124-.262.274-.091.486a5.017,5.017,0,0,0,.982,1.012c.41.289.4.3.714-.094.058-.073.109-.144.207-.076.083.057.047.131.012.2a.635.635,0,0,1-.063.112c-.191.239-.094.375.152.487a4.347,4.347,0,0,0,1.17.344c.207.031.434.139.629.028.173-.1.063-.318.1-.479.02-.084.061-.14.152-.131s.116.081.119.163,0,.172.007.258c.013.15.09.246.25.229a4.924,4.924,0,0,0,1.735-.45c.193-.1.207-.224.1-.39a1.812,1.812,0,0,1-.1-.165c-.036-.069-.062-.148.015-.2.092-.066.161-.014.214.065s.1.163.156.245c.088.141.192.146.323.051a5.008,5.008,0,0,0,1.25-1.24.239.239,0,0,0-.057-.382c-.078-.057-.162-.1-.242-.159a.117.117,0,0,1-.043-.167.12.12,0,0,1,.166-.052.752.752,0,0,1,.169.092c.219.174.357.112.467-.131a4.9,4.9,0,0,0,.412-2.291c-.009-.182-.1-.242-.28-.2A2.8,2.8,0,0,1-1773.219,2329.264Zm3.345-3.57a3.3,3.3,0,0,0-3.325-3.372,3.308,3.308,0,0,0-3.346,3.255,3.3,3.3,0,0,0,3.339,3.422A3.238,3.238,0,0,0-1769.874,2325.694Zm-7.288,9.831a5.843,5.843,0,0,0,5.736-4.448,5.25,5.25,0,0,0,.138-2.012c-.03-.2-.088-.254-.294-.171-.306.123-.36.339-.354.638a5.045,5.045,0,0,1-2.046,4.266,5.282,5.282,0,0,1-5.758.408,5.229,5.229,0,0,1-1.921-7.261,5.01,5.01,0,0,1,4.329-2.547c.182-.006.365,0,.547-.005.3-.015.356-.285.384-.483s-.206-.162-.343-.174a5.688,5.688,0,0,0-3.539.857,5.887,5.887,0,0,0-2.21,7.532A5.749,5.749,0,0,0-1777.162,2335.525Z" transform="translate(1783.37 -2322.041)" fill="#45a7d4"/>
      <path id="Path_40008" data-name="Path 40008" d="M-1741.431,2431.485c-.418,0-.835,0-1.253,0-.109,0-.235.015-.244-.136s.128-.142.231-.142c.8,0,1.61,0,2.414,0a.613.613,0,0,0,.508-.213.591.591,0,0,1,.88-.068.586.586,0,0,1-.087.878.531.531,0,0,0-.207.472c.006.354,0,.708,0,1.062,0,.1-.009.214-.137.217s-.132-.121-.133-.213c0-.365,0-.73,0-1.095a.857.857,0,0,0-.775-.764C-1740.638,2431.488-1741.034,2431.486-1741.431,2431.485Z" transform="translate(1745.535 -2423.756)" fill="#45a7d4"/>
      <path id="Path_40009" data-name="Path 40009" d="M-1658.677,2354.667h1.192c.131,0,.288-.005.3.164.029.289.213.3.434.3.52,0,.821.18.919.586a3.974,3.974,0,0,1,.051.734c0,.1-.005.193,0,.289.011.47,0,.484-.456.522a.452.452,0,0,0-.333.158c-.356.406-.667.4-1.017.007a.575.575,0,0,0-.862.021c-.319.369-.678.382-.968.006a.473.473,0,0,0-.475-.191c-.256.029-.352-.1-.351-.334,0-.633,0-1.267,0-1.9,0-.26.115-.366.373-.359C-1659.472,2354.674-1659.074,2354.667-1658.677,2354.667Zm-.006,1.189v0c-.182,0-.364,0-.546,0-.9-.021-.714.046-.74.753-.005.148-.011.315.178.368.167.047.273-.039.378-.17a.567.567,0,0,1,.988.012c.184.253.422.178.639.154s.269-.231.308-.407a2.282,2.282,0,0,0,.015-.416.25.25,0,0,0-.289-.294C-1658.062,2355.858-1658.373,2355.855-1658.683,2355.855Zm-.026-.277c.332,0,.665,0,1,0,.2,0,.254-.116.25-.291s.011-.339-.229-.342c-.663-.007-1.327-.016-1.99-.016-.228,0-.276.161-.279.352s.082.3.287.3C-1659.353,2355.576-1659.031,2355.579-1658.709,2355.578Zm2.656.771h0c0-.117.008-.236,0-.352-.035-.445-.269-.6-.8-.6-.491,0-.243.373-.308.583a1.073,1.073,0,0,0,.009.286.242.242,0,0,0,.19.262.718.718,0,0,1,.442.344.27.27,0,0,0,.312.108c.152-.03.157-.155.159-.276S-1656.054,2356.467-1656.054,2356.349Z" transform="translate(1668.177 -2352.562)" fill="#45a7d4"/>
    </g>
  </g>
</svg>
