<svg id="Group_18461" data-name="Group 18461" xmlns="http://www.w3.org/2000/svg" width="18.777" height="14.76" viewBox="0 0 18.777 14.76">
  <path id="Path_1041" data-name="Path 1041" d="M633.566,279.836h-5.04a.559.559,0,0,1-.574-.415.566.566,0,0,1,.428-.709,1.36,1.36,0,0,1,.277-.02h9.93c.193,0,.193,0,.257-.182a2.186,2.186,0,0,1,3.032-1.2,2.12,2.12,0,0,1,1.2,2.008,2.183,2.183,0,0,1-4.25.649.173.173,0,0,0-.2-.138Q636.1,279.839,633.566,279.836Zm6.287-.571a1.043,1.043,0,0,0,2.086.016,1.043,1.043,0,1,0-2.086-.016Z" transform="translate(-627.929 -277.077)" fill="#fff"/>
  <path id="Path_1042" data-name="Path 1042" d="M632.927,373.741q2.189,0,4.378,0a.191.191,0,0,0,.216-.149,2.11,2.11,0,0,1,1.864-1.457,2.158,2.158,0,0,1,2.368,1.953,2.186,2.186,0,0,1-3.29,2.1,2.032,2.032,0,0,1-.941-1.152.189.189,0,0,0-.215-.152q-3.3.005-6.608,0c-.72,0-1.439,0-2.159,0a.573.573,0,0,1-.59-.727.561.561,0,0,1,.54-.415c.983,0,1.966,0,2.95,0h1.486Zm6.646,1.608a1.036,1.036,0,0,0,1.054-1.049,1.047,1.047,0,1,0-1.054,1.049Z" transform="translate(-627.93 -361.748)" fill="#fff"/>
  <path id="Path_1043" data-name="Path 1043" d="M630.625,326.225c.708,0,1.417,0,2.126,0a.146.146,0,0,0,.165-.117,2.118,2.118,0,0,1,1.782-1.482,2.172,2.172,0,0,1,2.474,2.113,2.131,2.131,0,0,1-.586,1.544,2.093,2.093,0,0,1-1.305.67,2.155,2.155,0,0,1-1.878-.657,1.935,1.935,0,0,1-.482-.811.16.16,0,0,0-.188-.134q-2.1,0-4.2,0a.54.54,0,0,1-.555-.375.556.556,0,0,1,.525-.754C629.208,326.223,629.917,326.225,630.625,326.225Zm5.4.572a1.046,1.046,0,0,0-1.037-1.052,1.045,1.045,0,1,0,1.037,1.052Z" transform="translate(-627.939 -319.413)" fill="#fff"/>
  <path id="Path_1044" data-name="Path 1044" d="M724.259,340.591H721.8c-.445,0-.89,0-1.335,0a.564.564,0,1,1,0-1.127q3.8,0,7.605,0a.564.564,0,1,1,0,1.127q-1.713,0-3.426,0Z" transform="translate(-709.853 -332.65)" fill="#fff"/>
  <path id="Path_1045" data-name="Path 1045" d="M764.118,388.055c-.484,0-.968,0-1.452,0a.571.571,0,0,1-.609-.478.561.561,0,0,1,.553-.664c.542,0,1.084,0,1.626,0,.457,0,.914,0,1.371,0a.556.556,0,0,1,.532.361.573.573,0,0,1-.16.644.619.619,0,0,1-.421.138Z" transform="translate(-747.404 -374.918)" fill="#fff"/>
  <path id="Path_1046" data-name="Path 1046" d="M775.473,293.01c-.275,0-.549,0-.824,0a.568.568,0,0,1-.088-1.131.774.774,0,0,1,.127-.011c.526,0,1.053,0,1.579,0a.572.572,0,0,1,.611.461.564.564,0,0,1-.534.68c-.147,0-.294,0-.441,0Z" transform="translate(-758.114 -290.251)" fill="#fff"/>
</svg>
