<svg xmlns="http://www.w3.org/2000/svg" width="44" height="44" viewBox="0 0 44 44">
  <g id="Group_51370" data-name="Group 51370" transform="translate(-353 -70)">
    <g id="Group_47338" data-name="Group 47338" transform="translate(6451.221 -7474)">
      <circle id="Ellipse_4155" data-name="Ellipse 4155" cx="22" cy="22" r="22" transform="translate(-6098.221 7544)" fill="#34b2e2" opacity="0.088"/>
    </g>
    <path id="Path_24943" data-name="Path 24943" d="M-2259.4,2140.626a.975.975,0,0,1,.581.328l7.208,6.334c.2.179.409.35.609.533a.779.779,0,0,1-.019,1.28q-2.289,2.017-4.583,4.026-1.6,1.407-3.2,2.814a1.757,1.757,0,0,1-.405.29c-.277.121-.505-.011-.636-.308a.743.743,0,0,1,.2-.918l2.66-2.334,4.421-3.885c.38-.335.378-.335-.017-.684q-3.51-3.081-7.02-6.16a.786.786,0,0,1-.316-.715.623.623,0,0,1,.343-.539A1.5,1.5,0,0,1-2259.4,2140.626Z" transform="translate(2630.303 -2056.451)" fill="#34b2e2"/>
  </g>
</svg>
