<svg xmlns="http://www.w3.org/2000/svg" width="38.171" height="27.722" viewBox="0 0 38.171 27.722">
  <path id="Path_39627" data-name="Path 39627" d="M-513,1031.349c.357-.062.515-.38.738-.6q3.518-3.5,7.012-7.021a1.886,1.886,0,0,1,1.463-.621q9.873.028,19.746,0a1.887,1.887,0,0,1,1.462.625q3.485,3.531,7.012,7.02c.222.221.377.542.738.6v.59q-9.019,9.038-18.033,18.081c-.242.243-.6.41-.659.807h-.787c.012-.276-.231-.379-.382-.531q-8.882-8.9-17.776-17.785c-.152-.151-.256-.395-.534-.376Zm13.43.972,5.561,15.9c.156-.106.2-.118.2-.142l.66-1.873c1.492-4.233,3.086-8.764,4.689-13.291.187-.527-.029-.6-.491-.6-1.539.018-3.078.007-4.618.007Zm22.493,0c-3.061,0-6.071.023-9.081-.018a1.027,1.027,0,0,0-1.179.834c-1.578,4.606-3.2,9.2-4.8,13.794-.075.214-.307.435-.179.607Zm-33.62,0,15.184,15.166c.04-.215-.157-.5-.261-.8q-2.193-6.3-4.406-12.584c-.625-1.784-.625-1.784-2.538-1.784Zm11.123-1.169c3.691,0,7.223-.006,10.755.005.7,0,.422-.387.314-.7-.64-1.853-1.3-3.7-1.929-5.556-.142-.419-.325-.641-.821-.632-1.767.03-3.535.013-5.3.01-.335,0-.616,0-.76.421C-498.033,1026.8-498.779,1028.889-499.574,1031.152Zm-11.434,0c3.406,0,6.515-.007,9.624.008a.7.7,0,0,0,.782-.545c.649-1.921,1.311-3.838,2-5.743.189-.519.033-.606-.449-.6-1.54.02-3.079.01-4.619.005a.915.915,0,0,0-.716.241C-506.526,1026.67-508.673,1028.816-511.008,1031.152Zm34.167,0-6.671-6.688a.818.818,0,0,0-.639-.184c-1.54,0-3.08.025-4.619-.011-.626-.014-.606.214-.437.685q1.013,2.816,1.973,5.65a.694.694,0,0,0,.772.558C-483.35,1031.144-480.239,1031.152-476.84,1031.152Z" transform="translate(513 -1023.106)" fill="#45a7d4"/>
</svg>
