<svg xmlns="http://www.w3.org/2000/svg" width="15.021" height="13.223" viewBox="0 0 15.021 13.223">
  <path id="Path_39607" data-name="Path 39607" d="M1506.537,254.183a4.016,4.016,0,0,1,3,1.4c.221.24.349.231.564,0a4.139,4.139,0,0,1,6.268,5.4c-.356.422-.764.8-1.155,1.194q-2.478,2.485-4.96,4.966c-.347.348-.505.35-.845.01-1.96-1.959-3.931-3.905-5.875-5.88a4.15,4.15,0,0,1,1.9-6.97A4.455,4.455,0,0,1,1506.537,254.183Zm-.266.785a3.361,3.361,0,0,0-2.291,5.627c1.872,1.915,3.78,3.795,5.668,5.694.137.138.215.126.343-.006.436-.449.883-.887,1.325-1.33,1.449-1.453,2.922-2.883,4.34-4.366a3.311,3.311,0,0,0-.074-4.6,3.346,3.346,0,0,0-4.621-.152c-.283.252-.541.532-.816.794a.405.405,0,0,1-.664-.007c-.221-.215-.432-.439-.652-.654A3.481,3.481,0,0,0,1506.271,254.968Z" transform="translate(-1502.305 -254.183)" fill="#45a7d4"/>
</svg>
