<svg xmlns="http://www.w3.org/2000/svg" width="22.359" height="20.018" viewBox="0 0 22.359 20.018">
  <path id="Path_21633" data-name="Path 21633" d="M208.651,298.562a5.845,5.845,0,0,1,4.289,1.76c.342.344.489.266.792-.023a6.155,6.155,0,0,1,10.258,2.822,5.717,5.717,0,0,1-1.434,5.763c-2.958,3.032-5.986,6-8.979,8.995-.178.178-.28.216-.481.014-3-3.012-6.069-5.965-9.01-9.037a5.769,5.769,0,0,1-1.12-6.59A6.041,6.041,0,0,1,208.651,298.562Zm14.186,6.139a4.808,4.808,0,0,0-8.117-3.463c-.4.358-.773.744-1.139,1.136-.183.2-.3.212-.494.009-.391-.415-.794-.822-1.216-1.205a4.824,4.824,0,0,0-6.663.148,4.736,4.736,0,0,0-.1,6.648c2.61,2.7,5.292,5.327,7.935,7.993.212.214.324.194.528-.01,2.638-2.647,5.294-5.277,7.928-7.928A4.519,4.519,0,0,0,222.837,304.7Z" transform="translate(-202.135 -298.261)" fill="#fff" stroke="#fff" stroke-width="0.5"/>
</svg>
