<svg xmlns="http://www.w3.org/2000/svg" width="19.465" height="20.206" viewBox="0 0 19.465 20.206">
  <g id="Group_47529" data-name="Group 47529" transform="translate(237.937 -351.439)">
    <path id="Path_8391" data-name="Path 8391" d="M-228.119,371.644c-1.66,0-3.32,0-4.98,0a4.15,4.15,0,0,1-1.543-.216,2.081,2.081,0,0,1-1.445-2.092c-.009-2.163-.017-4.327.008-6.49.006-.484-.139-.666-.613-.6a1.8,1.8,0,0,1-.477,0c-.74-.094-1.008-.7-.521-1.261.789-.9,1.621-1.77,2.431-2.655q2.867-3.134,5.732-6.27c.862-.939,2.192-.8,3.249.363,1.407,1.542,2.739,3.158,4.21,4.635,1.1,1.106,2.009,2.39,3.2,3.409a.952.952,0,0,1,.357,1.035.9.9,0,0,1-.859.667c-.6.036-.677.345-.67.869.03,2.072.015,4.145.011,6.217a2.055,2.055,0,0,1-1.7,2.223,4.84,4.84,0,0,1-1.346.172Zm.03-.547c1.183,0,2.366.007,3.548,0a18.5,18.5,0,0,0,2.247-.067c1.306-.171,1.72-.7,1.721-1.991,0-2.187.018-4.374-.012-6.56-.008-.569.1-.875.741-.785a.578.578,0,0,0,.637-.3c.144-.293-.1-.467-.262-.643-.792-.871-1.574-1.751-2.378-2.612-1.7-1.821-3.381-3.66-5.066-5.5a1.444,1.444,0,0,0-2.419.035c-2.183,2.366-4.335,4.761-6.5,7.144-.273.3-.557.586-.856.863-.259.24-.748.505-.594.887.123.3.629.149.947.116.656-.068.8.2.79.814-.032,2.255-.016,4.51-.011,6.765a1.637,1.637,0,0,0,1.532,1.76,8.106,8.106,0,0,0,1.087.07C-231.319,371.1-229.7,371.1-228.089,371.1Z" transform="translate(0)" fill="#f6f6f6"/>
  </g>
</svg>
