<svg xmlns="http://www.w3.org/2000/svg" width="15.915" height="12.669" viewBox="0 0 15.915 12.669">
  <g id="Group_49916" data-name="Group 49916" transform="translate(0 0)">
    <path id="Path_40710" data-name="Path 40710" d="M6183.321,3318.409q-2.824,0-5.65,0c-1.046,0-1.411-.352-1.412-1.377q-.006-4.044,0-8.089c0-.946.4-1.35,1.333-1.351q5.71-.008,11.42,0c.951,0,1.351.4,1.352,1.333q.009,4.1,0,8.208c0,.885-.393,1.272-1.272,1.275C6187.168,3318.413,6185.245,3318.409,6183.321,3318.409Zm0-10.262c-1.9,0-3.807.006-5.71,0-.5,0-.8.153-.794.708q.009,4.164,0,8.328c0,.252.027.525.286.594s.33-.24.444-.4c1.163-1.677,2.314-3.363,3.472-5.044.385-.559.484-.559.892,0,.54.735,1.082,1.468,1.607,2.213.173.246.3.316.526.057.248-.283.55-.518.8-.8.324-.371.57-.365.905.02,1.055,1.21,2.138,2.4,3.224,3.579.153.166.25.526.587.368.278-.13.244-.424.244-.683q0-4.046,0-8.09c0-.711-.124-.833-.829-.835Q6186.144,3308.143,6183.318,3308.147Zm5.313,9.7c-1.1-1.22-2.109-2.331-3.105-3.456-.207-.234-.34-.178-.521.011-.3.314-.628.6-.928.92-.279.294-.486.249-.712-.068-.524-.743-1.086-1.462-1.6-2.214-.256-.377-.377-.3-.6.027-.983,1.461-1.992,2.905-2.986,4.36-.081.12-.239.223-.165.421Z" transform="translate(-6174.453 -3305.742)" fill="#45a7d4"/>
    <path id="Path_40711" data-name="Path 40711" d="M6144.418,3267.737c1.942,0,3.884,0,5.827,0a1.079,1.079,0,0,1,1.174.87c.035.192.029.377-.178.443-.227.073-.315-.085-.356-.284-.084-.419-.389-.5-.758-.5q-5.737,0-11.475,0c-.515,0-.753.22-.751.755q.015,4.1,0,8.2c0,.4.081.707.538.779.182.029.293.145.24.333s-.2.215-.379.2c-.564-.044-.955-.557-.957-1.3q-.005-3.538,0-7.075c0-.4-.007-.793,0-1.189a1.1,1.1,0,0,1,1.247-1.239C6140.533,3267.732,6142.476,3267.737,6144.418,3267.737Z" transform="translate(-6137.339 -3267.735)" fill="#45a7d4"/>
    <path id="Path_40712" data-name="Path 40712" d="M6369.252,3358.718a1.294,1.294,0,0,1-1.289-1.274,1.313,1.313,0,0,1,1.3-1.33,1.338,1.338,0,0,1,1.3,1.283A1.316,1.316,0,0,1,6369.252,3358.718Zm.749-1.329a.725.725,0,0,0-.786-.7.7.7,0,0,0-.692.737.722.722,0,0,0,.753.739A.741.741,0,0,0,6370,3357.389Z" transform="translate(-6357.278 -3352.019)" fill="#45a7d4"/>
  </g>
</svg>
