<svg xmlns="http://www.w3.org/2000/svg" width="16.574" height="16.641" viewBox="0 0 16.574 16.641">
  <g id="zXrKtN.tif" transform="translate(-5855.68 -4283.223)">
    <g id="Group_49945" data-name="Group 49945" transform="translate(5855.68 4283.223)">
      <path id="Path_40729" data-name="Path 40729" d="M5939.962,4283.223c.4.09.8.171,1.2.272a8.323,8.323,0,0,1,2.36,15.078c-.295.2-.587.292-.874.012s-.211-.677.22-.953a7.17,7.17,0,0,0-3.3-13.231c-.092-.007-.184-.015-.276-.018-.3-.011-.588-.032-.731-.364-.156-.363.087-.57.292-.8Z" transform="translate(-5930.813 -4283.223)" fill="#45a7d4"/>
      <path id="Path_40731" data-name="Path 40731" d="M5903.488,4442.319a8.319,8.319,0,0,1-3.69-.884c-.444-.223-.587-.5-.439-.829.157-.351.486-.426.945-.2a7.155,7.155,0,0,0,4.625.622c.061-.012.123-.018.183-.031a.547.547,0,0,1,.732.441c.08.388-.163.607-.522.684A7.92,7.92,0,0,1,5903.488,4442.319Z" transform="translate(-5895.248 -4425.68)" fill="#45a7d4"/>
      <path id="Path_40732" data-name="Path 40732" d="M5860.917,4390.724a.562.562,0,0,1-.317.558.506.506,0,0,1-.6-.068,7.981,7.981,0,0,1-2.4-4.123.508.508,0,0,1,.432-.653.543.543,0,0,1,.687.451,7.217,7.217,0,0,0,1.638,3.062c.124.137.254.268.383.4A.534.534,0,0,1,5860.917,4390.724Z" transform="translate(-5857.4 -4376.829)" fill="#45a7d4"/>
      <path id="Path_40733" data-name="Path 40733" d="M5855.682,4334.392a8.2,8.2,0,0,1,.724-2.57.57.57,0,1,1,1.033.479,7.824,7.824,0,0,0-.62,2.25.541.541,0,0,1-.612.545C5855.824,4335.062,5855.66,4334.8,5855.682,4334.392Z" transform="translate(-5855.68 -4326.981)" fill="#45a7d4"/>
      <path id="Path_40734" data-name="Path 40734" d="M5882.854,4304.725a.827.827,0,0,1-.7.727.563.563,0,0,1-.584-.572.861.861,0,0,1,.7-.734A.577.577,0,0,1,5882.854,4304.725Z" transform="translate(-5879.16 -4302.201)" fill="#45a7d4"/>
    </g>
  </g>
</svg>
