<svg xmlns="http://www.w3.org/2000/svg" width="19.361" height="17.184" viewBox="0 0 19.361 17.184">
  <g id="Group_49937" data-name="Group 49937" transform="translate(0 0)">
    <path id="Path_40720" data-name="Path 40720" d="M5229.257,3931.343c-5.588-.011-4.856.477-4.95-5.076a8.5,8.5,0,0,1,1.414-5.411,5.684,5.684,0,0,0,.789-3.479c.019-1.28.564-2.253,1.963-2.248a1.825,1.825,0,0,1,1.948,2.231c-.61,3.407,1.289,3.538,3.851,3.44,2.678-.1,3.154.707,2.491,3.334-.147.583-.174,1.2-.333,1.774C5234.932,3931.343,5234.927,3931.342,5229.257,3931.343Zm.188-.868c2.095-.142,4.629.853,5.457-2.372.435-1.692.312-3.5,1.3-5.1.43-.693-.342-1.284-1.092-1.388a8.261,8.261,0,0,0-2.325-.042c-2.628.4-3.734-.6-3.191-3.264a2.292,2.292,0,0,0,.01-.518c-.021-.786.013-1.7-1.032-1.784-1.087-.085-1.188.827-1.185,1.617a7.561,7.561,0,0,1-1.354,4.383,6.7,6.7,0,0,0-.925,3.974C5225.169,3931.2,5224.606,3930.407,5229.445,3930.475Z" transform="translate(-5217.669 -3915.129)" fill="#45a7d4"/>
    <path id="Path_40725" data-name="Path 40725" d="M5203.791,3941.345c0-.776-.032-1.554.006-2.328.083-1.7.937-2.8,2.688-2.869,1.8-.072,2.687,1.044,2.8,2.722.1,1.546.068,3.1.023,4.655-.051,1.8-.917,3.039-2.813,3.01-1.917-.029-2.657-1.335-2.689-3.119-.012-.69,0-1.38,0-2.07Zm4.575.019h.063c0-.773.008-1.547,0-2.32a1.875,1.875,0,0,0-1.84-2.082,1.808,1.808,0,0,0-1.891,2.009c-.01,1.717-.024,3.438.075,5.151a1.585,1.585,0,0,0,1.747,1.532,1.636,1.636,0,0,0,1.821-1.462A21.4,21.4,0,0,0,5208.366,3941.364Z" transform="translate(-5203.779 -3929.351)" fill="#45a7d4"/>
  </g>
</svg>
