<svg width="19.361" height="17.184" xmlns="http://www.w3.org/2000/svg">

 <g>
  <title>Layer 1</title>
  <g data-name="Group 49937" id="Group_49937">
   <path fill="#45a7d4" d="m11.58805,16.21409c-5.588,-0.011 -4.856,0.477 -4.95,-5.076a8.5,8.5 0 0 1 1.414,-5.411a5.684,5.684 0 0 0 0.789,-3.479c0.019,-1.28 0.564,-2.253 1.963,-2.248a1.825,1.825 0 0 1 1.948,2.231c-0.61,3.407 1.289,3.538 3.851,3.44c2.678,-0.1 3.154,0.707 2.491,3.334c-0.147,0.583 -0.174,1.2 -0.333,1.774c-1.498,5.435 -1.503,5.434 -7.173,5.435zm0.188,-0.868c2.095,-0.142 4.629,0.853 5.457,-2.372c0.435,-1.692 0.312,-3.5 1.3,-5.1c0.43,-0.693 -0.342,-1.284 -1.092,-1.388a8.261,8.261 0 0 0 -2.325,-0.042c-2.628,0.4 -3.734,-0.6 -3.191,-3.264a2.292,2.292 0 0 0 0.01,-0.518c-0.021,-0.786 0.013,-1.7 -1.032,-1.784c-1.087,-0.085 -1.188,0.827 -1.185,1.617a7.561,7.561 0 0 1 -1.354,4.383a6.7,6.7 0 0 0 -0.925,3.974c0.061,5.219 -0.502,4.426 4.337,4.494z" data-name="Path 40720" id="Path_40720"/>
   <path fill="#45a7d4" d="m0.01219,11.99393c0,-0.776 -0.032,-1.554 0.006,-2.328c0.083,-1.7 0.937,-2.8 2.688,-2.869c1.8,-0.072 2.687,1.044 2.8,2.722c0.1,1.546 0.068,3.1 0.023,4.655c-0.051,1.8 -0.917,3.039 -2.813,3.01c-1.917,-0.029 -2.657,-1.335 -2.689,-3.119c-0.012,-0.69 0,-1.38 0,-2.07l-0.015,-0.001zm4.575,0.019l0.063,0c0,-0.773 0.008,-1.547 0,-2.32a1.875,1.875 0 0 0 -1.84,-2.082a1.808,1.808 0 0 0 -1.891,2.009c-0.01,1.717 -0.024,3.438 0.075,5.151a1.585,1.585 0 0 0 1.747,1.532a1.636,1.636 0 0 0 1.821,-1.462a21.4,21.4 0 0 0 0.025,-2.828z" data-name="Path 40725" id="Path_40725"/>
  </g>
  <path stroke="#43a9d4" d="m2.6248,7.66968c-0.26692,0.1324 -0.46925,0.18594 -0.93422,0.86059c-0.31429,0.45603 -0.68702,1.12164 -0.93422,1.45639c-0.14516,0.19657 -0.28053,0.27621 0,0.92679c0.08827,0.20471 0.13346,0.3972 0.26692,0.4634l0,0" id="svg_1" fill="none"/>
  <path stroke="#45a7d4" d="m2.45044,7.35816c0.27627,0.06524 0.52326,0.17075 0.58707,0.19572c0.13536,0.05296 0.17267,0.13048 0.27627,0.22834c0,0 0.03453,0.03262 0.03453,0.03262c0.03453,0.03262 0.05585,0.06772 0.06907,0.09786c0.01869,0.04262 0.03453,0.06524 0.06907,0.09786c0.03453,0.03262 0.08491,0.05524 0.1036,0.09786c0.02643,0.06027 0.04736,0.12222 0.13813,0.26096c0.0406,0.06205 0.14312,0.22619 0.17267,0.29358c0.04179,0.0953 0.0862,0.12747 0.1036,0.26096c0.00844,0.06475 0,0.1631 0,0.19572c0,0.13048 0,0.19572 0.03453,0.26096c0,0 0,0 0,0c0,0 0.03453,0.03262 0.03453,0.03262c0.03453,0 0.03453,0 0.06907,0.03262c0.1036,0.09786 0.1898,0.16009 0.2072,0.29358c0.00844,0.06475 0.08853,0.29436 0.1036,0.42406c0.03474,0.29895 0.06907,0.42406 0.06907,0.75026c0,0.19572 0.00919,0.5873 0,0.84812c-0.01728,0.49011 -0.06893,0.71323 -0.1036,1.07646c-0.01861,0.19493 -0.05834,0.52223 -0.06907,0.68502c-0.0173,0.26248 -0.08627,0.3568 -0.1036,0.55454c-0.00855,0.09753 0.00553,0.1309 0,0.1631c-0.01749,0.10182 -0.03453,0.1631 -0.03453,0.29358c0,0.06524 -0.03453,0.26096 -0.03453,0.3262c0,0.19572 -0.02773,0.2939 -0.03453,0.35882c-0.01735,0.16552 -0.08586,0.25521 -0.1036,0.3262c-0.00793,0.03175 -0.00263,0.05276 -0.03453,0.06524c-0.04512,0.01765 -0.03638,0.01763 -0.1036,0.03262c-0.07515,0.01676 -0.13906,0.02513 -0.17267,0.03262c-0.07515,0.01676 -0.13813,0.03262 -0.24174,0.03262c-0.03453,0 -0.06907,0 -0.13813,0c-0.13813,0 -0.20738,-0.02799 -0.27627,-0.03262c-0.24357,-0.01635 -0.46207,-0.03518 -0.8288,-0.19572c-0.25261,-0.11058 -0.34534,-0.1631 -0.4144,-0.22834c-0.03453,-0.03262 -0.06907,-0.03262 -0.1036,-0.06524c-0.03453,-0.03262 -0.06907,-0.06524 -0.06907,-0.06524c-0.1036,-0.03262 -0.13813,-0.06524 -0.17267,-0.09786c-0.03453,-0.03262 -0.00123,-0.08169 -0.1036,-0.22834c-0.02688,-0.03851 -0.11796,-0.22055 -0.17267,-0.3262c-0.04798,-0.09266 -0.07195,-0.29271 -0.1036,-0.39144c-0.1141,-0.35597 -0.0853,-0.78345 -0.1036,-1.04384c-0.03461,-0.49255 -0.08629,-0.7159 -0.1036,-0.94598c-0.02448,-0.32538 -0.03453,-0.55454 -0.03453,-1.01122c0,-0.26096 -0.01551,-0.68568 0,-0.84812c0.03467,-0.36323 0.1299,-0.52655 0.27627,-0.75026c0.06546,-0.10005 0.3082,-0.32875 0.37987,-0.39144c0.2336,-0.20434 0.3927,-0.26916 0.69067,-0.42406c0.10908,-0.05671 0.14008,-0.07604 0.17267,-0.06524c0.20866,0.06914 0.39991,0.27394 0.58707,0.8155c0.0988,0.28589 0.16541,0.97719 0.17267,1.33742c0.01251,0.62052 -0.10326,0.84128 -0.13813,1.07646c-0.00958,0.06461 -0.01584,0.08786 -0.03453,0.13048c-0.01322,0.03014 -0.01012,0.07479 -0.03453,0.09786c-0.02442,0.02307 -0.03741,-1.01125 -0.03453,-1.1417c0.01727,-0.78339 0.12086,-1.17368 0.13813,-1.7941c0.00363,-0.13044 -0.10408,-0.19288 -0.6216,1.59838c-0.13018,0.45057 -0.20346,1.21511 -0.27627,1.43528c-0.02302,0.06962 0.06907,-0.91336 0.06907,-1.23956c0,-0.29358 -0.1036,-0.8155 -0.1036,-0.94598c0,-0.03262 -0.3108,1.40266 -0.34534,1.69624c-0.03453,0.29358 -0.0684,0.4829 -0.03453,0.4893c0.88044,0.16633 0.42808,-1.04764 0.518,-1.43528c0.08427,-0.36331 0.17203,-0.8745 0.13813,-0.88074c-2.70652,-0.49851 -1.10507,2.90318 -1.10507,3.5882c0,0.06524 0.02745,0.06144 0.06907,0c0.11917,-0.17594 0.36972,-0.46804 0.6216,-1.17432c0.31819,-0.8922 0.32806,-1.30408 0.34534,-1.85934c0.00609,-0.19564 0,-0.19572 0,-0.19572c-0.13813,0.09786 -0.39362,0.28505 -0.69067,0.91336c-0.14702,0.31096 -0.2934,0.87773 -0.3108,1.01122c-0.00422,0.03238 0.37636,-0.26351 0.48347,-0.39144c0.1673,-0.19983 0.40419,-0.36679 0.65614,-0.9786c0.09114,-0.22132 0.1036,-0.42406 0.1036,-0.42406c0,0 -0.1578,0.07567 -0.34534,0.55454c-0.1482,0.37842 -0.2072,1.10908 -0.2072,1.40266c0,0.26096 0.03453,0.29358 0.03453,0.29358c0.03453,0 0.28718,-0.01515 0.4144,-0.09786c0.46308,-0.30106 0.63471,-0.57747 0.79427,-0.78288c0.34002,-0.43771 0.45313,-0.61582 0.37987,-0.68502c-0.02442,-0.02307 -0.12501,-0.04322 -0.3108,0.06524c-0.45698,0.26678 -0.70648,0.65777 -1.10507,1.37004c-0.15895,0.28403 -0.2934,0.74725 -0.3108,0.88074c-0.01266,0.09713 0,0.13048 0,0.13048c0.03453,0 0.05133,0.05949 0.06907,0.13048c0.03174,0.12699 0,0.1631 -0.06907,0.35882c-0.03453,0.09786 -0.17267,0.22834 -0.24173,0.29358c-0.06907,0.06524 -0.07918,0.04217 -0.1036,0.06524c-0.02442,0.02307 -0.04604,0.09348 -0.06907,0.1631c-0.07281,0.22017 -0.06907,0.39144 -0.06907,0.71764c0,0.09786 0,0.39144 0,0.55454c0,0.13048 0.06062,0.36313 0.13813,0.4893c0.0625,0.10172 0.06907,0.09786 0.06907,0.09786c0.03453,0 0.2072,-0.03262 0.3108,-0.03262c0.17267,0 0.24173,0 0.3108,0c0.06907,0 0.20772,0.02465 0.27627,0.03262c0.14132,0.01643 0.17267,0.03262 0.24173,0.03262c0.03453,0 0.06907,0 0.1036,0c0.1036,0 0.1036,0 0.17267,0c0.03453,0 0.03453,-0.03262 0.06907,-0.03262c0,0 0.03716,-0.02014 0.06907,-0.03262c0.09024,-0.03531 0.05919,-0.10476 0.13813,-0.19572c0.06193,-0.07135 0.16696,-0.11252 0.13813,-0.13048c-0.21956,-0.13676 -0.23955,0.10488 -0.34534,0.13048c-0.37402,0.09051 -0.54686,0.1629 -0.86334,0.19572c-0.06865,0.00712 -0.20997,0.0551 -0.3108,0.03262c-0.22546,-0.05027 -0.27253,-0.13686 -0.518,-0.26096c-0.13616,-0.06884 -0.2396,-0.16566 -0.4144,-0.29358c-0.1365,-0.09989 -0.25369,-0.21873 -0.3108,-0.29358c-0.04515,-0.05917 -0.03453,-0.09786 -0.06907,-0.1631c-0.03453,-0.06524 -0.03453,-0.13048 -0.03453,-0.13048c-0.03453,-0.13048 -0.10334,-0.1897 -0.13813,-0.45668c-0.0211,-0.16188 -0.03453,-0.4893 -0.03453,-0.6524c0,-0.3262 -0.00408,-0.45756 0.06907,-0.75026c0.03271,-0.1309 0.06379,-0.36017 0.1036,-0.4893c0.03053,-0.09904 0.05886,-0.1962 0.06907,-0.29358c0.01735,-0.16552 0.05177,-0.29206 0.06907,-0.55454c0.01073,-0.16278 0.05927,-0.48963 0.06907,-0.61978c0.01731,-0.23008 0.05178,-0.39022 0.06907,-0.71764c0.0086,-0.1629 0.04957,-0.55751 0.1036,-0.8155c0.07641,-0.36485 0.11655,-0.56262 0.27627,-0.91336c0.06102,-0.13401 0.16207,-0.42956 0.24173,-0.55454c0.15323,-0.2404 0.20506,-0.32774 0.3108,-0.45668c0.13542,-0.16512 0.27627,-0.29358 0.3108,-0.3262c0.03453,-0.03262 0.01896,-0.06378 0.13813,-0.09786c0.0661,-0.01891 0.12755,-0.01497 0.17267,-0.03262c0.06381,-0.02497 0.1036,-0.03262 0.13813,-0.03262c0,0 0.07511,-0.01344 0.4144,0.13048c0.14089,0.05976 0.3108,0.1631 0.34534,0.19572c0.03453,0.03262 0.0862,0.02961 0.1036,0.1631c0.01266,0.09713 0.05683,0.35923 0.06907,0.52192c0.03462,0.46016 0.12905,0.62278 0.24174,0.91336c0.06397,0.16495 0.10764,0.2599 0.17267,0.4893c0.03683,0.12992 0.11336,0.42275 0.13813,0.61978c0.05717,0.45465 0.06907,0.6524 0.06907,1.01122c0,0.1631 0.01032,0.48954 0,0.68502c-0.01729,0.32742 -0.10339,0.48393 -0.13813,0.78288c-0.01507,0.1297 -0.06379,0.32755 -0.1036,0.45668c-0.06106,0.19808 -0.12306,0.28388 -0.2072,0.45668c-0.04563,0.09372 -0.13647,0.32726 -0.2072,0.42406c-0.16875,0.23094 -0.22309,0.40487 -0.44894,0.58716c-0.05871,0.04738 -0.13813,0.09786 -0.13813,0.09786c0,0 0.01322,-0.00248 0,-0.03262c-0.01869,-0.04262 -0.01967,-0.06958 -0.06907,-0.19572c-0.05358,-0.13682 -0.15345,-0.51827 -0.2072,-0.75026c-0.09712,-0.41913 -0.11834,-0.65426 -0.17267,-1.07646c-0.02535,-0.19697 -0.06907,-0.55454 -0.06907,-0.8155c0,-0.4893 -0.01725,-0.74932 -0.03453,-1.17432c-0.00795,-0.19558 -0.01005,-0.6526 0,-0.88074c0.01728,-0.39246 0.02041,-0.65386 0.06907,-1.01122c0.02679,-0.1968 0.04645,-0.46245 0.1036,-0.61978c0.10024,-0.27597 0.14082,-0.37702 0.27627,-0.55454c0.02856,-0.03742 0.06907,-0.09786 0.1036,-0.1631c0.03453,-0.06524 0.13813,-0.1631 0.17267,-0.22834c0,0 0.03453,0 0.03453,0c0,0 0.02974,0.00032 0.03453,0.03262c0.03487,0.23518 0.11449,0.42143 0.24173,0.91336c0.07557,0.29215 0.26125,0.87523 0.34534,1.17432c0.13559,0.48227 0.24764,0.8062 0.37987,1.40266c0.05005,0.22576 0.19688,0.68526 0.2072,0.88074c0.01729,0.32742 0.05287,0.42521 0.03453,0.55454c-0.05226,0.36863 -0.17267,0.55454 -0.3108,0.88074c-0.06907,0.1631 -0.25503,0.46881 -0.34534,0.58716c-0.11422,0.1497 -0.2151,0.21952 -0.37987,0.35882c-0.07278,0.06153 -0.19895,0.14405 -0.3108,0.19572c-0.0981,0.04532 -0.15536,0.03436 -0.17267,-0.19572c-0.01224,-0.16269 -0.01885,-0.36263 0.03453,-0.55454c0.10272,-0.36927 0.37593,-0.72669 0.48347,-0.88074c0.10237,-0.14665 0.19658,-0.36489 0.24173,-0.42406c0.05711,-0.07485 0.04465,-0.07479 0.06907,-0.09786c0.02442,-0.02307 -0.11129,0.08886 -0.24173,0.19572c-0.11068,0.09068 -0.27766,0.22672 -0.44894,0.35882c-0.20892,0.16113 -0.3187,0.25214 -0.48347,0.39144c-0.07278,0.06153 -0.17267,0.22834 -0.2072,0.3262c-0.06907,0.19572 -0.09952,0.32708 -0.17267,0.61978c-0.03271,0.1309 -0.06907,0.3262 -0.06907,0.39144c0,0.09786 0.17723,0.18774 0.3108,0.26096c0.10769,0.05903 0.13919,0.095 0.24173,0.13048c0.17462,0.06042 0.26788,0.16267 0.48347,0.19572c0.13635,0.0209 0.37567,-0.0161 0.48347,-0.03262c0.10226,-0.01568 0.13813,-0.03262 0.17267,-0.03262c0.03453,0 0.12755,-0.04759 0.17267,-0.06524c0.0319,-0.01248 0.1036,-0.03262 0.1036,-0.03262c0,0 0,-0.03262 0,-0.03262c0,-0.03262 -0.11382,-0.12377 -0.2072,-0.26096c-0.23402,-0.34379 -0.34534,-0.55454 -0.55254,-1.01122c-0.1036,-0.22834 -0.32035,-0.78003 -0.4144,-1.07646c-0.1539,-0.48508 -0.15287,-0.78473 -0.2072,-1.20694c-0.02535,-0.19697 -0.03453,-0.39144 -0.03453,-0.4893c0,-0.13048 -0.01714,-0.22533 -0.03453,-0.35882c-0.01266,-0.09713 -0.008,-0.22598 -0.06907,-0.42406c-0.03981,-0.12913 -0.12752,-0.33227 -0.17267,-0.39144c-0.02856,-0.03742 -0.02395,-0.04759 -0.06907,-0.06524c-0.0319,-0.01248 -0.09038,-0.0351 -0.1036,-0.06524c-0.01869,-0.04262 -0.04465,-0.04217 -0.06907,-0.06524c-0.02442,-0.02307 -0.03453,0 -0.03453,0c-0.03453,0 -0.03453,0 -0.03453,0.03262c0,0 -0.06907,0.06524 -0.06907,0.06524c0,0.03262 0,0.03262 0,0.13048c0,0.06524 -0.03453,0.19572 -0.03453,0.22834c0,0.03262 0.03453,0.06524 0.03453,0.03262c0,-0.03262 -0.03716,0.02014 -0.06907,0.03262c-0.04512,0.01765 -0.03453,0.06524 -0.06907,0.06524c0,0 0.03044,-0.00957 0.27627,-0.09786c0.20415,-0.07332 0.44464,-0.14588 1.07054,-0.29358c0.30889,-0.07289 0.86084,-0.2359 1.07054,-0.29358c0.27341,-0.07521 0.42863,-0.06421 0.55254,-0.13048c0.0425,-0.02273 0.06907,-0.03262 0.06907,-0.03262c0.03453,-0.03262 0.01011,-0.04217 0.03453,-0.06524c0.02442,-0.02307 0.03453,-0.03262 0.03453,-0.06524c0,-0.06524 0,-0.09786 0,-0.19572c0,-0.03262 -0.00498,-0.12833 -0.03453,-0.19572c-0.04179,-0.0953 -0.05038,-0.1531 -0.06907,-0.19572c-0.01322,-0.03014 -0.01011,-0.07479 -0.03453,-0.09786c-0.02442,-0.02307 -0.09359,-0.13188 -0.1036,-0.1631c-0.03608,-0.11257 -0.1036,-0.13048 -0.13813,-0.19572c0,0 -0.03453,-0.03262 -0.03453,-0.03262c-0.06907,-0.06524 -0.06907,-0.06524 -0.13813,-0.13048c-0.06907,-0.06524 -0.1036,-0.09786 -0.17267,-0.13048c-0.06907,-0.03262 -0.06999,-0.05775 -0.1036,-0.06524c-0.07515,-0.01676 -0.07184,-0.01014 -0.17267,-0.03262c-0.07515,-0.01676 -0.13813,-0.03262 -0.17267,-0.03262c-0.1036,0 -0.13813,0 -0.2072,0.03262c-0.06907,0.03262 -0.17909,0.05521 -0.24173,0.09786c-0.15848,0.1079 -0.21455,0.133 -0.3108,0.29358c-0.07015,0.11704 -0.12249,0.39511 -0.17267,0.55454c-0.10598,0.33676 -0.20713,0.55129 -0.24173,1.04384c-0.02058,0.29294 -0.06907,0.8155 -0.1036,1.04384c-0.03453,0.22834 -0.06907,0.55454 -0.1036,0.78288l0,0.06524l-0.03453,0.06524l0,0" id="svg_2" fill="#B9FFCE"/>
  <path d="m10.44411,0.72264c0,0 0,0 0,0c-0.03115,0 -0.06231,0 -0.12461,0.03115c0,0 -0.03115,0.03115 -0.03115,0.03115c0,0 -0.03115,0 -0.06231,0c0,0 0,0.03115 0,0.03115c-0.03115,0 -0.01923,0.00237 -0.03115,0.03115c-0.01686,0.0407 -0.03115,0.03115 -0.03115,0.06231c0,0 -0.02213,0.06364 -0.03115,0.09346c-0.03255,0.1075 -0.04167,0.16542 -0.09346,0.24922c-0.02316,0.03748 -0.04545,0.11506 -0.06231,0.15576c-0.01192,0.02878 0,0.06231 0,0.09346c0,0 -0.01973,0.09416 -0.03115,0.18692c-0.01569,0.12748 -0.04668,0.21614 -0.06231,0.40498c-0.00514,0.06209 -0.03115,0.18692 -0.03115,0.24922c0,0.09346 -0.01537,0.15198 -0.03115,0.24922c-0.00499,0.03075 -0.01546,0.12174 -0.03115,0.24922c-0.00761,0.06184 -0.01515,0.21258 -0.03115,0.28037c-0.02147,0.09096 0,0.12461 0,0.18692c0,0.03115 0,0.09346 0,0.12461c0,0.03115 -0.01546,0.09059 -0.03115,0.21807c-0.01142,0.09276 -0.03115,0.21807 -0.03115,0.28037c0,0.09346 -0.01515,0.11912 -0.03115,0.18692c-0.00716,0.03032 -0.02616,0.12501 -0.03115,0.15576c-0.01578,0.09724 -0.04014,0.18281 -0.09346,0.31153c-0.0377,0.09101 -0.0415,0.16291 -0.09346,0.28037c-0.04544,0.10272 -0.09089,0.13666 -0.12461,0.21807c-0.01192,0.02878 -0.00731,0.06705 -0.03115,0.12461c-0.01686,0.0407 -0.03914,0.05598 -0.06231,0.09346c-0.05179,0.0838 -0.03846,0.12935 -0.06231,0.18692c-0.01686,0.0407 -0.05849,0.09551 -0.09346,0.15576c-0.05638,0.09715 -0.09346,0.18692 -0.12461,0.24922c-0.03115,0.06231 -0.06231,0.15576 -0.06231,0.15576c-0.06231,0.09346 -0.07768,0.12083 -0.09346,0.21807c-0.00499,0.03075 -0.06492,0.12337 -0.09346,0.18692c-0.06872,0.15304 -0.09588,0.26661 -0.21807,0.43614c-0.02576,0.03574 -0.09346,0.12461 -0.18692,0.31153c-0.03115,0.06231 -0.05273,0.16156 -0.09346,0.21807c-0.02576,0.03574 -0.07745,0.08797 -0.09346,0.15576c-0.00716,0.03032 -0.06929,0.12158 -0.09346,0.18692c-0.04456,0.12047 -0.03115,0.18692 -0.09346,0.37383c-0.03115,0.09346 -0.06231,0.28037 -0.09346,0.37383c-0.06231,0.18692 -0.07781,0.27806 -0.09346,0.43614c-0.01228,0.124 0.00771,0.31184 0,0.40498c-0.01563,0.18885 -0.03115,0.31153 -0.03115,0.5919c0,0.09346 0,0.21807 0,0.40498c0,0.09346 0,0.18692 0,0.24922c0,0.09346 0,0.12461 0,0.15576c0,0.03115 0,0.06231 0,0.06231c0,0.06231 0.0155,0.09115 0.03115,0.24922c0.00614,0.062 -0.00581,0.2494 0,0.34268c0.01561,0.25068 0.01996,0.37573 0.0623,0.5919c0.02469,0.12605 0.0531,0.34313 0.06231,0.43614c0.01565,0.15807 0.04668,0.24729 0.06231,0.43614c0.00771,0.09314 0,0.28037 0,0.40498c0,0.09346 0.03115,0.28037 0.03115,0.37383c0,0.09346 0,0.15576 0,0.21807c0,0.03115 0.03115,0.15576 0.03115,0.21807c0,0.06231 0.03115,0.12461 0.03115,0.31153c0,0.0623 0.01923,0.15813 0.03115,0.18692c0.01686,0.0407 0.03115,0.06231 0.03115,0.06231c0.03115,0.03115 0.03115,0.06231 0.06231,0.06231c0,0 0.03115,0 0.06231,0.03115c0,0 0,0 0.03115,0c0.03115,0 0.00912,0.00912 0.03115,0.03115c0.04406,0.04406 0.12461,0.03115 0.18692,0.03115c0,0 0.03115,0 0.03115,0c0.06231,0 0.10258,-0.02203 0.12461,0c0.02203,0.02203 0.03115,0.03115 0.0623,0.03115c0.03115,0 0.06231,0 0.12461,0c0.03115,0 0.06468,-0.01192 0.09346,0c0.0407,0.01686 0.06231,0.03115 0.15576,0.03115c0.06231,0 0.09346,0.03115 0.15576,0.03115c0.03115,0 0.06231,0 0.09346,0c0.12461,0 0.15576,0.03115 0.24922,0.03115c0.06231,0 0.24922,0 0.31153,0c0.12461,0 0.15576,0 0.18692,0c0.03115,0 0.12461,0 0.21807,0c0.18692,0 0.28037,0 0.5296,0c0.12461,0 0.21807,0.03115 0.24922,0.03115c0.03115,0 0.06231,0 0.18692,0c0.09346,0 0.30604,0.01515 0.37383,0.03115c0.09096,0.02147 0.21807,0 0.31153,0c0.24922,0 0.34268,0 0.49844,0c0.06231,0 0.15576,0 0.18692,0c0.09346,0 0.15576,0 0.31153,0c0.09346,0 0.43614,-0.03115 0.5919,-0.03115c0.24922,0 0.31153,0 0.40498,0c0.03115,0 0.21807,0 0.28037,0c0.09346,0 0.12461,0 0.12461,0c0.03115,0 0.02566,-0.01515 0.09346,-0.03115c0.03032,-0.00716 0.09361,0.00442 0.15576,0c0.21973,-0.01562 0.27806,-0.04665 0.43614,-0.06231c0.062,-0.00614 0.11912,-0.01515 0.18692,-0.03115c0.24255,-0.05726 0.35691,0.04038 0.52959,-0.03115c0.0407,-0.01686 0.11912,-0.0463 0.18692,-0.06231c0.12128,-0.02863 0.12461,-0.03115 0.15576,-0.03115c0.03115,0 0.02566,-0.01515 0.09346,-0.03115c0.03032,-0.00716 0.14621,-0.0766 0.18691,-0.09346c0.02878,-0.01192 0.03115,0 0.06231,-0.03115c0,0 0.06635,-0.10926 0.09346,-0.12461c0.15807,-0.0895 0.15052,-0.23434 0.24922,-0.43614c0.04328,-0.0885 0.15576,-0.31153 0.18692,-0.37383c0.06231,-0.12461 0.12321,-0.20402 0.15576,-0.31153c0.00903,-0.02982 0.05052,-0.12573 0.06231,-0.18692c0.03172,-0.16474 0.06231,-0.21807 0.12461,-0.40498c0.03115,-0.09346 0.09707,-0.3104 0.12461,-0.40498c0.07182,-0.24665 0.05853,-0.37665 0.09346,-0.5919c0.01578,-0.09724 0.03115,-0.18692 0.03115,-0.40498c0,-0.06231 0,-0.24922 0,-0.31153c0,-0.18692 0,-0.28037 0,-0.43614c0,-0.12461 0.04051,-0.34007 0.06231,-0.43614c0.05556,-0.24494 0.05491,-0.34425 0.12461,-0.65421c0.02818,-0.12532 0.13641,-0.3686 0.18691,-0.49844c0.08222,-0.21137 0.12921,-0.30976 0.18692,-0.46729c0.03388,-0.0925 0.0703,-0.18059 0.09346,-0.21807c0.05179,-0.0838 0.03115,-0.12461 0.06231,-0.15576c0,0 0.03115,-0.03115 0.03115,-0.06231c0,-0.03115 0.02616,-0.09386 0.03115,-0.12461c0.01578,-0.09724 0.03115,-0.15576 0.03115,-0.28037c0,-0.09346 -0.02279,-0.31392 -0.06231,-0.43614c-0.05161,-0.15962 -0.11601,-0.25616 -0.21807,-0.37383c-0.02887,-0.03328 -0.12461,-0.12461 -0.12461,-0.12461c-0.06231,-0.03115 -0.07429,-0.03775 -0.09346,-0.06231c-0.07905,-0.10124 -0.15576,-0.03115 -0.24922,-0.03115c-0.06231,0 -0.18692,-0.03115 -0.24922,-0.03115c-0.09346,0 -0.15198,-0.01537 -0.24922,-0.03115c-0.0615,-0.00998 -0.21807,0 -0.24922,0c-0.12461,0 -0.18858,-0.01431 -0.24922,0c-0.0678,0.016 -0.21807,0.03115 -0.34268,0.03115c-0.15576,0 -0.24922,0.03115 -0.40498,0.03115c-0.09346,0 -0.28053,-0.00706 -0.43614,0c-0.34374,0.01559 -0.49844,0.03115 -0.80997,0.03115c-0.15576,0 -0.31153,0 -0.56075,0c-0.09346,0 -0.37383,0.03115 -0.46729,0.03115c-0.06231,0 -0.06231,0 -0.09346,0c-0.03115,0 -0.12461,0 -0.21807,-0.03115c-0.09346,-0.03115 -0.12461,-0.03115 -0.15576,-0.03115c0,0 -0.06231,-0.03115 -0.09346,-0.06231c0,0 -0.00912,0.02203 -0.03115,0c-0.02203,-0.02203 -0.02198,-0.04194 -0.09346,-0.09346c-0.11302,-0.08146 -0.17816,-0.13427 -0.28037,-0.21807c-0.08686,-0.07121 -0.15576,-0.12461 -0.15576,-0.12461c-0.03115,-0.03115 -0.06231,-0.06231 -0.06231,-0.06231c0,-0.03115 -0.03115,-0.06231 -0.03115,-0.06231c0,-0.03115 -0.02213,-0.06364 -0.03115,-0.09346c-0.03255,-0.1075 -0.09806,-0.12285 -0.15576,-0.28037c-0.03388,-0.0925 -0.11745,-0.25005 -0.12461,-0.28037c-0.016,-0.0678 -0.06231,-0.12461 -0.06231,-0.18692c0,0 -0.03115,-0.03115 -0.03115,-0.06231c0,-0.06231 -0.04665,-0.1223 -0.06231,-0.28037c-0.00921,-0.093 -0.04653,-0.27659 -0.06231,-0.37383c-0.02495,-0.15375 0,-0.24922 0,-0.37383c0,-0.0623 -0.03115,-0.12461 -0.03115,-0.21807c0,-0.06231 0,-0.12461 0,-0.21807c0,-0.18692 -0.01119,-0.25083 -0.03115,-0.37383c-0.01578,-0.09724 -0.07768,-0.21429 -0.09346,-0.31153c-0.01996,-0.123 -0.01546,-0.18404 -0.03115,-0.31153c-0.00761,-0.06184 -0.01429,-0.11506 -0.03115,-0.15576c-0.03576,-0.08634 -0.02117,-0.09426 -0.03115,-0.15576c-0.01578,-0.09724 -0.03115,-0.15576 -0.06231,-0.21807c-0.03115,-0.06231 -0.05233,-0.18772 -0.06231,-0.24922c-0.01578,-0.09724 -0.04653,-0.12083 -0.06231,-0.21807c-0.00499,-0.03075 -0.00539,-0.05772 -0.03115,-0.09346c-0.04073,-0.05651 -0.03115,-0.06231 -0.06231,-0.12461c0,0 0.02203,-0.04028 0,-0.06231c-0.02203,-0.02203 -0.03115,-0.03115 -0.06231,-0.06231c0,0 -0.03115,-0.03115 -0.03115,-0.03115c-0.03115,-0.03115 -0.06231,-0.03115 -0.06231,-0.03115c-0.03115,-0.03115 -0.04028,-0.04028 -0.06231,-0.06231c-0.02203,-0.02203 -0.06231,0 -0.06231,0c-0.03115,-0.03115 -0.03115,-0.03115 -0.0623,-0.03115c-0.03115,0 -0.04028,-0.02203 -0.06231,0c-0.02203,0.02203 -0.01296,0.08601 -0.06231,0.18692c-0.04328,0.0885 -0.06592,0.21694 -0.09346,0.31153c-0.03591,0.12332 -0.07768,0.18313 -0.09346,0.28037c-0.00499,0.03075 0,0.09346 0,0.09346c-0.03115,0.06231 -0.01774,0.0976 -0.0623,0.21807c-0.02417,0.06533 -0.02153,0.12685 -0.06231,0.28037c-0.02529,0.09521 -0.0955,0.27972 -0.12461,0.37383c-0.06703,0.21666 -0.09346,0.28037 -0.15576,0.46729c-0.03115,0.09346 -0.0684,0.22061 -0.09346,0.34268c-0.0477,0.23241 -0.13631,0.34636 -0.18692,0.56075c-0.02263,0.09588 -0.07745,0.27488 -0.09346,0.34268c-0.03579,0.1516 -0.03115,0.21807 -0.03115,0.31153c0,0.03115 -0.02501,0.18722 -0.03115,0.24922c-0.01565,0.15807 -0.05755,0.21936 -0.09346,0.34268c-0.02754,0.09458 -0.0953,0.27949 -0.12461,0.34268c-0.09982,0.21523 -0.12461,0.28037 -0.18692,0.40498c-0.09346,0.18692 -0.23103,0.39754 -0.28037,0.49844c-0.04328,0.0885 -0.11987,0.2517 -0.18692,0.37383c-0.08741,0.15924 -0.13512,0.25888 -0.18692,0.34268c-0.04632,0.07495 -0.09346,0.12461 -0.09346,0.12461c-0.03115,0.06231 -0.09206,0.11057 -0.12461,0.21807c-0.00903,0.02982 -0.05515,0.09429 -0.06231,0.12461c-0.016,0.0678 0.00461,0.10057 -0.03115,0.18692c-0.01686,0.0407 -0.01565,0.09115 0,0.24922c0.01228,0.124 -0.00883,0.34299 0,0.46729c0.01562,0.21973 0.03115,0.34268 0.03115,0.56075c0,0.09346 0,0.28037 0,0.37383c0,0.21807 0.02149,0.37489 0,0.5919c-0.01565,0.15808 -0.03951,0.46585 -0.06231,0.62305c-0.04939,0.34053 -0.04671,0.49738 -0.06231,0.84112c-0.00424,0.09336 -0.03115,0.40498 -0.03115,0.56075c0,0.28037 0,0.34268 0,0.49844c0,0.21807 -0.02863,0.34601 0,0.46729c0.016,0.0678 0.02808,0.21822 0.03115,0.24922c0.01565,0.15807 -0.01265,0.23378 0.06231,0.37383c0.02079,0.03884 0.03115,0.09346 0.03115,0.09346c0.28037,0 0.37383,-0.03115 0.43614,-0.03115c0.15576,0 0.21807,-0.03115 0.28037,-0.03115c0.03115,0 0.09513,0.01431 0.15576,0c0.0678,-0.016 0.16525,0.01653 0.28037,-0.03115c0.0407,-0.01686 0.09346,-0.03115 0.15576,-0.03115c0.09346,0 0.21937,-0.00908 0.46729,0.03115c0.1568,0.02544 0.21807,0.03115 0.40498,0.03115c0.06231,0 0.15576,0 0.24922,0c0.12461,0 0.21807,0 0.31153,0c0.06231,0 0.15576,-0.03115 0.21807,-0.03115c0.21807,0 0.34268,-0.03115 0.62305,-0.03115c0.09346,0 0.40498,0 0.5919,0c0.40498,0 0.59107,0.01557 1.02804,0.03115c0.1868,0.00666 0.37383,0 0.62305,0c0.06231,0 0.15617,0.00499 0.18692,0c0.09724,-0.01578 0.19403,0.00461 0.28037,-0.03115c0.0407,-0.01686 0.06231,-0.03115 0.09346,-0.03115c0.12461,0 0.15576,0 0.18692,0c0,0 0,0 0,0c0.03115,0 0.03115,0.03115 0.03115,0.03115c-0.03115,0 -0.1574,0.08617 -0.31153,0.12461c-0.31558,0.07871 -0.39971,0.14446 -0.71651,0.21807c-0.18458,0.04289 -0.40498,0.09346 -0.46729,0.09346c-0.09346,0 -0.27488,0.0463 -0.34268,0.0623c-0.12128,0.02863 -0.22224,-0.00463 -0.37383,0.03115c-0.13559,0.03201 -0.31216,0.04689 -0.49844,0.06231c-0.18885,0.01563 -0.30959,0.04668 -0.49844,0.06231c-0.12419,0.01028 -0.25835,0.00912 -0.28037,0.03115c-0.02203,0.02203 1.21495,-0.12461 1.21495,-0.12461c0.65421,-0.03115 0.96573,-0.03115 1.52648,-0.03115c0.18692,0 0.68555,-0.02209 0.90343,-0.03115c0.3748,-0.01559 0.5005,-0.02063 0.68536,-0.0623c0.22124,-0.04988 0.33257,-0.0261 0.52959,-0.12461c0.03941,-0.0197 0.10258,-0.04028 0.12461,-0.06231c0.02203,-0.02203 0.03115,0 0.03115,0c0,0 0,-0.03115 0,-0.03115c0,-0.03115 -0.03115,-0.03115 -0.18692,-0.03115c-0.09346,0 -0.28037,0 -0.34268,0c-0.09346,0 -0.24373,-0.01515 -0.31153,-0.03115c-0.03032,-0.00716 -0.04028,0.02203 -0.06231,0c-0.02203,-0.02203 0,-0.03115 0,-0.03115c0,-0.03115 0.03115,-0.09346 0.03115,-0.12461c0,-0.03115 0,-0.03115 0,-0.06231c0,-0.03115 -0.03115,-0.06231 -0.03115,-0.06231c0,0 0.00912,0.02203 0.03115,0c0.02203,-0.02203 0.00912,-0.00912 0.03115,-0.03115c0.02203,-0.02203 0.01923,-0.03352 0.03115,-0.06231c0.01686,-0.0407 0.05515,-0.09429 0.06231,-0.12461c0.016,-0.0678 0.0766,-0.08391 0.09346,-0.12461c0.01192,-0.02878 0.02616,-0.06271 0.03115,-0.09346c0.01578,-0.09724 0.04167,-0.13427 0.09346,-0.21807c0.02316,-0.03748 0.06553,-0.12169 0.09346,-0.15576c0.07121,-0.08686 0.09346,-0.15576 0.12461,-0.21807c0.03115,-0.06231 0.13998,-0.18313 0.15576,-0.28037c0.00998,-0.0615 0.06971,-0.12246 0.09346,-0.21807c0.04568,-0.18391 0.07355,-0.28708 0.15576,-0.49844c0.02525,-0.06492 0.05732,-0.18732 0.06231,-0.21807c0.01578,-0.09724 0.04661,-0.12174 0.06231,-0.24922c0.00761,-0.06184 0.02808,-0.18707 0.03115,-0.21807c0.01565,-0.15808 0.04665,-0.21576 0.06231,-0.37383c0.01228,-0.124 0.02354,-0.21853 0.03115,-0.28037c0.01569,-0.12748 0.04661,-0.2152 0.06231,-0.34268c0.01142,-0.09276 0.03115,-0.21807 0.03115,-0.28037c0,-0.09346 0.04652,-0.15198 0.0623,-0.24922c0.00499,-0.03075 0.02399,-0.12544 0.03115,-0.15576c0.016,-0.0678 0.06817,-0.18516 0.09346,-0.28037c0.04077,-0.15353 0.06231,-0.21807 0.12461,-0.40498c0.03115,-0.09346 0.05232,-0.25003 0.06231,-0.31153c0.01578,-0.09724 0.03115,-0.12461 0.03115,-0.21807c0,-0.09346 0.03115,-0.21807 0.03115,-0.28037c0,-0.15576 0,-0.21807 0,-0.34268c0,-0.03115 -0.05038,-0.12698 -0.06231,-0.15576c-0.01686,-0.0407 -0.05772,-0.03655 -0.09346,-0.06231c-0.05651,-0.04073 -0.21258,-0.07745 -0.28037,-0.09346c-0.09096,-0.02147 -0.15576,0 -0.21807,0c-0.12461,0 -0.15576,0 -0.34268,0c-0.06231,0 -0.15576,0.03115 -0.21807,0.03115c-0.06231,0 -0.09426,-0.00998 -0.15576,0c-0.09724,0.01578 -0.28037,0.03115 -0.34268,0.03115c-0.12461,0 -0.18692,0 -0.28037,0c-0.09346,0 -0.31153,0 -0.43614,0c-0.21807,0 -0.37383,0 -0.62305,0c-0.12461,0 -0.28037,0 -0.40498,0c-0.09346,0 -0.21807,0 -0.24922,0c-0.03115,0 -0.0623,0 -0.34268,0c-0.18692,0 -0.46758,-0.02082 -0.65421,-0.03115c-0.28167,-0.0156 -0.37383,-0.03115 -0.46729,-0.06231c0,0 -0.0286,0.0759 -0.28037,-0.06231c-0.03862,-0.0212 -0.06231,-0.03115 -0.09346,-0.06231c0,0 0,-0.03115 0,-0.03115c-0.03115,-0.03115 -0.03115,-0.03115 -0.03115,-0.06231c0,-0.03115 -0.0463,-0.05681 -0.06231,-0.12461c-0.01431,-0.06064 -0.01923,-0.09583 -0.03115,-0.12461c-0.01686,-0.0407 -0.03115,-0.0623 -0.03115,-0.0623c0,-0.03115 -0.01429,-0.0216 -0.03115,-0.06231c-0.01192,-0.02878 -0.03377,-0.09222 -0.06231,-0.15576c-0.06872,-0.15304 -0.07355,-0.22477 -0.15576,-0.43614c-0.02525,-0.06492 -0.06929,-0.18389 -0.09346,-0.24922c-0.04456,-0.12047 -0.04411,-0.14832 -0.09346,-0.24922c-0.04328,-0.0885 -0.07745,-0.21258 -0.09346,-0.28037c-0.02147,-0.09096 -0.03814,-0.21504 -0.06231,-0.28037c-0.04456,-0.12047 -0.03576,-0.18515 -0.09346,-0.34268c-0.03388,-0.0925 -0.0546,-0.21839 -0.0623,-0.31153c-0.01563,-0.18885 -0.07784,-0.27871 -0.09346,-0.49844c-0.00883,-0.1243 -0.00614,-0.34298 0,-0.40498c0.01565,-0.15808 0.04653,-0.18313 0.06231,-0.28037c0.00499,-0.03075 0,-0.03115 0,-0.06231c0,-0.03115 0,-0.06231 0,-0.12461c0,0 0.01431,-0.03282 0,-0.09346c-0.016,-0.0678 -0.03115,-0.15576 -0.03115,-0.18692c0,-0.03115 -0.07107,-0.02793 -0.03115,0.21807c0.01578,0.09724 0.00505,0.28704 0.06231,0.5296c0.016,0.0678 0.04212,0.18255 0.0623,0.24922c0.07278,0.24038 0.06231,0.34268 0.15576,0.62305c0.03115,0.09346 0.12461,0.31153 0.15576,0.40498c0.0623,0.18692 0.04083,0.25172 0.0623,0.34268c0.016,0.0678 0.06534,0.14143 0.15576,0.40498c0.05155,0.15025 0.12746,0.4036 0.18692,0.52959c0.13095,0.27747 0.15576,0.40498 0.34268,0.65421c0.09346,0.12461 0.29748,0.43474 0.40498,0.46729c0.02981,0.00903 0.03115,0 0.0623,0c0,0 0,0 0,0c0,0 -0.03156,0.00499 -0.0623,0c-0.19448,-0.03156 -0.27463,-0.12438 -0.5296,-0.15576c-0.12368,-0.01523 -0.23378,-0.03226 -0.37383,-0.12461c-0.03678,-0.02425 -0.12204,-0.12638 -0.18692,-0.21807c-0.08996,-0.12716 -0.08036,-0.16065 -0.15576,-0.34268c-0.02666,-0.06436 -0.11395,-0.25238 -0.15576,-0.37383c-0.09989,-0.2901 -0.24601,-0.39288 -0.34268,-0.65421c-0.04456,-0.12047 -0.17988,-0.43811 -0.21807,-0.56075c-0.07913,-0.25413 -0.18651,-0.36627 -0.21807,-0.56075c-0.00499,-0.03075 0,-0.06231 0,-0.06231c0,0.56075 0,0.5919 0,0.87227c0,0.21807 0,0.28037 0,0.31153c0,0.03115 0.03663,0.21562 0.06231,0.28037c0.1199,0.30234 0.15558,0.46216 0.18692,0.74766c0.0102,0.0929 -0.03548,0.36969 -0.12461,0.46729c-0.16407,0.17967 -0.18964,0.2428 -0.34268,0.31153c-0.06355,0.02854 -0.08248,0.0926 -0.21807,0.12461c-0.06064,0.01431 -0.19683,0.08069 -0.28037,0.15576c-0.18098,0.16262 -0.26031,0.2729 -0.46729,0.5919c-0.09887,0.15238 -0.27395,0.43886 -0.34268,0.5919c-0.05707,0.12709 -0.06231,0.15576 -0.06231,0.15576c0.21807,-0.18692 0.23924,-0.17355 0.31153,-0.31153c0.04572,-0.08726 0.13641,-0.3063 0.18692,-0.43614c0.08222,-0.21137 0.09346,-0.31153 0.09346,-0.37383c0,-0.09346 0.03837,-0.18466 0.09346,-0.37383c0.03591,-0.12332 0.12118,-0.34446 0.18692,-0.46729c0.11851,-0.22144 0.19285,-0.36697 0.37383,-0.5296c0.08355,-0.07507 0.18692,-0.15576 0.18692,-0.15576c0,-0.03115 0.00912,-0.04028 0.03115,-0.06231c0.02203,-0.02203 0.03115,0 0.03115,0.62305c0,0.12461 0.06608,0.24544 0,0.31153c-0.02203,0.02203 -0.03115,0.03115 0.12461,0.03115c0.03115,0 0.15576,-0.03115 0.5296,-0.03115c0.18692,0 0.56094,-0.00906 0.77882,0c0.3748,0.01559 0.46729,0.03115 0.46729,0.03115c0,0 -0.03236,-0.01497 -0.12461,0c-0.38896,0.06312 -0.52382,0.14523 -0.93458,0.24922c-0.15399,0.03898 -0.37879,0.11248 -0.46729,0.15576c-0.1009,0.04935 -0.10551,0.12204 -0.18692,0.15576c-0.02878,0.01192 -0.13528,0.11101 -0.21807,0.18692c-0.14703,0.1348 -0.19743,0.25888 -0.24922,0.34268c-0.06949,0.11243 -0.1354,0.11544 -0.18692,0.18692c-0.04073,0.05651 -0.16221,0.18108 -0.21807,0.24922c-0.07121,0.08686 -0.15576,0.15576 -0.28037,0.28037c-0.06231,0.06231 -0.16489,0.19604 -0.18692,0.21807c-0.02203,0.02203 -0.03115,0.03115 -0.03115,0.03115c0,0 -0.03115,0.03115 -0.03115,0.03115c-0.03115,0.03115 -0.02157,0.03695 -0.06231,0.09346c-0.02576,0.03574 -0.08941,0.10926 -0.06231,0.12461c0.15807,0.0895 0.20878,-0.17381 0.49844,-0.31153c0.15151,-0.07203 0.435,-0.25154 0.56075,-0.31153c0.33974,-0.16208 0.54639,-0.28069 0.99689,-0.46729c0.18203,-0.0754 0.56075,-0.21807 0.74766,-0.28037c0.28037,-0.09346 0.31454,-0.07893 0.49844,-0.12461c0.09561,-0.02375 0.18516,-0.06817 0.28037,-0.09346c0.15353,-0.04077 0.25146,-0.05269 0.40498,-0.09346c0.09521,-0.02529 0.18692,-0.03115 0.31153,-0.0623c0,0 0.03115,0 0.03115,-0.03115c0,0 0.03115,0 0.03115,0c0.03115,0 0.21831,0.00774 0.34268,0c0.25068,-0.01561 0.37286,-0.04672 0.74766,-0.06231c0.24901,-0.01036 0.74766,0 0.99688,0c0.46729,0 0.68446,0.01556 1.09034,0.03115c0.15565,0.00598 0.31153,0 0.46729,0c0.06231,0 0.09346,0 0.18691,0c0.06231,0 0.18692,0 0.18692,0c0,0 0.02203,-0.02203 0,0c-0.02203,0.02203 0,0.03115 -0.06231,0.06231c-0.06231,0.03115 -0.28176,0.08718 -0.43614,0.12461c-0.44082,0.10687 -0.65077,0.20191 -1.02804,0.28037c-0.18552,0.03859 -0.52642,0.10589 -0.74766,0.15576c-0.36971,0.08334 -0.62463,0.08443 -1.1838,0.18692c-0.31249,0.05727 -0.84032,0.1902 -1.09034,0.24922c-0.55906,0.13198 -0.83815,0.20206 -1.27726,0.28037c-0.21686,0.03868 -0.46804,0.08839 -0.90343,0.15576c-0.18727,0.02898 -0.59329,0.11718 -0.77882,0.15576c-0.37726,0.07847 -0.51987,0.14934 -0.80997,0.24922c-0.12145,0.04182 -0.30694,0.09885 -0.34268,0.12461c-0.05651,0.04073 -0.07143,0.00912 -0.09346,0.03115c-0.02203,0.02203 0,0.03115 -0.03115,0.06231c0,0 -0.00912,0.04028 -0.03115,0.06231c-0.02203,0.02203 -0.03115,0 -0.03115,0c0.03115,0 0.12164,-0.01098 0.21807,-0.03115c0.3368,-0.07045 0.49641,-0.1035 0.93458,-0.18692c0.18615,-0.03544 0.74671,-0.13357 0.99689,-0.15576c0.5904,-0.05237 0.87005,-0.09342 1.52648,-0.12461c0.28006,-0.01331 0.84052,-0.09728 1.02804,-0.12461c0.49707,-0.07246 0.64958,-0.0933 0.96573,-0.12461c0.155,-0.01535 0.4351,-0.03686 0.5919,-0.06231c0.24792,-0.04023 0.40386,-0.06882 0.74766,-0.12461c0.21744,-0.03529 0.5928,-0.08847 0.77882,-0.12461c0.28194,-0.05478 0.34505,-0.05038 0.37383,-0.06231c0.0407,-0.01686 0.03115,-0.03115 0.06231,-0.03115c0,0 0.03156,0.00499 0.06231,0c0.09724,-0.01578 0.18143,-0.07745 0.24922,-0.09346c0.03032,-0.00716 -0.33882,0.16645 -0.49844,0.21807c-0.24443,0.07904 -0.80623,0.26003 -1.15265,0.37383c-0.52445,0.17229 -0.80659,0.26005 -1.09034,0.34268c-0.61662,0.17956 -0.8703,0.22702 -1.55763,0.37383c-0.31069,0.06636 -0.90242,0.22171 -1.1215,0.28037c-0.4963,0.1329 -0.70958,0.23342 -1.1838,0.28037c-0.124,0.01228 -0.40588,0.05732 -0.5919,0.09346c-0.28194,0.05478 -0.37282,0.06595 -0.5919,0.12461c-0.12407,0.03322 -0.28037,0.06231 -0.34268,0.06231c-0.06231,0 -0.05276,0.01429 -0.09346,0.03115c-0.02878,0.01192 -0.06231,0 -0.06231,0c0,0 0,0 0,0c0.09346,0.03115 0.21807,0.03115 0.37383,0.03115c0.49844,0 0.71651,0 1.21495,0c0.21807,0 0.68371,-0.00988 0.84112,-0.03115c0.43331,-0.05857 0.68644,-0.08585 1.15265,-0.15576c0.1874,-0.0281 0.7169,-0.09172 0.99689,-0.15576c0.53036,-0.12132 0.76998,-0.18316 1.21495,-0.31153c0.27596,-0.07961 0.76819,-0.21428 1.05919,-0.31153c0.3942,-0.13173 0.5241,-0.13976 0.5919,-0.15576c0.03032,-0.00716 0.06481,-0.00968 0.15576,-0.03115c0.0678,-0.016 0.19166,-0.03846 0.24922,-0.06231c0.0407,-0.01686 0.06705,-0.00731 0.12461,-0.03115c0.0407,-0.01686 0.06231,-0.03115 0.06231,-0.03115c-0.62305,0.18692 -0.93528,0.27828 -1.21495,0.37383c-0.62466,0.21341 -0.93858,0.29718 -1.74455,0.52959c-0.40713,0.1174 -1.1824,0.28616 -1.55763,0.37383c-0.71402,0.16682 -0.93615,0.21068 -1.24611,0.28037c-0.12532,0.02818 -0.37446,0.07947 -0.5296,0.09346c-0.34689,0.03128 -0.49995,0.0407 -0.65421,0.06231c-0.2246,0.03146 -0.37217,0.07784 -0.5919,0.09346c-0.09322,0.00663 -0.15576,0.03115 -0.15576,0.03115c-0.03115,0 -0.05943,0.01546 -0.18692,0.03115c-0.03092,0.00381 -0.1566,0.024 -0.18692,0.03115c-0.13559,0.03201 -0.15576,0.06231 -0.18692,0.09346c0,0 -0.03115,0.03115 -0.03115,0.03115c0,0.06231 -0.00697,0.1062 0.15576,0.18692c0.15029,0.07455 0.49088,0.18651 0.68536,0.21807c0.246,0.03992 0.37402,0.00847 0.56075,0c0.34374,-0.01559 0.52598,-0.08265 0.99689,-0.15576c0.27876,-0.04328 0.93526,-0.15312 1.1838,-0.21807c0.68731,-0.17962 1.09571,-0.22629 1.80685,-0.40498c0.21996,-0.05527 0.74354,-0.20033 1.02804,-0.28037c0.40009,-0.11257 0.56433,-0.11025 0.84112,-0.18692c0.09494,-0.0263 0.15576,-0.06231 0.18692,-0.06231c0.03115,0 0.03115,0 0.06231,0c0.03115,0 0.05276,-0.01429 0.09346,-0.03115c0.02878,-0.01192 0.03115,0 0.06231,0c0.03115,0 0.03115,0 0.06231,0c0,0 0.03115,0 0.06231,0c0,0 0.00912,0.02203 0.03115,0c0.02203,-0.02203 0.03352,-0.01923 0.0623,-0.03115c0.0407,-0.01686 0.04947,-0.06328 -0.0623,0c-0.03834,0.02171 -0.1883,0.09077 -0.31153,0.15576c-0.28369,0.14964 -0.43974,0.24044 -0.90343,0.43614c-0.28267,0.1193 -0.80914,0.34608 -1.1838,0.43614c-0.80824,0.19427 -1.30935,0.27488 -2.05608,0.40498c-0.34313,0.05978 -0.90449,0.16543 -1.1215,0.18692c-0.31615,0.03131 -0.43614,0.09346 -0.56075,0.09346c-0.03115,0 -0.03115,0.03115 -0.06231,0.03115c0,0 -0.06231,0 -0.06231,0c-0.06231,0 -0.06468,-0.01192 -0.09346,0c-0.0407,0.01686 -0.09406,0.02251 -0.15576,0.03115c-0.2246,0.03146 -0.30578,0.09322 -0.56075,0.12461c-0.09276,0.01142 -0.21807,0.03115 -0.24922,0.03115c-0.03115,0 -0.03115,0 -0.06231,0.03115c0,0 -0.03115,0.03115 -0.03115,0.03115c0,0.06231 -0.01515,0.11912 -0.03115,0.18692c-0.03579,0.1516 0.01546,0.24635 0.03115,0.37383c0.00761,0.06184 0.01429,0.17737 0.03115,0.21807c0.02384,0.05756 0,0.06231 0,0.09346c0,0.03115 0.03115,0.03115 0.03115,0.03115c0,0 0.03115,0 0.06231,0c0.06231,0 0.18692,-0.09346 0.24922,-0.15576c0.06231,-0.06231 0.0766,-0.05276 0.09346,-0.09346c0.01192,-0.02878 0.03115,-0.06231 0.06231,-0.06231c0,0 0,-0.03115 0,-0.03115c0.03115,0 0.05852,-0.04653 0.15576,-0.0623c0.09225,-0.01497 0.31172,-0.05541 0.43614,-0.06231c0.28167,-0.0156 0.39986,-0.06212 0.68536,-0.09346c0.15483,-0.017 0.52818,-0.09941 0.77882,-0.15576c0.46493,-0.10455 0.7237,-0.09951 1.09034,-0.21807c0.15962,-0.05162 0.5641,-0.20593 0.80997,-0.28037c0.44325,-0.1342 0.63077,-0.1986 0.96573,-0.34268c0.19197,-0.08257 0.52863,-0.2517 0.68536,-0.31153c0.34066,-0.13003 0.47001,-0.21165 0.62305,-0.28037c0.19064,-0.08561 0.31769,-0.14433 0.49844,-0.24922c0.09715,-0.05638 0.28243,-0.15195 0.34268,-0.18692c0.09715,-0.05638 0.1389,-0.08391 0.15576,-0.12461c0.01192,-0.02878 0.0463,-0.11912 0.06231,-0.18692c0.02863,-0.12128 0.0204,-0.22358 -0.03115,-0.37383c-0.02261,-0.06589 -0.04028,-0.16489 -0.06231,-0.18692c-0.04406,-0.04406 -0.06468,-0.01192 -0.09346,0c-0.0407,0.01686 -0.06231,0.03115 -0.06231,0.03115c0,0.03115 -0.01515,0.02566 -0.03115,0.09346c-0.04294,0.18192 0.01213,0.28199 -0.03115,0.56075c-0.02437,0.15697 -0.05861,0.49923 -0.09346,0.65421c-0.05636,0.25063 -0.04304,0.32773 -0.15576,0.5919c-0.04408,0.10331 -0.13903,0.37926 -0.18692,0.49844c-0.09364,0.23305 -0.21293,0.31506 -0.34268,0.49844c-0.08996,0.12716 -0.2977,0.38552 -0.40498,0.49844c-0.16758,0.1764 -0.27873,0.29969 -0.5919,0.46729c-0.17371,0.09297 -0.53038,0.21539 -0.74766,0.28037c-0.50032,0.14962 -0.81025,0.21588 -1.05919,0.24922c-0.655,0.08772 -0.93199,0.15572 -1.49533,0.18692c-0.24884,0.01378 -0.80997,0.03115 -1.05919,0.03115c-0.21807,0 -0.61186,0.13733 -0.68536,0c-0.053,-0.09903 0.1149,-0.17036 0.24922,-0.24922c0.26459,-0.15534 0.44875,-0.25318 0.77882,-0.40498c0.0895,-0.04116 0.31212,-0.12289 0.40498,-0.15576c0.25091,-0.08883 0.34268,-0.15576 0.62305,-0.24922c0.18692,-0.06231 0.34813,-0.11177 0.65421,-0.24922c0.19064,-0.08561 0.69096,-0.23386 0.96573,-0.34268c0.4147,-0.16423 0.65717,-0.27407 1.05919,-0.46729c0.18835,-0.09053 0.46729,-0.21807 0.65421,-0.31153c0.24922,-0.12461 0.37383,-0.15576 0.40498,-0.18692c0.03115,-0.03115 0.03115,-0.03115 0.06231,-0.03115c0,0 0,-0.03115 0.03115,-0.03115c0,0 0.03115,-0.03115 0.03115,-0.03115c-0.09346,0.06231 -0.28037,0.12461 -0.40498,0.18692c-0.24922,0.12461 -0.38702,0.1691 -0.56075,0.31153c-0.13628,0.11173 -0.44343,0.29573 -0.5919,0.37383c-0.39763,0.20917 -0.61191,0.36129 -0.80997,0.46729c-0.35706,0.1911 -0.6847,0.25126 -0.77882,0.28037c-0.21666,0.06703 -0.24922,0.06231 -0.24922,0.06231c0.03115,0 0.12051,-0.00899 0.24922,-0.06231c0.18203,-0.0754 0.62305,-0.18692 0.84112,-0.24922c0.21807,-0.06231 0.49127,-0.1417 0.62305,-0.18692c0.15025,-0.05155 0.25411,-0.04921 0.43614,-0.12461c0.06436,-0.02666 0.20849,-0.13041 0.24922,-0.18692c0.07728,-0.10722 0.18938,-0.18501 0.40498,-0.46729c0.09455,-0.12379 0.29752,-0.39381 0.37383,-0.52959c0.08219,-0.14625 0.12461,-0.21807 0.15576,-0.24922c0,0 -0.11699,0.19103 -0.18692,0.31153c-0.05638,0.09715 -0.22678,0.39891 -0.31153,0.5296c-0.17451,0.26911 -0.20543,0.35998 -0.49844,0.56075c-0.14985,0.10268 -0.49668,0.22267 -0.65421,0.28037c-0.37001,0.13554 -0.62182,0.19101 -1.02804,0.31153c-0.21743,0.0645 -0.58959,0.23357 -0.74766,0.24922c-0.031,0.00307 -0.34268,0 -0.43614,0c-0.12461,0 -0.24922,0 -0.5919,0c-0.21807,0 -0.53215,-0.00047 -1.09034,-0.06231c-0.18834,-0.02086 -0.62112,-0.07783 -0.80997,-0.09346c-0.12419,-0.01028 -0.15576,0 -0.15576,0c0.18692,-0.09346 0.1839,-0.10531 0.5296,-0.18692c0.1546,-0.0365 0.49983,-0.11834 0.65421,-0.15576c0.22041,-0.05344 0.34037,-0.10896 0.49844,-0.12461c0.093,-0.00921 0.15576,-0.03115 0.18692,-0.03115c0.03115,0 0.03115,-0.03115 0.03115,-0.03115l0.03115,0l0,0l0,0" id="svg_4" stroke="#43a9d4" fill="#00bf00"/>
  <path d="m14.02667,13.24601c0.12461,0 0.15617,0.02616 0.18692,0.03115c0.09724,0.01578 0.21807,0.03115 0.24922,0.03115c0.03115,0 0.03115,0.03115 0.09346,0.03115c0.03115,0 0.06231,0 0.06231,0c0.03115,0 0.03115,0 0.0623,0c0,0 0,0 0,0c0.03115,0 0.03352,-0.01192 0.06231,0c0.0407,0.01686 0.05852,0.07768 0.15576,0.09346c0.03075,0.00499 0.03115,0 0.03115,0c0.03115,0 0.03115,0 0.06231,0c0,0 0,0 0,0c0.03115,0 0.03115,0 0.06231,0c0,0 0.03115,0 0.03115,0c0.03115,0 0.03115,0 0.03115,0c0.03115,0 0.03115,0 0.03115,0c0.03115,0 0.03115,0 0.03115,0c0.03115,0 0.03115,0 0.09346,0c0.03115,0 0.03664,0.01515 -0.03115,0.03115c-0.03032,0.00716 -0.21504,0.06929 -0.28037,0.09346c-0.12047,0.04456 -0.18404,0.04661 -0.31153,0.06231c-0.03092,0.00381 -0.09346,0 -0.12461,0c-0.03115,0 -0.09346,0 -0.09346,0c0,0 -0.03045,-0.00187 0,-0.24922c0.01569,-0.12748 0.0358,-0.27874 0.18692,-0.71651c0.09643,-0.27936 0.27019,-0.73925 0.37383,-1.02804c0.1966,-0.54777 0.22524,-0.8158 0.34268,-1.24611c0.05187,-0.19007 0.14007,-0.58903 0.15576,-0.71651c0.03045,-0.24735 0.03115,-0.40498 0.03115,-0.5919c0,-0.09346 0.01515,-0.15027 0.03115,-0.21807c0.00716,-0.03032 0.06231,-0.24922 0.06231,-0.28037c0,0 0,0 0.03115,0c0,0 0,0 0.03115,0c0,0 0,0.03115 0,0.15576c0,0.37383 0.01097,0.59298 -0.03115,0.96573c-0.02473,0.21889 -0.06231,0.62305 -0.06231,0.87227c0,0.52959 0.06218,0.74345 0.09346,1.09034c0.0028,0.03103 0,0.09346 0,0.12461c0,0.12461 0,0.18692 0,0.24922c0,0.03115 0,0.09346 0,0.09346c0,0 -0.00539,0.05772 -0.03115,0.09346c-0.04073,0.05651 -0.03115,0.12461 -0.09346,0.31153c-0.03115,0.09346 -0.08423,0.4065 -0.12461,0.62305c-0.07619,0.40859 -0.15536,0.55318 -0.18691,0.74766c-0.00499,0.03075 0,0.03115 0,0.03115l0,0l0,-0.03115l0,-0.03115" id="svg_5" stroke="#43a8d4" fill="none"/>
  <path id="svg_6" d="m3.62168,9.66345" opacity="NaN" stroke="#000" fill="#B9FFCE"/>
  <path id="svg_7" d="m11.06716,7.14009" opacity="NaN" stroke="#000" fill="#B9FFCE"/>
  <path id="svg_10" d="m10.10143,7.54507l1,0l0,5.48287l-1,0l0,-5.48287z" opacity="undefined" stroke="#43a9d4" fill="#00ffff"/>
 </g>
</svg>