<?xml version="1.0" encoding="UTF-8" standalone="no"?>
<svg
   width="19.361"
   height="17.184"
   viewBox="0 0 19.361 17.184"
   version="1.1"
   id="svg88"
   sodipodi:docname="like.svg"
   inkscape:version="1.2.2 (b0a84865, 2022-12-01)"
   xmlns:inkscape="http://www.inkscape.org/namespaces/inkscape"
   xmlns:sodipodi="http://sodipodi.sourceforge.net/DTD/sodipodi-0.dtd"
   xmlns="http://www.w3.org/2000/svg"
   xmlns:svg="http://www.w3.org/2000/svg">
  <defs
     id="defs92" />
  <sodipodi:namedview
     id="namedview90"
     pagecolor="#ffffff"
     bordercolor="#000000"
     borderopacity="0.25"
     inkscape:showpageshadow="2"
     inkscape:pageopacity="0.0"
     inkscape:pagecheckerboard="0"
     inkscape:deskcolor="#d1d1d1"
     showgrid="false"
     inkscape:zoom="13.733706"
     inkscape:cx="9.6842034"
     inkscape:cy="8.6284068"
     inkscape:window-width="1440"
     inkscape:window-height="900"
     inkscape:window-x="0"
     inkscape:window-y="0"
     inkscape:window-maximized="0"
     inkscape:current-layer="svg88" />
  <g
     id="Group_49937"
     data-name="Group 49937"
     transform="translate(0 0)">
    <path
       id="Path_40720"
       data-name="Path 40720"
       d="M5229.257,3931.343c-5.588-.011-4.856.477-4.95-5.076a8.5,8.5,0,0,1,1.414-5.411,5.684,5.684,0,0,0,.789-3.479c.019-1.28.564-2.253,1.963-2.248a1.825,1.825,0,0,1,1.948,2.231c-.61,3.407,1.289,3.538,3.851,3.44,2.678-.1,3.154.707,2.491,3.334-.147.583-.174,1.2-.333,1.774C5234.932,3931.343,5234.927,3931.342,5229.257,3931.343Zm.188-.868c2.095-.142,4.629.853,5.457-2.372.435-1.692.312-3.5,1.3-5.1.43-.693-.342-1.284-1.092-1.388a8.261,8.261,0,0,0-2.325-.042c-2.628.4-3.734-.6-3.191-3.264a2.292,2.292,0,0,0,.01-.518c-.021-.786.013-1.7-1.032-1.784-1.087-.085-1.188.827-1.185,1.617a7.561,7.561,0,0,1-1.354,4.383,6.7,6.7,0,0,0-.925,3.974C5225.169,3931.2,5224.606,3930.407,5229.445,3930.475Z"
       transform="translate(-5217.669 -3915.129)"
       fill="#45a7d4" />
    <path
       id="Path_40725"
       data-name="Path 40725"
       d="M5203.791,3941.345c0-.776-.032-1.554.006-2.328.083-1.7.937-2.8,2.688-2.869,1.8-.072,2.687,1.044,2.8,2.722.1,1.546.068,3.1.023,4.655-.051,1.8-.917,3.039-2.813,3.01-1.917-.029-2.657-1.335-2.689-3.119-.012-.69,0-1.38,0-2.07Zm4.575.019h.063c0-.773.008-1.547,0-2.32a1.875,1.875,0,0,0-1.84-2.082,1.808,1.808,0,0,0-1.891,2.009c-.01,1.717-.024,3.438.075,5.151a1.585,1.585,0,0,0,1.747,1.532,1.636,1.636,0,0,0,1.821-1.462A21.4,21.4,0,0,0,5208.366,3941.364Z"
       transform="translate(-5203.779 -3929.351)"
       fill="#45a7d4" />
  </g>
  <path
     style="fill:#45a7d4;fill-opacity:1;stroke-width:1.00478"
     d="m 9.5385763,1.2430198 c -0.2702202,0.065672 0.034041,0.4066973 -0.072814,0.5145745 -0.017162,0.017326 -0.055651,-0.017326 -0.072814,0 -0.09153,0.092406 0.066354,2.0108748 0,2.2788303 -0.049887,0.2014601 -0.3297176,0.4237244 -0.5096949,0.5145746 -0.021709,0.010958 -0.055651,-0.017326 -0.072814,0 -0.034325,0.034654 0.034325,0.112368 0,0.1470212 -0.017162,0.017326 -0.055651,-0.017326 -0.072813,0 -0.034325,0.034654 0.034325,0.1123681 0,0.1470214 -0.017162,0.017326 -0.055651,-0.017326 -0.072814,0 -0.1294041,0.1306441 -0.088966,0.620701 -0.1456259,0.7351066 -0.042409,0.085631 -0.1032179,0.1349013 -0.1456271,0.2205319 -0.032563,0.065749 0.01766,0.1492162 0,0.220532 -0.044564,0.1799637 -0.144635,0.2920393 -0.2184407,0.4410639 -0.029125,0.058809 0.029125,0.1617234 0,0.2205319 -0.053096,0.1072096 -0.1164819,0.1175971 -0.1456271,0.1470214 -0.034325,0.034654 0.021709,0.103188 0,0.1470213 -0.063675,0.1285686 -0.1380368,0.3193034 -0.2184407,0.4410639 -0.03808,0.057667 -0.1149262,0.085031 -0.1456271,0.1470214 -0.010854,0.021917 0.017162,0.056184 0,0.07351 -0.017162,0.017326 -0.061959,-0.021917 -0.072814,0 -0.021709,0.043834 0.015351,0.1005294 0,0.1470213 -0.021709,0.065749 -0.1149262,0.085031 -0.1456271,0.1470214 -0.010854,0.021917 0.017162,0.056184 0,0.07351 -0.017162,0.017326 -0.055651,-0.017326 -0.072814,0 -0.051487,0.05198 0.032563,0.1547821 0,0.220532 -0.010854,0.021917 -0.061959,-0.021917 -0.072814,0 -0.021709,0.043834 0.00798,0.098681 0,0.1470213 -0.016452,0.099656 -0.053188,0.1949738 -0.072814,0.2940426 -0.040814,0.2060219 0.065409,0.4634905 0,0.6615959 -0.010854,0.032875 -0.061959,0.040635 -0.072813,0.073511 -0.040599,0.1229618 0.057399,0.3251677 0,0.441064 -0.1867615,0.3770994 -0.011991,0.8933554 -0.072814,1.3231924 -0.017502,0.123689 -0.055311,0.243866 -0.072814,0.367553 -0.027025,0.190987 0.037388,0.399359 0,0.588086 -0.057506,0.290285 -0.1724004,0.801039 -0.072814,1.10266 0.017162,0.05198 0.06217,0.09329 0.072814,0.147021 0.00656,0.03309 -0.039294,0.401394 0,0.441064 0.017162,0.01733 0.055651,-0.01732 0.072814,0 0.033659,0.03398 -0.021981,0.176148 0,0.220532 0.1555926,0.314164 0.029453,-0.453448 0.1456271,0.367552 0.010297,0.07277 -0.01197,0.148022 0,0.220533 0.09196,0.557042 0.014833,0.02996 0.1456271,0.294043 0.021709,0.04384 -0.034325,0.112367 0,0.14702 0.017162,0.01732 0.055651,-0.01732 0.072814,0 0.1506538,0.152096 -0.230219,-0.006 0.072814,0.147021 0.1392441,0.07029 0.2957201,0.07577 0.4368813,0.147021 0.058251,0.02941 0.1601898,-0.02941 0.2184407,0 0.2149062,0.108482 0.3272664,0.356711 0.5096949,0.514575 0.018428,0.01595 0.055651,-0.01732 0.072814,0 0.017162,0.01732 -0.017162,0.05618 0,0.07351 0.034325,0.03465 0.1022095,-0.02192 0.1456271,0 0.030701,0.0155 0.042113,0.05801 0.072814,0.07351 0.1122095,0.05665 2.5982291,0.03227 2.6941021,0 0.05149,-0.01732 0.09414,-0.05618 0.145627,-0.07351 0.277144,-0.09326 0.730546,0.04166 1.01939,0 0.05373,-0.0078 0.09209,-0.0645 0.145627,-0.07351 0.274866,-0.04625 0.603678,0.06817 0.873763,0 0.0333,-0.0084 0.03951,-0.06511 0.07281,-0.07351 0.159905,-0.04036 0.349791,0.04036 0.509695,0 0.05265,-0.01329 0.09298,-0.06022 0.145627,-0.07351 0.117777,-0.02972 0.98441,-0.03819 1.01939,-0.07351 0.01716,-0.01732 -0.01716,-0.05618 0,-0.07351 0.03433,-0.03466 0.10221,0.02192 0.145627,0 0.08482,-0.04282 0.133622,-0.104206 0.218441,-0.147021 0.04342,-0.02192 0.111302,0.03466 0.145627,0 0.04767,-0.04813 0.04528,-0.169879 0.145627,-0.220533 0.04342,-0.02192 0.111303,0.03465 0.145627,0 0.02427,-0.0245 0.04854,-0.196028 0.07281,-0.220531 0.01716,-0.01732 0.05565,0.01732 0.07281,0 0.03641,-0.03676 0.03641,-0.110267 0.07281,-0.147022 0.04473,-0.04516 0.169679,-0.04856 0.218441,-0.147021 0.01085,-0.02192 -0.01716,-0.05618 0,-0.07351 0.04473,-0.04516 0.169679,-0.04856 0.21844,-0.147022 0.02171,-0.04383 -0.03432,-0.112368 0,-0.147021 0.01716,-0.01732 0.05565,0.01732 0.07281,0 0.07033,-0.071 0.107713,-0.300569 0.145627,-0.367553 0.267579,-0.472746 0.171878,-0.250033 0.364068,-0.735106 0.01275,-0.03217 0.06196,-0.04064 0.07281,-0.07351 0.03406,-0.10317 -0.04795,-0.270747 0,-0.367554 0.246324,-0.497363 0.04912,-0.76254 0.145627,-1.249681 0.04412,-0.222703 0.102555,-0.444171 0.145628,-0.661596 0.06362,-0.321159 0.100029,-0.15594 0.21844,-0.514575 0.16662,-0.5046447 -0.278799,0.342404 0.07281,-0.3675539 0.13906,-0.2807831 0.264249,-0.5798041 0.364068,-0.8821279 0.103283,-0.3128156 0.07808,-0.7457314 0.21844,-1.0291491 0.03744,-0.075603 0.04115,-0.8405856 0,-0.8821278 -0.01716,-0.017326 -0.05565,0.017326 -0.07281,0 -0.05149,-0.05198 0.03256,-0.1547821 0,-0.220532 -0.01085,-0.021917 -0.06196,0.021917 -0.07281,0 -0.02171,-0.043834 0.02171,-0.103188 0,-0.1470213 -0.01085,-0.021917 -0.05565,0.017326 -0.07281,0 -0.01716,-0.017326 0.01085,-0.051594 0,-0.073511 C 18.580417,6.6354465 18.232847,6.4403721 18.130577,6.3887474 17.871211,6.2578233 17.47047,6.1682154 17.184,6.1682154 c -0.155978,0 -0.362681,0.037105 -0.509694,0 -0.40513,-0.1022519 -0.817113,-0.07351 -1.237831,-0.07351 -0.198965,0 -0.459111,0.039618 -0.655322,0 -0.05322,-0.010746 -0.09298,-0.060222 -0.145627,-0.073511 -0.09419,-0.023771 -0.196055,0.019222 -0.291254,0 -0.184319,-0.037217 -0.337755,-0.08916 -0.509695,-0.1470213 -0.06141,-0.020665 -0.16094,0.029025 -0.218441,0 -0.158084,-0.079799 -0.217521,-0.146712 -0.436881,-0.220532 -0.04605,-0.015497 -0.09958,0.015498 -0.145627,0 -0.06513,-0.021917 -0.08423,-0.1160265 -0.145628,-0.1470213 -0.02171,-0.010958 -0.05565,0.017326 -0.07281,0 -0.01716,-0.017326 0.01716,-0.056184 0,-0.073511 -0.06081,-0.061393 -0.257784,-0.1529506 -0.291254,-0.2205319 -0.02171,-0.043834 0.03432,-0.1123681 0,-0.1470214 -0.01716,-0.017326 -0.05565,0.017326 -0.07281,0 -0.09038,-0.091241 -0.01884,-0.2395563 -0.07281,-0.2940426 -0.01716,-0.017326 -0.06196,0.021917 -0.07281,0 -0.02171,-0.043834 0.01535,-0.1005293 0,-0.1470213 -0.01085,-0.032875 -0.05746,-0.042516 -0.07281,-0.073511 -0.07733,-0.1561449 0.05516,-0.4210278 0,-0.5880852 -0.08942,-0.2708315 -0.145877,-0.8076057 -0.07281,-1.1026597 0.07874,-0.3179853 0.145815,-0.7347264 0,-1.0291493 -0.02198,-0.044384 0.03366,-0.1865506 0,-0.220532 -0.01716,-0.017326 -0.05565,0.017326 -0.07281,0 -0.03432,-0.034654 0.02171,-0.103188 0,-0.1470212 -0.04918,-0.099309 -0.09839,-0.1986619 -0.145627,-0.2940426 -0.05779,-0.116681 -0.243204,-0.17202161 -0.291254,-0.22053204 -0.01716,-0.0173266 0.01716,-0.056184 0,-0.0735107 -0.117917,-0.11902807 -1.273757,-0.23913442 -1.456271,-0.1470035 -0.0307,0.0154975 -0.04211,0.0580132 -0.07281,0.0735107 -0.04342,0.0219166 -0.111303,-0.0346532 -0.1456273,0 -0.1506539,0.15209617 0.2302193,-0.005945 -0.072814,0.14702131 -0.021709,0.0109583 -0.048542,0 -0.072814,0 C 9.7327457,1.0469913 9.6356611,1.1450055 9.5385763,1.2430198 Z"
     id="path332" />
  <path
     style="fill:#45a7d4;fill-opacity:1"
     d="M 4.296,7.6454237 C 3.7489724,7.4252562 2.5448599,7.0647226 1.9659661,7.3541695 c -0.060624,0.030312 -0.2450677,-0.046187 -0.2912542,0 -0.017162,0.017162 0.017162,0.055651 0,0.072814 -0.031067,0.031067 -0.3842558,0.1658151 -0.4368814,0.2184406 -0.017162,0.017162 0.017162,0.055651 0,0.072814 -0.047674,0.047674 -0.1682684,0.045282 -0.2184407,0.1456271 -0.0217088,0.043418 0.021709,0.1022095 0,0.1456271 -0.0424092,0.084819 -0.10321783,0.1336222 -0.14562709,0.2184407 -0.0457688,0.091538 -0.0659644,0.3503695 -0.14562712,0.5096949 -0.0385791,0.077158 0.027501,0.2087514 0,0.2912543 -0.11098373,0.3329512 -0.10714461,0.6855016 -0.21844067,1.0193898 -0.0622422,0.186727 -0.001931,0.505834 0.0728136,0.655322 0.0795023,0.159005 0,0.730441 0,0.946577 0,0.774701 -0.0923396,1.809758 0,2.548474 0.0452709,0.362167 0.21033416,0.711923 0.36406779,1.01939 0.030586,0.06117 0.032787,0.324041 0.0728135,0.364068 0.017162,0.01716 0.055651,-0.01716 0.072814,0 0.034325,0.03432 -0.034325,0.111302 0,0.145627 0.017162,0.01716 0.055651,-0.01716 0.072814,0 0.034325,0.03432 -0.034325,0.111302 0,0.145627 0.017162,0.01716 0.055651,-0.01716 0.072814,0 0.024271,0.02427 0.048542,0.194169 0.072814,0.218441 0.078442,0.07844 0.090195,0.0087 0.2184406,0.07281 0.021709,0.01085 -0.017162,0.05565 0,0.07281 0.019749,0.01975 0.6713941,0.01607 0.7281356,0.07281 0.017162,0.01716 -0.017162,0.05565 0,0.07281 0.06604,0.06604 0.3543524,-0.04126 0.4368814,0 0.2288318,0.114416 0.573423,0.113763 0.8009492,0 0.043963,-0.02198 0.1847815,0.03366 0.2184406,0 0.017162,-0.01716 -0.017162,-0.05565 0,-0.07281 0.034325,-0.03432 0.1022095,0.02171 0.1456271,0 0.1520392,-0.07602 0.1392152,-0.142421 0.2912543,-0.21844 0.043418,-0.02171 0.1113025,0.03432 0.1456271,0 0.017162,-0.01716 -0.017162,-0.05565 0,-0.07281 0.017162,-0.01716 0.055651,0.01716 0.072814,0 0.013417,-0.01342 0.059397,-0.205024 0.072813,-0.218441 0.017162,-0.01716 0.055651,0.01716 0.072814,0 0.036327,-0.03633 0.2485411,-0.497082 0.2912542,-0.582508 0.021709,-0.04342 -0.021709,-0.10221 0,-0.145627 0.015351,-0.0307 0.066082,-0.03916 0.072814,-0.07281 0.032816,-0.16408 0,-0.47917 0,-0.655322 0,-0.509695 0,-1.01939 0,-1.529085 0,-0.135071 -0.032757,-0.305853 0,-0.436881 0.060427,-0.241707 0.085225,-0.486525 0.1456271,-0.728135 0.03532,-0.14128 -0.020595,-0.292718 0,-0.436882 0.023975,-0.167827 0.1123552,-0.343335 0.1456271,-0.509695 0.02856,-0.142799 -0.023941,-0.293235 0,-0.436881 0.00892,-0.05353 0.055651,-0.09414 0.072814,-0.145627 0.011346,-0.03404 0.087514,-0.829663 0.072814,-0.8737632 C 5.3045354,9.2147588 5.2579267,9.2052094 5.2425763,9.1745085 5.1813591,9.0520741 5.2300519,8.8582054 5.1697627,8.7376271 5.1390618,8.6762253 5.0548365,8.6534018 5.0241356,8.592 c -0.021709,-0.043418 0.021709,-0.1022095 0,-0.1456271 C 4.9307733,8.2596482 4.7920574,8.2142947 4.6600678,8.0823051 c -0.017162,-0.017162 0.015538,-0.054168 0,-0.072814 C 4.5501973,7.8776469 4.4173559,7.7667797 4.296,7.6454237 Z"
     id="path334" />
</svg>
