<svg id="Group_43038" data-name="Group 43038" xmlns="http://www.w3.org/2000/svg" width="14.521" height="14.515" viewBox="0 0 14.521 14.515">
  <path id="Path_20790" data-name="Path 20790" d="M222.892,317.934a5.953,5.953,0,0,1-5.921-6.239,6.041,6.041,0,0,1,5.094-5.609,5.959,5.959,0,0,1,6.736,4.968,5.834,5.834,0,0,1-1.2,4.628c-.076.1-.294.2-.132.355s.231.413.527.352a.867.867,0,0,1,.825.3c.782.787,1.57,1.567,2.351,2.354A.837.837,0,1,1,230,320.232c-.8-.79-1.586-1.588-2.384-2.378a.832.832,0,0,1-.28-.792.344.344,0,0,0-.107-.316c-.2-.264-.366-.306-.664-.066A5.71,5.71,0,0,1,222.892,317.934Zm.039-.994a4.959,4.959,0,1,0-4.963-4.964A4.945,4.945,0,0,0,222.931,316.939Z" transform="translate(-216.969 -306.028)" fill="#dbdbdb"/>
  <path id="Path_20791" data-name="Path 20791" d="M243.921,328.126a8.259,8.259,0,0,0-4.538,4.545C239.063,330.973,240.954,328.073,243.921,328.126Z" transform="translate(-237.553 -326.353)" fill="#dbdbdb"/>
</svg>
