<svg xmlns="http://www.w3.org/2000/svg" width="15.5" height="10.56" viewBox="0 0 15.5 10.56">
  <path id="Path_27697" data-name="Path 27697" d="M-1427.227-255.026q-3.048,0-6.1,0a1.612,1.612,0,0,1-1.61-1.269,1.633,1.633,0,0,1-.036-.364q0-3.647,0-7.293a1.608,1.608,0,0,1,1.614-1.632c.23,0,.46,0,.69,0h11.533a1.617,1.617,0,0,1,1.6,1.18,1.635,1.635,0,0,1,.058.447q0,3.636,0,7.272a1.608,1.608,0,0,1-1.662,1.659Zm-.046-9.98h-5.9a1.39,1.39,0,0,0-.839.262c-.11.08-.11.08-.009.173l5.994,5.48a1.12,1.12,0,0,0,1.552,0c.2-.185.4-.371.6-.556l5.332-4.926c.1-.091.1-.092-.013-.173a1.412,1.412,0,0,0-.851-.26Zm-.01,9.483h5.869a1.4,1.4,0,0,0,1.008-.365c.1-.1.1-.1-.013-.181q-2.33-1.747-4.657-3.5c-.088-.067-.129-.06-.205.013q-.44.422-.893.829a1.6,1.6,0,0,1-2.16-.01c-.294-.269-.591-.537-.881-.811-.068-.064-.108-.067-.183-.008q-2.008,1.581-4.021,3.156c-.207.162-.41.327-.62.485-.073.055-.067.087,0,.128.031.018.059.041.09.06a1.474,1.474,0,0,0,.8.2Zm-7.188-4.722q0,1.742,0,3.483a1.353,1.353,0,0,0,.062.457c.042.119.042.119.136.044q2.268-1.808,4.536-3.614c.064-.051.071-.074.006-.133-.475-.434-.945-.873-1.418-1.31l-3.133-2.9c-.085-.079-.087-.078-.127.035a1.378,1.378,0,0,0-.063.467Q-1434.472-261.981-1434.472-260.245Zm14.368,3.87a1.431,1.431,0,0,0,.056-.525q0-3.284,0-6.567c0-.115,0-.23-.008-.345a1.389,1.389,0,0,0-.082-.377c-.033-.1-.063-.094-.134-.028q-2.24,2.088-4.486,4.17c-.076.071-.065.1.011.154q1.712,1.293,3.419,2.592Z" transform="translate(1434.969 265.586)" fill="#dbdbdb"/>
</svg>
