<svg xmlns="http://www.w3.org/2000/svg" width="20.999" height="18.332" viewBox="0 0 20.999 18.332">
  <g id="Group_50814" data-name="Group 50814" transform="translate(-65.817 -577.355)">
    <g id="Group_50524" data-name="Group 50524" transform="translate(-292 319)">
      <g id="Component_97_55" data-name="Component 97 – 55" transform="translate(358.132 258.605)">
        <path id="Path_24462" data-name="Path 24462" d="M9882.584,6031.21l2.1-1.865,1.612-.118h1.73l2.306,1.192,1.322,1.484.737,1.686-.153,2.33-.757,1.629-1.593,1.947-6.919,6.713-1.019.771-2.554-2.473-4.559-4.68-2.48-3.14-.4-2.907,1.054-2.367,1.824-1.562,1.288-.507h2.069l2.026.732Z" transform="translate(-9871.965 -6029.227)" fill="#f7f7f7" stroke="#fff" stroke-width="0.5" opacity="0"/>
      </g>
    </g>
    <g id="Group_50523" data-name="Group 50523" transform="translate(-3185.709 -1834.396)">
      <path id="Path_39985" data-name="Path 39985" d="M3261.18,2413.628q2.958,0,5.916,0a3.39,3.39,0,0,1,3.547,3.57q0,2.728,0,5.455a3.408,3.408,0,0,1-3.5,3.547c-.392.005-.784.021-1.175,0-.273-.014-.362.07-.355.348.018.769.007,1.539.005,2.308,0,.193.037.4-.194.507s-.368-.058-.519-.176c-1.145-.9-2.293-1.789-3.429-2.7a1.241,1.241,0,0,0-.837-.293c-1.79.012-3.581.018-5.371,0a3.373,3.373,0,0,1-3.431-2.744,3.732,3.732,0,0,1-.061-.75q-.007-2.79,0-5.581a3.365,3.365,0,0,1,3.487-3.489q2.958,0,5.917,0Zm3.787,14.767c0-.841,0-1.566,0-2.291,0-.494.054-.547.56-.55.545,0,1.091.013,1.636,0a2.778,2.778,0,0,0,2.827-2.9q0-2.706,0-5.412a2.763,2.763,0,0,0-2.96-2.96q-5.832,0-11.663,0a2.737,2.737,0,0,0-2.936,2.931q-.007,2.727,0,5.455a3.211,3.211,0,0,0,.051.667,2.758,2.758,0,0,0,2.819,2.217c1.594.014,3.19.048,4.782-.014a2.921,2.921,0,0,1,2.234.768C3263.124,2427.031,3264.02,2427.656,3264.967,2428.395Z" fill="#f7f7f7" stroke="#fff" stroke-width="0.5"/>
      <path id="Path_39986" data-name="Path 39986" d="M3309.666,2495.851c-1.607,0-3.214,0-4.821,0-.246,0-.429,0-.421-.341.007-.317.177-.316.406-.316q4.8.005,9.6,0c.251,0,.422.008.42.345s-.184.311-.4.311q-2.39,0-4.78,0Z" transform="translate(-48.227 -74.718)" fill="#f7f7f7" stroke="#fff" stroke-width="0.5"/>
      <path id="Path_39987" data-name="Path 39987" d="M3307.076,2466.954c.712,0,1.425.013,2.137-.006.288-.008.31.124.313.352s-.066.315-.308.313q-2.179-.017-4.358,0c-.275,0-.323-.113-.323-.35s.08-.312.318-.307c.74.014,1.48.005,2.221.005Z" transform="translate(-48.331 -48.842)" fill="#f7f7f7" stroke="#fff" stroke-width="0.5"/>
    </g>
  </g>
</svg>
