<svg xmlns="http://www.w3.org/2000/svg" width="20.325" height="18.494" viewBox="0 0 20.325 18.494">
  <path id="Path_40716" data-name="Path 40716" d="M5458.2,3935.323c1.207-2.1,1.218-3.608-1.115-4.813-1.527-.789-1.563-2.726-1.515-4.407.048-1.629-.043-3.267.094-4.887a4.228,4.228,0,0,1,4.336-4.262c3.764-.15,7.538-.043,11.308-.045a2.266,2.266,0,0,1,.3.014c2.79.382,4.181,2.251,4.256,5.719.143,6.519-.709,9.021-3.877,8.943a22.062,22.062,0,0,0-12.608,3.722C5459.179,3935.432,5458.831,3935.323,5458.2,3935.323Zm2.306-1.932c2.556-.807,4.175-2.495,6.62-2.536,7.752-.13,7.793-.256,7.69-7.976,0-.407,0-.815-.025-1.222a3.476,3.476,0,0,0-3.633-3.7c-2.238-.1-4.483-.054-6.724-.055-7.736,0-8.1.368-7.936,8.091.006.306,0,.613.012.917.1,1.79.844,3.339,2.641,3.67C5460.916,3930.907,5460.885,3931.868,5460.5,3933.39Z" transform="translate(-5455.556 -3916.873)" fill="#9ea7b7"/>
</svg>
