<svg xmlns="http://www.w3.org/2000/svg" width="17.714" height="15.77" viewBox="0 0 17.714 15.77">
  <path id="Path_50002" data-name="Path 50002" d="M172.515,317.246a2.351,2.351,0,0,1-.932-.243q-3.67-1.835-7.342-3.669a.95.95,0,0,1,0-1.778c.355-.167.7-.35,1.054-.525.177-.088.176-.173,0-.261-.351-.175-.7-.354-1.052-.525a.952.952,0,0,1,0-1.781c.343-.167.679-.346,1.023-.511.211-.1.219-.186.005-.291-.352-.173-.7-.354-1.054-.525a.942.942,0,0,1,0-1.745l7.4-3.7a1.867,1.867,0,0,1,1.757.006q3.685,1.844,7.37,3.684a.946.946,0,0,1,0,1.762c-.354.169-.7.351-1.053.525-.2.1-.187.182.005.275.352.172.7.354,1.053.525a.95.95,0,0,1,0,1.766c-.353.171-.7.353-1.052.525-.191.093-.2.177-.006.275.352.174.7.355,1.053.525a.946.946,0,0,1,.008,1.761q-3.688,1.836-7.371,3.683A2.52,2.52,0,0,1,172.515,317.246Zm-.029-6.948a1.1,1.1,0,0,0,.625-.159q3.581-1.79,7.162-3.583c.131-.066.314-.1.312-.295s-.182-.227-.314-.293q-3.58-1.792-7.161-3.585a1.294,1.294,0,0,0-1.245-.007q-3.592,1.806-7.19,3.6c-.132.066-.309.108-.3.3.009.171.174.21.3.272q3.595,1.8,7.191,3.6A1.082,1.082,0,0,0,172.487,310.3Zm0,6.213a2.077,2.077,0,0,0,.606-.18c.709-.36,1.422-.712,2.134-1.068q2.544-1.272,5.086-2.545c.124-.062.279-.112.27-.289-.008-.157-.155-.2-.269-.256-.457-.231-.922-.448-1.371-.693a.671.671,0,0,0-.7,0c-1.562.8-3.139,1.562-4.7,2.363a2.194,2.194,0,0,1-2.146-.007c-1.56-.8-3.136-1.567-4.7-2.362a.645.645,0,0,0-.671,0c-.44.239-.9.45-1.342.678-.131.067-.315.1-.315.292s.179.23.311.3q3.58,1.793,7.162,3.583A1.965,1.965,0,0,0,172.489,316.511Zm-.005-3.109a1.621,1.621,0,0,0,.535-.129q3.663-1.836,7.329-3.667c.107-.054.23-.1.235-.245.006-.163-.135-.211-.249-.269-.476-.24-.959-.468-1.428-.721a.617.617,0,0,0-.638,0c-1.594.808-3.2,1.6-4.793,2.406a2.063,2.063,0,0,1-2,0c-1.593-.811-3.2-1.6-4.793-2.405a.59.59,0,0,0-.609-.006c-.469.253-.952.48-1.428.721-.114.058-.26.1-.271.255-.012.179.147.227.27.288q3.621,1.812,7.242,3.622A1.648,1.648,0,0,0,172.484,313.4Z" transform="translate(-163.624 -301.476)" fill="#9ea7b7"/>
</svg>
