<svg xmlns="http://www.w3.org/2000/svg" width="181.151" height="151.504" viewBox="0 0 181.151 151.504">
  <g id="Group_49390" data-name="Group 49390" transform="translate(-114.225 -102.141)">
    <path id="Path_40070" data-name="Path 40070" d="M344.433,313.534C250.9,358.755,197.486,231.787,227.38,197.293c23.185-26.752,54.1,12.187,82.932-7.431,44.358-30.182,77.286-21.588,86.8,16.46s-3.732,69.135-27.214,72.7S344.433,313.534,344.433,313.534Z" transform="translate(-104.841 -69.51)" fill="#eff4f8"/>
    <g id="Group_47318" data-name="Group 47318" transform="translate(-24.061 -11.838)">
      <g id="Group_47305" data-name="Group 47305" transform="translate(190.021 144.453)">
        <path id="Path_27706" data-name="Path 27706" d="M-2795.708,1034.411q9.29,0,18.58,0c2.4,0,3.241.787,3.463,3.2a29.189,29.189,0,0,0,.661,4.413c1.9,7.668,7.247,12.416,15.135,13.088,4.71.4,4.912,1.4,4.783,5.44a88.248,88.248,0,0,1-4.681,26.147,2.71,2.71,0,0,0,.279,2.583c4.221,6.856,8.394,13.742,12.576,20.622,1.765,2.906,1.258,5.12-1.595,7-4.038,2.667-8.01,5.447-12.143,7.961a11.35,11.35,0,0,1-12.305.235,25.514,25.514,0,0,1-5.912-5.078c-.187-.207-.36-.428-.556-.627-1.477-1.5-2.312-1.593-4.014-.442a64.718,64.718,0,0,1-12.349,6.45,4.857,4.857,0,0,1-3.783-.029c-17.665-6.954-29.187-19.765-35.621-37.393a85.744,85.744,0,0,1-5.067-28.178c-.049-2.906.7-3.76,3.573-4.006a20.97,20.97,0,0,0,7.022-1.684c5.757-2.631,8.472-7.432,9.49-13.412a30.837,30.837,0,0,0,.312-3.193c.136-2.131,1.123-3.094,3.293-3.1Q-2805.137,1034.4-2795.708,1034.411Zm35.822,50.329c.133-.392.287-.814.418-1.244a87.879,87.879,0,0,0,3.791-23.914c.027-1.221-.216-1.647-1.542-1.755-6.712-.544-12.312-3.141-15.9-9.154a22.474,22.474,0,0,1-3.067-10.2c-.081-1.245-.467-1.52-1.654-1.516-11.64.043-23.28.026-34.92.026-2.4,0-2.4,0-2.608,2.4-.954,11.093-7.933,18.084-19.035,19.01-.935.078-1.246.308-1.23,1.308a82.273,82.273,0,0,0,6.033,30.217c6.356,15.466,17.048,26.671,32.729,32.882a2.215,2.215,0,0,0,1.728.29,57.767,57.767,0,0,0,12.74-6.708c-2.277-1.3-4.4-2.526-6.536-3.738a8.23,8.23,0,0,1-3.268-2.964,4.35,4.35,0,0,1,0-4.524,3.929,3.929,0,0,1,3.731-2c1.6-.008,3.046.643,4.81,1.131-1.717-2.817-3.292-5.4-4.867-7.976a5.557,5.557,0,0,0-.322,2.154,2.9,2.9,0,0,1-3.092,3.188c-2.514.051-5.03.057-7.544-.007a2.839,2.839,0,0,1-2.99-3q-.067-3.841,0-7.683a2.8,2.8,0,0,1,2.883-2.95c1.3-.068,2.607,0,3.91-.037.581-.017,1.478.285,1.659-.22.16-.445-.419-1.142-.644-1.739-.2-.529-.637-.459-1.048-.461-1.3-.005-2.608.029-3.911-.013a2.791,2.791,0,0,1-2.958-2.869q-.087-3.979,0-7.961a2.738,2.738,0,0,1,2.864-2.809q3.908-.078,7.822,0a2.817,2.817,0,0,1,2.912,2.925,16.531,16.531,0,0,1-.01,2.79c-.172,1.387.558,1.993,1.82,2.468,0-1.752-.02-3.375,0-5a2.888,2.888,0,0,1,3.2-3.2c2.375-.024,4.75-.02,7.125,0,2.162.017,3.295,1.112,3.326,3.253q.048,3.562,0,7.125a2.966,2.966,0,0,1-3.3,3.28q-2.933.033-5.867,0c-.8-.011-1.04.187-.557.931.633.976,1.254,1.961,1.82,2.977.354.635.633.606,1.136.146a5.987,5.987,0,0,1,4.958-1.769c.594.079.813-.324,1.123-.658a6.115,6.115,0,0,1,4.794-2.195,2.026,2.026,0,0,0,1.829-.888c2.093-2.487,4.95-2.4,7.013.125C-2760.4,1084.418-2760.35,1084.767-2759.886,1084.74Zm-5.056,39.333a9.078,9.078,0,0,0,4.418-1.1q6.489-4.232,12.937-8.525a1.791,1.791,0,0,0,.62-2.852q-7.711-12.707-15.457-25.393c-.559-.914-1.225-1.725-2.479-.987a1.973,1.973,0,0,0-.689,2.99c.413.726.918,1.4,1.356,2.112a1.27,1.27,0,0,1-.269,1.858,1.258,1.258,0,0,1-1.847-.3,14.717,14.717,0,0,1-1.839-2.787c-1.035-1.839-1.8-1.968-3.485-.685-1,.761-1.385,1.568-.432,2.675a19.591,19.591,0,0,1,1.224,1.866c.522.771.8,1.6-.11,2.194-.974.639-1.626.012-2.152-.822-.695-1.1-1.458-2.16-2.133-3.274a1.109,1.109,0,0,0-1.521-.521,6.149,6.149,0,0,0-1.676.979,1.36,1.36,0,0,0-.324,2.212,34.393,34.393,0,0,1,1.993,3.193,1.186,1.186,0,0,1-.319,1.626,1.19,1.19,0,0,1-1.653-.042,3.761,3.761,0,0,1-.666-.887q-4.28-6.953-8.558-13.907a9.379,9.379,0,0,0-1.283-1.64,1.646,1.646,0,0,0-2.143-.415,1.99,1.99,0,0,0-1.114,2.069,6.51,6.51,0,0,0,1.123,2.823c4.535,7.315,8.875,14.751,13.612,21.939.5.755.844,1.579-.048,2.216-.963.689-1.5-.043-2.178-.731a13.968,13.968,0,0,0-8.441-4.167,1.59,1.59,0,0,0-1.482,2.5,5.765,5.765,0,0,0,2.379,2.1c3.353,1.916,6.7,3.843,10.063,5.735a9.439,9.439,0,0,1,2.586,2.075,23.512,23.512,0,0,0,5.345,4.665A7.549,7.549,0,0,0-2764.941,1124.073Zm-11.236-45.289c0-1.07-.03-2.14.011-3.208.028-.746-.2-1.115-1.011-1.1q-3.207.049-6.416,0c-.825-.012-1.021.384-1.013,1.117q.04,3.138,0,6.277c-.011.75.222,1.113,1.03,1.1,2.139-.03,4.279-.024,6.417,0,.7.007,1.02-.24.993-.976C-2776.206,1080.924-2776.178,1079.854-2776.177,1078.784Zm-19.641,20.25c1.115,0,2.231-.026,3.345.009.682.021,1.044-.173,1.036-.926-.025-2.044.018-4.09-.025-6.134-.017-.731-.272-1.378-1.218-1.373-2.089.011-4.183.018-6.272-.005-.665-.008-.912.267-.907.909.015,2.185.02,4.369-.006,6.552-.007.713.257,1,.98.975C-2797.865,1099-2796.842,1099.032-2795.818,1099.034Zm-4.2-20.656v.914c0,3.863,0,3.844,3.856,3.688.665-.027,1.016-.212,1.167-.876a3.277,3.277,0,0,1,1.883-2.461c1.542-.564,1.645-1.627,1.524-2.936a7.292,7.292,0,0,1,0-1.252c.057-.73-.278-.993-.979-.977-1.113.026-2.229-.04-3.34.015-1.327.066-3.03-.592-3.877.322C-2800.56,1075.645-2799.928,1077.305-2800.02,1078.378Z" transform="translate(2838.259 -1034.41)" fill="#45a7d4"/>
        <path id="Path_27707" data-name="Path 27707" d="M-2621.241,1162.656c0,1.254.02,2.51,0,3.763a2.755,2.755,0,0,1-2.775,3.026q-4.038.132-8.08,0a2.729,2.729,0,0,1-2.767-2.9q-.07-3.9,0-7.8a2.8,2.8,0,0,1,2.915-2.917q3.9-.1,7.8,0a2.831,2.831,0,0,1,2.9,3.067C-2621.221,1160.147-2621.241,1161.4-2621.241,1162.656Zm-7.124,4.217c1.294,0,2.364-.046,3.43.014.881.05,1.124-.331,1.11-1.144q-.051-3.135,0-6.271c.011-.782-.282-1.059-1.065-1.045-2.09.039-4.182.047-6.271,0-.875-.021-1.138.319-1.1,1.141.046,1.066-.019,2.138.017,3.2.043,1.294-.544,2.948.231,3.788C-2631.162,1167.484-2629.46,1166.7-2628.365,1166.873Z" transform="translate(2670.652 -1134.439)" fill="#45a7d4"/>
        <path id="Path_27708" data-name="Path 27708" d="M-2708.461,1162.627c0,1.3.035,2.6-.006,3.9a2.754,2.754,0,0,1-2.866,2.94q-3.968.113-7.94-.007a2.759,2.759,0,0,1-2.821-2.864c-.076-2.646-.081-5.3,0-7.941a2.788,2.788,0,0,1,2.884-2.816c2.645-.069,5.3-.075,7.94.006a2.766,2.766,0,0,1,2.795,2.879C-2708.422,1160.025-2708.462,1161.326-2708.461,1162.627Zm-6.762-4.176c-1.07,0-2.14.02-3.208-.007-.66-.017-1.046.127-1.035.911.034,2.233.021,4.465.008,6.7,0,.585.235.836.828.833q3.349-.021,6.7,0c.66.007.909-.271.9-.915-.015-2.186-.023-4.373.005-6.558.01-.729-.28-.993-.992-.972C-2713.083,1158.477-2714.153,1158.452-2715.223,1158.451Z" transform="translate(2742.565 -1134.448)" fill="#45a7d4"/>
        <path id="Path_27709" data-name="Path 27709" d="M-2533.558,1162.757c0,1.3.035,2.6-.011,3.9a2.618,2.618,0,0,1-2.573,2.762c-2.781.1-5.572.106-8.354.012a2.707,2.707,0,0,1-2.678-2.844q-.091-3.9,0-7.8a2.814,2.814,0,0,1,2.885-2.956c2.6-.073,5.2-.068,7.8-.006a2.81,2.81,0,0,1,2.927,3.03C-2533.531,1160.155-2533.556,1161.456-2533.558,1162.757Zm-2.571-.063c0-1.116-.016-2.233.008-3.349.014-.651-.248-.915-.907-.909-2.233.021-4.466.018-6.7,0-.6,0-.832.246-.828.832.011,2.233.016,4.467,0,6.7-.006.65.24.917.9.911,2.186-.02,4.373-.024,6.559,0,.721.01,1.006-.257.98-.98C-2536.155,1164.835-2536.128,1163.764-2536.129,1162.694Z" transform="translate(2598.384 -1134.441)" fill="#45a7d4"/>
        <path id="Path_27710" data-name="Path 27710" d="M-2708.458,1345.983c0,1.258.032,2.516-.009,3.771a2.793,2.793,0,0,1-2.852,2.983q-3.978.122-7.959,0a2.788,2.788,0,0,1-2.82-2.892c-.071-2.6-.076-5.215,0-7.821a2.8,2.8,0,0,1,2.944-2.907c2.605-.062,5.215-.064,7.821.008a2.758,2.758,0,0,1,2.865,2.952C-2708.426,1343.376-2708.46,1344.68-2708.458,1345.983Zm-11-.1c0,1.115.021,2.231-.009,3.346-.014.648.233.916.895.909,2.231-.022,4.462-.016,6.692-.005.581,0,.848-.236.845-.826-.008-2.23-.014-4.461,0-6.692,0-.649-.255-.916-.907-.91-2.185.018-4.37.025-6.554-.005-.72-.009-1,.256-.976.976C-2719.427,1343.745-2719.453,1344.814-2719.453,1345.883Z" transform="translate(2742.565 -1285.508)" fill="#45a7d4"/>
        <path id="Path_27711" data-name="Path 27711" d="M-2722.476,1254.276c0-1.3-.031-2.6.009-3.9a2.768,2.768,0,0,1,2.808-2.856q3.968-.088,7.94,0a2.8,2.8,0,0,1,2.864,2.963q.071,3.831,0,7.663a2.833,2.833,0,0,1-2.972,3q-3.831.073-7.663,0a2.833,2.833,0,0,1-2.983-3.114C-2722.492,1256.784-2722.477,1255.53-2722.476,1254.276Zm11,.108c0-1.069-.029-2.139.01-3.207.029-.755-.224-1.1-1.027-1.093-2.138.03-4.276.025-6.414,0-.707-.007-1,.262-.995.984q.037,3.277,0,6.554c-.008.752.354.957,1.028.953q3.207-.027,6.415,0c.7.005,1.017-.255.991-.985C-2711.506,1256.523-2711.48,1255.454-2711.479,1254.384Z" transform="translate(2742.839 -1210.018)" fill="#45a7d4"/>
      </g>
      <g id="Group_47317" data-name="Group 47317" transform="translate(167.457 121.853)">
        <path id="Path_27729" data-name="Path 27729" d="M423.084,87.407a.5.5,0,0,0,0,1A.5.5,0,0,0,423.084,87.407Z" transform="translate(-365.038 -48.47)" fill="#45a7d4"/>
        <g id="Group_47317-2" data-name="Group 47317" transform="translate(0 0)">
          <path id="Path_27717" data-name="Path 27717" d="M473.663,154.135l-3.073.568-.687,3.24-.687-3.24-3.073-.57,3.06-.748.7-3.06.7,3.06Z" transform="translate(-354.876 -33.786)" fill="#45a7d4"/>
          <path id="Path_27718" data-name="Path 27718" d="M399.853,134.162l-3.073.568-.687,3.24-.687-3.24-3.073-.57,3.06-.748.7-3.06.7,3.06Z" transform="translate(-372.102 -38.448)" fill="#45a7d4"/>
          <path id="Path_27719" data-name="Path 27719" d="M411.225,64.917l-3.073.568-.687,3.24-.687-3.24-3.073-.57,3.06-.748.7-3.06.7,3.06Z" transform="translate(-369.448 -54.607)" fill="#45a7d4"/>
          <path id="Path_27720" data-name="Path 27720" d="M468.577,142l-1.718.318-.384,1.811-.384-1.811L464.374,142l1.71-.418.391-1.71.391,1.71Z" transform="translate(-345.946 -47.438)" fill="#45a7d4"/>
          <path id="Path_27721" data-name="Path 27721" d="M478.208,112.777l-1.718.318-.384,1.811-.384-1.811-1.718-.319,1.71-.418.391-1.71.391,1.71Z" transform="translate(-353.042 -43.046)" fill="#45a7d4"/>
          <path id="Path_27722" data-name="Path 27722" d="M466.386,61.511l-1.718.318-.384,1.811-.384-1.811-1.718-.318,1.71-.418.391-1.71.391,1.71Z" transform="translate(-355.801 -55.01)" fill="#45a7d4"/>
          <path id="Path_27723" data-name="Path 27723" d="M430.813,167.862l-1.718.318-.384,1.811-.384-1.811-1.718-.319,1.71-.418.391-1.71.391,1.71Z" transform="translate(-364.102 -30.191)" fill="#45a7d4"/>
          <path id="Path_27724" data-name="Path 27724" d="M391.484,137.262l-1.718.318-.384,1.811L389,137.58l-1.718-.318,1.71-.418.391-1.71.391,1.71Z" transform="translate(-373.281 -37.331)" fill="#45a7d4"/>
          <path id="Path_27725" data-name="Path 27725" d="M393.651,96.563l-1.718.318-.384,1.811-.384-1.811-1.718-.318,1.71-.418.391-1.71.391,1.71Z" transform="translate(-372.775 -46.83)" fill="#45a7d4"/>
          <path id="Path_27726" data-name="Path 27726" d="M451.366,148.188a.5.5,0,0,0,0,1A.5.5,0,0,0,451.366,148.188Z" transform="translate(-358.438 -28.679)" fill="#45a7d4"/>
          <path id="Path_27727" data-name="Path 27727" d="M387.171,75.012a.5.5,0,0,0,0,1A.5.5,0,0,0,387.171,75.012Z" transform="translate(-373.419 -51.362)" fill="#45a7d4"/>
          <path id="Path_27728" data-name="Path 27728" d="M463.978,150.463a.5.5,0,0,0,0,1A.5.5,0,0,0,463.978,150.463Z" transform="translate(-355.495 -33.754)" fill="#45a7d4"/>
          <path id="Path_27730" data-name="Path 27730" d="M385.712,103.668a.5.5,0,0,0,0,1A.5.5,0,0,0,385.712,103.668Z" transform="translate(-373.759 -44.674)" fill="#45a7d4"/>
          <path id="Path_27731" data-name="Path 27731" d="M376.269,99.266a.352.352,0,0,0,0,.7A.352.352,0,0,0,376.269,99.266Z" transform="translate(-375.929 -45.702)" fill="#45a7d4"/>
          <path id="Path_27732" data-name="Path 27732" d="M453.308,55.837a.353.353,0,0,0,0,.705A.353.353,0,0,0,453.308,55.837Z" transform="translate(-357.951 -55.837)" fill="#45a7d4"/>
          <path id="Path_27733" data-name="Path 27733" d="M413.444,153.61a.352.352,0,0,0,0,.7A.352.352,0,0,0,413.444,153.61Z" transform="translate(-367.255 -33.02)" fill="#45a7d4"/>
          <path id="Path_27734" data-name="Path 27734" d="M404.628,148.36a.955.955,0,0,0,0,1.909A.955.955,0,0,0,404.628,148.36Z" transform="translate(-369.448 -34.245)" fill="#45a7d4"/>
        </g>
      </g>
    </g>
  </g>
</svg>
