<svg xmlns="http://www.w3.org/2000/svg" width="14.532" height="17.872" viewBox="0 0 14.532 17.872">
  <path id="Path_40185" data-name="Path 40185" d="M-2054.26-1272.572c.055-.971.113-1.942.164-2.913a.747.747,0,0,1,.176-.428q2.967-3.836,5.932-7.674.838-1.084,1.675-2.169a3.068,3.068,0,0,1,4.376-.6c.284.213.569.425.849.643a3.043,3.043,0,0,1,.571,4.275q-3.819,4.96-7.661,9.9a.763.763,0,0,1-.327.242q-2.544,1.038-5.087,2.079c-.5.206-.853-.039-.824-.584.049-.925.1-1.85.155-2.776Zm7.648-11.024c-.041.046-.081.087-.116.131q-2.99,3.868-5.983,7.735c-.095.122-.075.17.04.255q1.881,1.4,3.752,2.816c.127.1.188.1.289-.037q1.549-2.017,3.111-4.024,1.418-1.831,2.839-3.661c.083-.106.105-.159-.024-.256q-1.891-1.422-3.771-2.858C-2046.514-1283.527-2046.557-1283.557-2046.611-1283.6Zm5.651.393a2.018,2.018,0,0,0-.746-1.631c-.319-.253-.643-.5-.975-.737a2,2,0,0,0-2.723.394c-.09.113-.178.228-.265.343s-.254.243-.252.362c0,.142.212.207.335.3,1.175.9,2.355,1.788,3.529,2.686.113.087.172.1.259-.03.141-.206.3-.4.453-.6A1.957,1.957,0,0,0-2040.961-1283.2Zm-8.781,11.26-3.338-2.5-.227,3.961Z" transform="translate(2054.417 1287.012)" fill="#fff"/>
</svg>
