<svg id="Group_47973" data-name="Group 47973" xmlns="http://www.w3.org/2000/svg" width="12.092" height="15.576" viewBox="0 0 12.092 15.576">
  <path id="Path_24469" data-name="Path 24469" d="M123.044,112.527a5.688,5.688,0,0,1,4.342-5.381,6.114,6.114,0,0,1,7.583,4.105,5.582,5.582,0,0,1-.428,3.822,9.73,9.73,0,0,1-1.17,1.837q-2.1,2.743-4.192,5.492c-.055.072-.085.143-.178.02-1.531-2.015-3.075-4.021-4.6-6.042a6.612,6.612,0,0,1-1.345-3.293c-.006-.052-.013-.1-.014-.155C123.043,112.8,123.044,112.663,123.044,112.527Zm6.037-5.067a5.555,5.555,0,0,0-3.274,1.032,4.8,4.8,0,0,0-2.145,4.83,6.085,6.085,0,0,0,1.269,2.826c1.349,1.781,2.709,3.554,4.06,5.333.086.114.117.086.188-.006q1.89-2.484,3.785-4.963a8.841,8.841,0,0,0,1.021-1.6,5.13,5.13,0,0,0,.46-3.391A5.428,5.428,0,0,0,129.081,107.46Z" transform="translate(-123.044 -106.913)" fill="#646464"/>
  <path id="Path_24470" data-name="Path 24470" d="M229.517,217.989a2.2,2.2,0,0,1,4.406,0,2.2,2.2,0,0,1-4.406,0Zm3.9,0a1.7,1.7,0,1,0-1.708,1.681A1.617,1.617,0,0,0,233.42,217.988Z" transform="translate(-225.678 -212.263)" fill="#646464"/>
</svg>
