<svg xmlns="http://www.w3.org/2000/svg" width="14.817" height="16.536" viewBox="0 0 14.817 16.536">
  <g id="Group_42791" data-name="Group 42791" transform="translate(-136.065 -213.814)">
    <path id="Path_9729" data-name="Path 9729" d="M347.374,456.271a6.878,6.878,0,0,1-1.647-1.39,6.964,6.964,0,0,1-1.6-3.758,11.36,11.36,0,0,1-.07-1.176c0-.1.02-.163.132-.185a9.638,9.638,0,0,0,2.425-.866,1.989,1.989,0,0,1,1.852.029,9.6,9.6,0,0,0,2.484.869v.838a.242.242,0,0,0-.033.145,7,7,0,0,1-.262,1.474,6.821,6.821,0,0,1-3.019,4.018Zm2.892-5.786c.013-.069,0-.143-.137-.178a8.776,8.776,0,0,1-1.89-.74,1.5,1.5,0,0,0-1.459,0,8.1,8.1,0,0,1-1.889.742c-.111.026-.138.072-.131.181a7.7,7.7,0,0,0,.217,1.466,5.818,5.818,0,0,0,2.317,3.423.3.3,0,0,0,.426-.009A6.45,6.45,0,0,0,350.266,450.484Z" transform="translate(-200.073 -225.921)" fill="#45a7d4"/>
    <path id="Path_9730" data-name="Path 9730" d="M148.466,222.269a6.2,6.2,0,0,0-.615-.152c-.1-.014-.064-.111-.064-.173,0-.686,0-1.371,0-2.057,0-.349-.009-.7,0-1.047.006-.165-.053-.2-.206-.2-1.238.006-2.476,0-3.714.008-.189,0-.228-.055-.227-.234.008-1.238,0-2.476.008-3.714,0-.156-.037-.2-.2-.2q-3.247.008-6.495,0c-.154,0-.2.036-.2.2q.007,7.037,0,14.075c0,.177.057.2.216.2,2.533,0,5.066,0,7.6-.007a.369.369,0,0,1,.347.168c.122.174.269.331.408.5a.317.317,0,0,1-.193.023q-4.419,0-8.837.005c-.184,0-.23-.045-.229-.229q.008-7.695,0-15.389c0-.2.056-.236.242-.236q3.809.009,7.618,0a.446.446,0,0,1,.35.14q2.028,2.039,4.066,4.069a.362.362,0,0,1,.136.275c-.005,1.276,0,2.552,0,3.828C148.474,222.171,148.469,222.214,148.466,222.269Zm-1.25-4.323-2.881-2.881v.126c0,.857,0,1.713,0,2.57,0,.167.056.2.207.2.844-.006,1.688,0,2.532,0C147.125,217.952,147.181,217.947,147.216,217.946Z" transform="translate(0 0)" fill="#45a7d4"/>
    <path id="Path_9731" data-name="Path 9731" d="M211.764,412.983c-1.079,0-2.158,0-3.237,0-.154,0-.2-.046-.186-.192s-.049-.366.03-.461c.094-.111.31-.037.472-.038,2.056,0,4.113,0,6.169-.006.179,0,.22.052.217.221-.01.472,0,.472-.476.472Z" transform="translate(-69.512 -190.899)" fill="#45a7d4"/>
    <path id="Path_9732" data-name="Path 9732" d="M210.925,521.91c-.723,0-1.447,0-2.17,0-.135,0-.188-.029-.187-.178,0-.516-.005-.516.513-.516,1.288,0,2.576,0,3.864,0,.161,0,.234.044.236.2a.84.84,0,0,0,.018.132c.063.36.063.36-.313.36Z" transform="translate(-69.741 -295.691)" fill="#45a7d4"/>
    <path id="Path_9733" data-name="Path 9733" d="M210.822,467.612c-.691,0-1.383,0-2.074,0-.132,0-.171-.036-.172-.17,0-.521-.007-.521.5-.521,1.262,0,2.524,0,3.786,0,.153,0,.2.044.186.191s.07.377-.04.471c-.094.08-.3.028-.46.028C211.976,467.613,211.4,467.612,210.822,467.612Z" transform="translate(-69.748 -243.465)" fill="#45a7d4"/>
  </g>
</svg>
