<svg xmlns="http://www.w3.org/2000/svg" width="16.498" height="16.504" viewBox="0 0 16.498 16.504">
  <path id="Path_50003" data-name="Path 50003" d="M2115.759-278.111a8.134,8.134,0,0,0,4.554-1.366,8.166,8.166,0,0,0,2.388-2.422,8.19,8.19,0,0,0,1.2-3.113,7.447,7.447,0,0,0,.1-.951.378.378,0,0,0-.329-.4.369.369,0,0,0-.43.333c-.031.314-.054.629-.107.941a7.346,7.346,0,0,1-.551,1.8,7.352,7.352,0,0,1-.833,1.411,7.62,7.62,0,0,1-1.521,1.52,7.43,7.43,0,0,1-2.05,1.085,7.471,7.471,0,0,1-2.039.391,7.418,7.418,0,0,1-2.513-.3,7.355,7.355,0,0,1-2.077-.987,7.505,7.505,0,0,1-1.573-1.438,7.451,7.451,0,0,1-.639-.9,7.34,7.34,0,0,1-1.005-2.9,7.415,7.415,0,0,1,.746-4.328,7.391,7.391,0,0,1,1.635-2.145,7.467,7.467,0,0,1,2.444-1.492,7.281,7.281,0,0,1,2.047-.441,7.406,7.406,0,0,1,4.192.926,7.555,7.555,0,0,1,1.384,1,8.686,8.686,0,0,1,.811.858c.086.1.077.192-.019.231a.216.216,0,0,1-.146-.017c-.544-.146-1.087-.295-1.632-.438a.382.382,0,0,0-.5.4.376.376,0,0,0,.271.336l2.974.8c.2.053.4.109.6.163a.336.336,0,0,0,.439-.424q-.374-1.406-.753-2.811c-.071-.263-.137-.527-.214-.788a.371.371,0,0,0-.372-.262.389.389,0,0,0-.36.294.408.408,0,0,0,0,.2l.422,1.577c.005.021.011.042.015.064a.116.116,0,0,1-.066.14.116.116,0,0,1-.141-.043c-.108-.122-.214-.245-.324-.364a8.2,8.2,0,0,0-2.465-1.816,8.058,8.058,0,0,0-2.574-.75,8.2,8.2,0,0,0-3.656.381,8.251,8.251,0,0,0-1.835.892,8.17,8.17,0,0,0-1.862,1.662,8.129,8.129,0,0,0-1.817,4.13,8.167,8.167,0,0,0,.349,3.751,8.133,8.133,0,0,0,1.452,2.621,8.189,8.189,0,0,0,1.346,1.3,8.2,8.2,0,0,0,3.7,1.6A7.213,7.213,0,0,0,2115.759-278.111Z" transform="translate(-2107.504 294.613)" fill="#fff"/>
</svg>
