<svg xmlns="http://www.w3.org/2000/svg" width="46" height="46" viewBox="0 0 46 46">
  <g id="Group_50906" data-name="Group 50906" transform="translate(-2 -917)">
    <circle id="Ellipse_4192" data-name="Ellipse 4192" cx="23" cy="23" r="23" transform="translate(2 917)" fill="#45a7d4"/>
    <g id="Group_47613" data-name="Group 47613" transform="translate(15.166 930.197)">
      <path id="Path_39533" data-name="Path 39533" d="M-30.951,1028.021c.121.319.24.654.373.984q3.4,8.457,6.8,16.91c.171.423.24,1,.864,1,.694.006.754-.623.924-1.081.746-2.009,1.5-4.018,2.176-6.05a2.025,2.025,0,0,1,1.433-1.4c2.031-.685,4.04-1.439,6.05-2.183.429-.159,1.008-.227,1.047-.827s-.52-.739-.949-.912q-8.673-3.49-17.351-6.969C-30.21,1027.242-30.745,1027.123-30.951,1028.021Zm.811.278.233-.219,18.012,7.248c-2.455.894-4.515,1.707-6.618,2.384a2.684,2.684,0,0,0-1.978,1.938c-.556,1.82-1.259,3.6-1.933,5.379-.123.325-.082.8-.622.934Z" transform="translate(30.952 -1027.312)" fill="#fff"/>
      <g id="Group_47612" data-name="Group 47612" transform="translate(8.991 8.589)">
        <path id="Path_39534" data-name="Path 39534" d="M-10.555,1065.45a4.069,4.069,0,0,0,.31.4q2.151,2.15,4.311,4.292c.187.186.4.506.678.208s-.05-.512-.23-.693q-2.141-2.159-4.3-4.3c-.164-.162-.345-.366-.61-.191C-10.478,1065.22-10.5,1065.351-10.555,1065.45Z" transform="translate(10.96 -1064.673)" fill="#fff"/>
        <path id="Path_39535" data-name="Path 39535" d="M-12.254,1063.5a3.832,3.832,0,0,0,.328.482q.991,1.01,2,2.005c.2.2.434.44.692.152.2-.226-.036-.426-.2-.59q-1-1.006-2-2c-.135-.134-.273-.3-.5-.216A2.673,2.673,0,0,0-12.254,1063.5Z" transform="translate(15.374 -1063.307)" fill="#fff"/>
        <path id="Path_39536" data-name="Path 39536" d="M1.315,1077.064a1.674,1.674,0,0,0,.219.367c.718.729,1.442,1.453,2.178,2.165.127.123.32.276.5.045a.378.378,0,0,0-.073-.529c-.718-.731-1.438-1.458-2.172-2.173C1.753,1076.732,1.5,1076.607,1.315,1077.064Z" transform="translate(-1.315 -1073.544)" fill="#fff"/>
      </g>
    </g>
  </g>
</svg>
