<svg xmlns="http://www.w3.org/2000/svg" width="15.5" height="15.495" viewBox="0 0 15.5 15.495">
  <path id="Path_50250" data-name="Path 50250" d="M-693.394-2769.648a.474.474,0,0,0,.061.257q2.224,4.691,4.447,9.383,1.182,2.494,2.362,4.989a.527.527,0,0,0,.517.357.525.525,0,0,0,.484-.378q1.055-2.468,2.113-4.935a.354.354,0,0,1,.2-.2q2.431-1.036,4.86-2.076c.232-.1.437-.214.45-.5a.52.52,0,0,0-.344-.525q-1.347-.635-2.693-1.274l-11.666-5.525a.526.526,0,0,0-.757.221A.424.424,0,0,0-693.394-2769.648Zm1.612,1.136.034-.035,12.088,5.726c-.071.038-.1.055-.129.068q-1.856.8-3.711,1.594a.17.17,0,0,1-.22-.046c-.338-.344-.681-.684-1.022-1.026q-1.2-1.2-2.393-2.394a.539.539,0,0,0-.51-.193.48.48,0,0,0-.391.353.528.528,0,0,0,.161.551q1.7,1.7,3.4,3.392a.231.231,0,0,1,.064.3c-.527,1.214-1.046,2.432-1.568,3.649-.016.038-.021.089-.092.108Z" transform="translate(693.395 2770.157)" fill="#fff"/>
</svg>
