<svg xmlns="http://www.w3.org/2000/svg" width="15.973" height="15.976" viewBox="0 0 15.973 15.976">
  <g id="Group_46706" data-name="Group 46706" transform="translate(0.1 0.1)">
    <path id="Path_22880" data-name="Path 22880" d="M126.1,205.052a.4.4,0,0,1-.11.233c-.324.43-.645.863-.974,1.289a.217.217,0,0,0-.024.285,5.119,5.119,0,0,1,.517,1.224.218.218,0,0,0,.215.188c.528.059,1.055.134,1.582.2.272.036.335.106.336.378q0,.889,0,1.778c0,.269-.055.334-.314.374-.532.082-1.063.17-1.6.243a.221.221,0,0,0-.214.192,5.23,5.23,0,0,1-.5,1.209.2.2,0,0,0,.02.268c.329.418.648.844.97,1.267.17.224.166.309-.027.5q-.632.639-1.267,1.277c-.179.18-.27.187-.473.037-.434-.319-.869-.637-1.3-.962a.217.217,0,0,0-.283-.027,4.916,4.916,0,0,1-1.208.5.231.231,0,0,0-.2.23c-.061.535-.135,1.068-.206,1.6-.029.222-.109.3-.329.3q-.93.005-1.859,0c-.238,0-.306-.068-.345-.326-.081-.532-.167-1.064-.241-1.6a.207.207,0,0,0-.183-.2,5.1,5.1,0,0,1-1.191-.491.23.23,0,0,0-.3.019c-.419.327-.847.644-1.272.964-.212.159-.3.152-.487-.035q-.625-.618-1.249-1.238c-.219-.217-.225-.291-.047-.535.309-.425.616-.851.93-1.272a.222.222,0,0,0,.025-.286,5.042,5.042,0,0,1-.515-1.246.2.2,0,0,0-.205-.17c-.515-.056-1.029-.125-1.544-.184-.289-.034-.353-.1-.354-.378q0-.889,0-1.778c0-.273.057-.338.333-.38.532-.081,1.064-.163,1.6-.239.1-.014.154-.041.182-.146a5.289,5.289,0,0,1,.547-1.3.173.173,0,0,0-.029-.23q-.5-.633-1-1.272c-.166-.213-.163-.3.021-.488q.639-.646,1.282-1.289c.179-.179.268-.184.472-.029.435.329.871.657,1.3.992a.2.2,0,0,0,.268.022,5.256,5.256,0,0,1,1.245-.518.205.205,0,0,0,.173-.207c.063-.548.135-1.1.206-1.643.029-.223.107-.294.329-.3q.919,0,1.839,0c.258,0,.326.063.365.327.078.54.16,1.079.231,1.619a.207.207,0,0,0,.176.2,5.043,5.043,0,0,1,1.21.5.2.2,0,0,0,.265-.019c.425-.331.855-.656,1.284-.982.235-.179.313-.174.518.029l1.275,1.268A.344.344,0,0,1,126.1,205.052Zm-6.333,12.073v0c.2,0,.4-.007.606,0,.132.006.186-.032.2-.174.059-.515.136-1.028.2-1.542a.34.34,0,0,1,.295-.328,5,5,0,0,0,1.523-.631.354.354,0,0,1,.458.023c.413.314.838.611,1.249.927.119.091.181.079.279-.025.273-.289.554-.57.839-.847.09-.088.1-.146.019-.25-.321-.407-.627-.826-.948-1.234a.35.35,0,0,1-.031-.458,4.937,4.937,0,0,0,.631-1.523.344.344,0,0,1,.329-.294c.52-.074,1.037-.163,1.557-.237.118-.017.159-.058.157-.177q-.011-.616-.005-1.233c0-.117-.033-.163-.155-.178-.515-.06-1.028-.139-1.543-.2a.359.359,0,0,1-.356-.315,4.849,4.849,0,0,0-.64-1.519.349.349,0,0,1,.021-.457c.322-.415.63-.841.952-1.256a.153.153,0,0,0-.018-.248q-.438-.419-.859-.856c-.089-.093-.148-.1-.25-.016-.419.328-.848.643-1.267.971a.344.344,0,0,1-.441.023,5.066,5.066,0,0,0-1.527-.621.327.327,0,0,1-.279-.318c-.069-.527-.156-1.052-.225-1.579-.017-.126-.055-.172-.186-.169-.411.008-.822.008-1.233,0-.118,0-.162.035-.176.156-.061.528-.136,1.055-.2,1.583a.33.33,0,0,1-.275.324,5.112,5.112,0,0,0-1.578.653.327.327,0,0,1-.423-.021c-.42-.327-.849-.641-1.268-.969-.1-.08-.16-.076-.248.017q-.411.431-.84.846c-.1.093-.106.154-.018.263.326.4.638.818.962,1.223a.337.337,0,0,1,.028.44,5.135,5.135,0,0,0-.659,1.576.319.319,0,0,1-.3.269c-.513.072-1.024.162-1.538.228-.16.02-.2.082-.193.23q.014.576,0,1.152c0,.144.036.2.187.212.509.053,1.015.13,1.524.184a.331.331,0,0,1,.323.3,4.877,4.877,0,0,0,.631,1.523.363.363,0,0,1-.017.475c-.315.412-.613.837-.924,1.252-.072.1-.087.155.012.249.3.282.59.573.876.868.084.087.14.087.234.015.415-.322.84-.631,1.254-.954a.34.34,0,0,1,.44-.026,4.942,4.942,0,0,0,1.524.628.341.341,0,0,1,.295.327c.071.507.161,1.011.227,1.518.02.151.064.212.222.2C119.387,217.115,119.577,217.125,119.765,217.125Z" transform="translate(-111.871 -201.871)" fill="#45a7d4"/>
    <path id="Path_22880_-_Outline" data-name="Path 22880 - Outline" d="M120.332,201.771h.309c.306,0,.418.1.463.412q.031.214.062.427c.057.391.117.795.169,1.193.01.078.028.1.1.119a5.159,5.159,0,0,1,1.234.507.167.167,0,0,0,.076.027c.013,0,.035,0,.079-.038.343-.268.695-.535,1.035-.793l.249-.189a.556.556,0,0,1,.321-.15.487.487,0,0,1,.328.187l.646.643.629.625a.438.438,0,0,1,.163.309.467.467,0,0,1-.121.282l-.009.012-.26.346c-.233.311-.474.632-.716.945-.056.072-.059.1-.017.173a5.236,5.236,0,0,1,.527,1.248c.024.086.047.106.13.115.4.045.81.1,1.2.153l.38.051c.323.043.421.154.423.476q0,.889,0,1.779c0,.319-.089.425-.4.473l-.409.064c-.389.061-.792.124-1.189.179-.084.012-.106.032-.131.12a5.347,5.347,0,0,1-.512,1.232.11.11,0,0,0,.011.156c.263.335.524.679.777,1.012l.194.256c.2.262.192.4-.035.634-.468.474-.859.868-1.267,1.277a.464.464,0,0,1-.313.172.513.513,0,0,1-.29-.125l-.141-.1c-.381-.28-.775-.569-1.158-.86a.178.178,0,0,0-.1-.047.161.161,0,0,0-.076.027,5.029,5.029,0,0,1-1.232.512c-.092.025-.116.052-.126.145-.048.424-.106.854-.161,1.27l-.045.334a.376.376,0,0,1-.427.384c-.556,0-1.14,0-1.734,0h-.126c-.285,0-.4-.1-.444-.411q-.034-.225-.069-.45c-.058-.376-.119-.765-.171-1.148-.01-.074-.027-.091-.111-.114a5.22,5.22,0,0,1-1.214-.5.2.2,0,0,0-.095-.034.158.158,0,0,0-.1.046c-.346.27-.7.537-1.048.8l-.226.169a.527.527,0,0,1-.3.133.47.47,0,0,1-.318-.177q-.625-.618-1.249-1.238c-.252-.251-.264-.381-.058-.665l.212-.292c.234-.322.476-.656.719-.981.056-.075.06-.107.019-.176a5.157,5.157,0,0,1-.526-1.271c-.019-.073-.038-.088-.12-.1-.3-.033-.61-.071-.908-.107l-.637-.077c-.342-.04-.442-.147-.443-.477q0-.889,0-1.779c0-.322.093-.429.418-.479l.357-.054c.407-.062.827-.126,1.241-.185.076-.011.086-.022.1-.074a5.407,5.407,0,0,1,.557-1.323c.026-.044.027-.056-.021-.117-.337-.426-.678-.862-1-1.273-.2-.253-.191-.4.028-.619.46-.465.88-.887,1.283-1.29a.458.458,0,0,1,.308-.169.515.515,0,0,1,.3.131l.139.1c.383.289.779.588,1.164.888.046.036.069.041.083.041a.159.159,0,0,0,.073-.026,5.373,5.373,0,0,1,1.269-.528c.074-.02.09-.041.1-.122.052-.458.113-.923.171-1.372l.035-.272a.371.371,0,0,1,.428-.382C119.258,201.772,119.744,201.771,120.332,201.771Zm2.415,2.886a.348.348,0,0,1-.175-.054,4.959,4.959,0,0,0-1.186-.488.306.306,0,0,1-.25-.286c-.052-.4-.111-.8-.168-1.19q-.031-.214-.062-.427c-.031-.216-.059-.241-.266-.241h-.308c-.588,0-1.074,0-1.53,0-.171,0-.208.034-.23.208l-.035.272c-.058.449-.118.913-.171,1.369a.3.3,0,0,1-.246.292,5.173,5.173,0,0,0-1.222.508.3.3,0,0,1-.379-.03c-.384-.3-.779-.6-1.161-.886l-.139-.1a.351.351,0,0,0-.174-.09c-.039,0-.089.033-.167.111-.4.4-.822.824-1.282,1.289-.147.149-.148.182-.013.356.32.41.66.846,1,1.271a.27.27,0,0,1,.037.342,5.207,5.207,0,0,0-.537,1.274.278.278,0,0,1-.265.219c-.413.059-.833.123-1.239.185l-.357.054c-.227.034-.248.058-.248.281q0,.889,0,1.778c0,.228.023.251.266.279.213.025.426.051.638.077.3.036.6.074.9.107a.3.3,0,0,1,.291.244,4.956,4.956,0,0,0,.505,1.222.322.322,0,0,1-.032.4c-.242.324-.483.657-.717.978l-.212.292c-.148.2-.147.223.037.405q.624.619,1.248,1.238c.084.083.137.119.178.119a.365.365,0,0,0,.179-.093l.226-.169c.344-.258.7-.525,1.045-.793a.322.322,0,0,1,.414-.027,5.02,5.02,0,0,0,1.168.482.305.305,0,0,1,.256.28c.052.382.113.77.171,1.145q.035.225.07.451c.034.221.071.241.247.241h.125c.594,0,1.177,0,1.733,0,.168,0,.207-.036.23-.21l.045-.335c.056-.415.113-.844.161-1.266a.329.329,0,0,1,.273-.316,4.828,4.828,0,0,0,1.183-.492.349.349,0,0,1,.176-.054.36.36,0,0,1,.218.088c.382.29.775.579,1.156.858l.141.1a.347.347,0,0,0,.172.086c.041,0,.092-.034.171-.113.408-.409.8-.8,1.266-1.277.158-.159.159-.187.018-.372l-.195-.256c-.252-.332-.513-.676-.775-1.01a.3.3,0,0,1-.028-.379,5.148,5.148,0,0,0,.493-1.185.318.318,0,0,1,.3-.264c.4-.054.8-.117,1.185-.178l.41-.064c.21-.033.23-.056.229-.275q0-.889,0-1.778c0-.221-.026-.249-.249-.279l-.381-.051c-.393-.053-.8-.108-1.2-.152a.315.315,0,0,1-.3-.261,5.035,5.035,0,0,0-.507-1.2.316.316,0,0,1,.032-.4c.241-.312.481-.632.714-.943l.26-.346.009-.013a.285.285,0,0,0,.08-.161c0-.06-.04-.1-.1-.167l-.629-.626-.646-.643c-.092-.091-.146-.129-.187-.129a.422.422,0,0,0-.2.109l-.249.189c-.34.258-.691.525-1.033.792A.331.331,0,0,1,122.747,204.657Zm-2.385-2.367a.251.251,0,0,1,.275.256c.034.258.073.52.111.773s.08.537.115.806a.229.229,0,0,0,.2.234,5.188,5.188,0,0,1,1.557.633.243.243,0,0,0,.328-.016c.206-.161.418-.322.623-.477s.432-.327.644-.494a.307.307,0,0,1,.185-.078.282.282,0,0,1,.2.1c.279.29.568.577.856.853a.249.249,0,0,1,.028.382c-.158.2-.315.414-.468.617s-.32.427-.484.639a.251.251,0,0,0-.015.342,4.961,4.961,0,0,1,.653,1.55.262.262,0,0,0,.269.238c.277.031.557.068.827.1.235.031.477.064.716.092a.241.241,0,0,1,.244.278c0,.414,0,.828.005,1.23a.244.244,0,0,1-.243.278c-.267.038-.539.08-.8.121s-.5.079-.756.115a.246.246,0,0,0-.246.218,5.051,5.051,0,0,1-.644,1.553.253.253,0,0,0,.025.342c.16.2.319.413.473.615s.315.415.475.618a.248.248,0,0,1-.028.383c-.329.319-.594.587-.836.844a.3.3,0,0,1-.217.118.331.331,0,0,1-.2-.082c-.215-.165-.439-.329-.655-.486-.2-.143-.4-.291-.594-.44a.253.253,0,0,0-.344-.018,5.119,5.119,0,0,1-1.553.644.244.244,0,0,0-.219.243c-.027.22-.057.443-.087.658-.039.289-.08.588-.113.883-.02.179-.108.263-.277.263h-.029c-.071,0-.147,0-.241,0l-.261,0h0l-.1,0c-.114,0-.228,0-.342,0-.084,0-.152,0-.216.007l-.044,0a.277.277,0,0,1-.285-.288c-.037-.278-.081-.56-.124-.832-.035-.224-.072-.456-.1-.684a.243.243,0,0,0-.218-.244,5.056,5.056,0,0,1-1.554-.64.239.239,0,0,0-.326.02c-.218.17-.443.339-.659.5-.2.147-.4.3-.6.452a.3.3,0,0,1-.177.074.269.269,0,0,1-.19-.1c-.329-.339-.606-.614-.872-.864a.25.25,0,0,1-.024-.381c.133-.178.266-.36.395-.537.172-.236.349-.48.53-.716a.266.266,0,0,0,.012-.361,4.991,4.991,0,0,1-.644-1.554c-.034-.149-.094-.205-.236-.22-.246-.026-.5-.058-.736-.09-.258-.033-.525-.068-.787-.095a.266.266,0,0,1-.276-.313c.008-.375.008-.761,0-1.147a.28.28,0,0,1,.28-.331c.291-.037.586-.083.871-.128.218-.034.443-.069.666-.1a.221.221,0,0,0,.221-.192,5.253,5.253,0,0,1,.672-1.607.238.238,0,0,0-.022-.325c-.147-.184-.294-.373-.436-.556-.171-.22-.348-.447-.526-.666a.255.255,0,0,1,.026-.4c.275-.266.557-.549.837-.843a.28.28,0,0,1,.2-.1.307.307,0,0,1,.184.078c.221.173.45.346.671.513.2.148.4.3.6.456a.227.227,0,0,0,.308.015,5.231,5.231,0,0,1,1.609-.666c.127-.029.18-.093.2-.239.029-.239.06-.481.091-.715.037-.284.075-.578.109-.867a.238.238,0,0,1,.268-.245h.008c.463.006.854,0,1.23,0Zm2.418,2.957a.507.507,0,0,1-.263-.083,4.989,4.989,0,0,0-1.5-.609.424.424,0,0,1-.357-.4c-.035-.268-.075-.54-.114-.8s-.077-.517-.111-.777c-.011-.082-.013-.082-.076-.082h-.008c-.378.008-.771.008-1.236,0h-.005a.111.111,0,0,0-.054.007s-.01.01-.015.06c-.033.291-.072.585-.109.87-.031.234-.062.476-.091.713a.428.428,0,0,1-.352.41,5.032,5.032,0,0,0-1.547.641.422.422,0,0,1-.537-.027c-.2-.153-.4-.306-.6-.454-.222-.168-.451-.341-.673-.515-.045-.035-.06-.035-.061-.035s-.014,0-.053.042c-.282.3-.566.582-.843.849-.063.061-.063.063-.01.129.179.221.356.449.528.669.142.182.288.371.435.554a.433.433,0,0,1,.035.556,5.053,5.053,0,0,0-.647,1.546.416.416,0,0,1-.388.345c-.221.031-.446.066-.663.1-.287.045-.583.091-.876.128-.1.013-.108.022-.106.128.01.389.01.778,0,1.157,0,.1,0,.1.1.11.265.027.533.062.792.1.24.031.488.063.732.089a.431.431,0,0,1,.41.374,4.792,4.792,0,0,0,.618,1.492.461.461,0,0,1-.022.589c-.179.234-.356.477-.527.712-.129.177-.262.36-.4.539-.051.068-.051.068,0,.116.268.253.548.529.879.871.034.035.047.037.047.037s.014,0,.054-.032c.2-.153.4-.306.6-.454.216-.163.44-.331.657-.5a.435.435,0,0,1,.555-.032,4.856,4.856,0,0,0,1.493.615.437.437,0,0,1,.372.411c.032.227.068.458.1.681.043.274.088.557.124.837.015.114.03.114.087.114h.029c.068-.005.142-.008.231-.008s.178,0,.266,0l.076,0,.361,0c.1,0,.176,0,.25,0h.02c.059,0,.069,0,.078-.086.034-.3.074-.6.114-.887.029-.215.059-.437.086-.656a.439.439,0,0,1,.371-.413,4.92,4.92,0,0,0,1.492-.618.449.449,0,0,1,.572.028c.195.148.4.3.591.438.217.159.441.323.658.489.049.038.069.041.074.041s.023,0,.071-.055c.244-.259.512-.529.843-.85.057-.055.057-.056.01-.116-.162-.205-.322-.417-.478-.621s-.311-.41-.47-.612a.449.449,0,0,1-.037-.573,4.852,4.852,0,0,0,.618-1.492.44.44,0,0,1,.412-.37c.251-.036.507-.076.753-.115.263-.041.535-.084.8-.122.072-.01.072-.011.071-.076-.007-.4-.009-.82-.005-1.236,0-.07,0-.07-.067-.077-.24-.028-.484-.061-.719-.092-.27-.036-.549-.073-.823-.1a.456.456,0,0,1-.442-.392,4.762,4.762,0,0,0-.627-1.487.45.45,0,0,1,.026-.572c.163-.21.325-.427.482-.636s.311-.415.47-.62c.047-.061.047-.062-.008-.115-.291-.278-.581-.567-.862-.859-.04-.042-.055-.042-.055-.042s-.017,0-.061.035c-.214.168-.434.335-.647.5s-.415.315-.62.475A.467.467,0,0,1,122.781,205.247Z" transform="translate(-111.871 -201.871)" fill="#45a7d4"/>
    <path id="Path_22881" data-name="Path 22881" d="M234.158,321.876a3,3,0,1,1-2.979-3.016A3,3,0,0,1,234.158,321.876Zm-.493-.006a2.51,2.51,0,1,0-2.516,2.5A2.5,2.5,0,0,0,233.664,321.87Z" transform="translate(-223.265 -313.977)" fill="#45a7d4"/>
    <path id="Path_22881_-_Outline" data-name="Path 22881 - Outline" d="M231.149,324.969h-.018a3.1,3.1,0,0,1,.032-6.209h.016a3.1,3.1,0,0,1-.03,6.209Zm.014-6.009a2.9,2.9,0,0,0-.031,5.809h.017a2.9,2.9,0,0,0,.029-5.809Zm-.012,5.514h0a2.61,2.61,0,0,1,0-5.22h.008a2.61,2.61,0,0,1-.011,5.22Zm0-5.02a2.408,2.408,0,0,0-1.708,4.109,2.388,2.388,0,0,0,1.7.711,2.41,2.41,0,0,0,.014-4.82Z" transform="translate(-223.265 -313.977)" fill="#45a7d4"/>
  </g>
</svg>
