<svg xmlns="http://www.w3.org/2000/svg" width="13.708" height="13.664" viewBox="0 0 13.708 13.664">
  <path id="Path_50001" data-name="Path 50001" d="M316.506-211.05c-.065.181-.149.444-.253.7q-2.187,5.389-4.381,10.776c-.223.548-.368,1.228-1.166,1.147s-.8-.768-.947-1.346c-.385-1.469-.406-3.266-1.3-4.3-.91-1.055-2.833-.829-4.283-1.274-.557-.171-1.271-.135-1.366-.928s.576-.948,1.127-1.172c3.634-1.477,7.263-2.966,10.9-4.426C315.965-212.33,316.548-212.041,316.506-211.05Zm-.779-.277-12.118,4.945c1.827.448,3.206.837,4.606,1.109a1.612,1.612,0,0,1,1.432,1.43c.3,1.425.7,2.83,1.146,4.628Z" transform="translate(-302.8 212.086)" fill="#45a7d4"/>
</svg>
