<?xml version="1.0" encoding="utf-8"?>

<!DOCTYPE svg PUBLIC "-//W3C//DTD SVG 1.1//EN" "http://www.w3.org/Graphics/SVG/1.1/DTD/svg11.dtd">
<!-- Uploaded to: SVG Repo, www.svgrepo.com, Generator: SVG Repo Mixer Tools -->
<svg height="800px" width="800px" version="1.1" id="_x32_" xmlns="http://www.w3.org/2000/svg" xmlns:xlink="http://www.w3.org/1999/xlink" 
	 viewBox="0 0 512 512"  xml:space="preserve">
<style type="text/css">
	.st0{fill:#000000;}
</style>
<g>
	<path class="st0" d="M479.13,498.292l-38.251-372.966H71.121L31.461,512h449.078L479.13,498.292z M59.023,487.126L93.566,150.2
		h324.861l34.55,336.926H59.023z"/>
	<path class="st0" d="M161.661,203.147c-8.591,0-15.546,6.963-15.546,15.546c0,8.583,6.956,15.546,15.546,15.546
		c8.592,0,15.546-6.963,15.546-15.546C177.208,210.11,170.253,203.147,161.661,203.147z"/>
	<path class="st0" d="M350.331,203.147c-8.591,0-15.546,6.963-15.546,15.546c0,8.583,6.956,15.546,15.546,15.546
		c8.591,0,15.546-6.963,15.546-15.546C365.877,210.11,358.922,203.147,350.331,203.147z"/>
	<path class="st0" d="M197.37,49.157c15.044-15.028,35.692-24.275,58.631-24.283c22.939,0.008,43.586,9.255,58.63,24.283
		c15.02,15.044,24.275,35.692,24.283,58.63h24.874C363.78,48.251,315.537,0.008,256.001,0
		c-59.538,0.008-107.78,48.251-107.788,107.788h24.874C173.095,84.849,182.35,64.202,197.37,49.157z"/>
</g>
</svg>