<svg xmlns="http://www.w3.org/2000/svg" width="18.496" height="18.571" viewBox="0 0 18.496 18.571">
  <g id="zXrKtN.tif" transform="translate(-5855.68 -4283.223)">
    <g id="Group_49945" data-name="Group 49945" transform="translate(5855.68 4283.223)">
      <path id="Path_40729" data-name="Path 40729" d="M5940.13,4283.223c.448.1.9.191,1.342.3a9.288,9.288,0,0,1,2.633,16.827c-.329.225-.655.326-.975.013s-.236-.756.246-1.063a8,8,0,0,0-3.686-14.766c-.1-.007-.205-.017-.308-.02-.334-.012-.656-.035-.816-.407-.175-.405.1-.636.325-.888Z" transform="translate(-5929.919 -4283.223)" fill="#9ea7b7"/>
      <path id="Path_40730" data-name="Path 40730" d="M5905.034,4336.4c-.447,0-.894-.013-1.34,0-.292.012-.425-.052-.427-.391-.005-.9-.023-.9.882-.9.773,0,1.547-.024,2.319.01.4.017.491-.127.481-.5-.024-.893.008-1.786-.016-2.679-.01-.376.094-.55.488-.494a1.613,1.613,0,0,0,.412,0c.324-.038.405.109.4.415-.017.91.021,1.822-.018,2.731-.018.448.135.54.549.525.893-.032,1.787.008,2.68-.019.371-.011.5.118.451.469a.725.725,0,0,0,0,.1c-.009.824.076.722-.706.727-.825,0-1.65.018-2.474-.007-.37-.011-.512.074-.5.479.032.909-.006,1.82.018,2.73.009.35-.074.477-.449.469-.844-.017-.845,0-.845-.845,0-.807-.012-1.615.005-2.421.007-.32-.109-.421-.419-.408C5906.031,4336.415,5905.532,4336.4,5905.034,4336.4Z" transform="translate(-5898.33 -4326.436)" fill="#9ea7b7"/>
      <path id="Path_40731" data-name="Path 40731" d="M5903.974,4442.556a9.287,9.287,0,0,1-4.119-.986c-.5-.249-.655-.557-.49-.925.175-.392.542-.476,1.055-.224a7.98,7.98,0,0,0,5.161.694c.068-.013.137-.02.2-.034a.611.611,0,0,1,.817.492c.089.433-.181.678-.583.763A8.8,8.8,0,0,1,5903.974,4442.556Z" transform="translate(-5894.777 -4423.987)" fill="#9ea7b7"/>
      <path id="Path_40732" data-name="Path 40732" d="M5861.3,4391.222a.627.627,0,0,1-.354.623.565.565,0,0,1-.674-.076,8.913,8.913,0,0,1-2.679-4.6.567.567,0,0,1,.482-.729.606.606,0,0,1,.767.5,8.062,8.062,0,0,0,1.828,3.417c.138.153.284.3.427.447A.6.6,0,0,1,5861.3,4391.222Z" transform="translate(-5857.379 -4375.717)" fill="#9ea7b7"/>
      <path id="Path_40733" data-name="Path 40733" d="M5855.682,4334.731a9.177,9.177,0,0,1,.808-2.869.636.636,0,1,1,1.152.536,8.735,8.735,0,0,0-.691,2.511.6.6,0,0,1-.683.608C5855.841,4335.479,5855.658,4335.184,5855.682,4334.731Z" transform="translate(-5855.68 -4326.461)" fill="#9ea7b7"/>
      <path id="Path_40734" data-name="Path 40734" d="M5883,4304.792a.92.92,0,0,1-.785.81.628.628,0,0,1-.652-.638.96.96,0,0,1,.786-.819A.644.644,0,0,1,5883,4304.792Z" transform="translate(-5878.88 -4301.976)" fill="#9ea7b7"/>
    </g>
  </g>
</svg>
