<svg xmlns="http://www.w3.org/2000/svg" width="20.387" height="20.37" viewBox="0 0 20.387 20.37">
  <g id="Group_43023" data-name="Group 43023" transform="translate(372.404 -157.748)">
    <path id="Path_9723" data-name="Path 9723" d="M-209.037,157.748a6.853,6.853,0,0,1,3.616,2.137,5.665,5.665,0,0,1-.359,7.658c-.581.573-.413,1.2-.473,1.832-.041.43.225,1.024-.234,1.248-.554.271-.827-.367-1.107-.692a1.885,1.885,0,0,0-1.866-.656c-2.56.286-4.823-.334-6.289-2.641A5.726,5.726,0,0,1-212.482,158c.248-.076.492-.169.737-.254Zm1.88,11.65a3.769,3.769,0,0,1,1.138-2.72,4.977,4.977,0,0,0,.492-5.525c-1.242-2.316-3.984-3.19-6.948-2.3a4.9,4.9,0,0,0-3.216,6.025c.737,2.563,3.1,4,6.116,3.618C-208.648,168.374-207.79,168.192-207.156,169.4Z" transform="translate(-147.914 0)" fill="#45a7d4"/>
    <path id="Path_9724" data-name="Path 9724" d="M-372.4,297.516a3.2,3.2,0,0,1,3.558-2.163c.978.065,1.963.006,2.945.018.284,0,.653-.017.647.4s-.376.385-.659.387c-1.115.01-2.229,0-3.344.009a2.085,2.085,0,0,0-2.349,2.346q-.008,2.747,0,5.493a2.066,2.066,0,0,0,2.261,2.273c.186,0,.372,0,.557,0,1.1-.018,2.266-.206,2.985,1.136-.085-1.148.553-1.177,1.313-1.146,1.06.042,2.123.016,3.184.009a2.067,2.067,0,0,0,2.283-2.251c.007-.743,0-1.486,0-2.229,0-.277.026-.585.371-.6.406-.016.423.322.423.624,0,.849.025,1.7-.01,2.547a2.759,2.759,0,0,1-2.71,2.694c-1.113.038-2.229.03-3.343,0-.465-.012-.714.087-.63.605a3.606,3.606,0,0,1,0,.477c.006.246,0,.507-.253.62a.5.5,0,0,1-.613-.254c-.91-1.353-2.209-1.581-3.727-1.461-1.463.116-2.3-.842-2.895-2.049Z" transform="translate(0 -130.687)" fill="#45a7d4"/>
    <path id="Path_9725" data-name="Path 9725" d="M-323.656,404.559c-1.27,0-2.539.007-3.809,0-.3,0-.715.054-.684-.43.026-.41.406-.355.681-.356q3.849-.011,7.7,0c.3,0,.719-.04.689.43-.025.394-.4.355-.686.357C-321.064,404.563-322.36,404.559-323.656,404.559Z" transform="translate(-42.032 -233.668)" fill="#45a7d4"/>
    <path id="Path_9726" data-name="Path 9726" d="M-324.444,448.987c-1.007,0-2.014.007-3.021,0-.276,0-.656.052-.677-.361-.025-.485.393-.423.692-.425q3.061-.015,6.122,0c.277,0,.657-.049.678.362.024.482-.393.42-.693.424C-322.377,449-323.41,448.987-324.444,448.987Z" transform="translate(-42.039 -275.866)" fill="#45a7d4"/>
    <path id="Path_9727" data-name="Path 9727" d="M-324.9,359.276c.846,0,1.691-.007,2.537,0,.307,0,.719-.04.715.41,0,.388-.38.378-.668.379q-2.576.008-5.153,0c-.275,0-.654.047-.666-.37-.014-.481.4-.411.7-.416C-326.594,359.266-325.748,359.276-324.9,359.276Z" transform="translate(-42.045 -191.412)" fill="#45a7d4"/>
    <path id="Path_9728" data-name="Path 9728" d="M-121.193,217.748a.919.919,0,0,1,.674-1.05.813.813,0,0,0,.56-1.01.791.791,0,0,0-.794-.66.829.829,0,0,0-.911.712c-.061.264-.164.556-.517.459-.411-.113-.294-.475-.221-.732a1.547,1.547,0,0,1,1.479-1.225,1.614,1.614,0,0,1,1.678,1.069,1.609,1.609,0,0,1-.588,1.9c-.36.228-.642.415-.574.9.04.289,0,.647-.392.657-.419.012-.383-.353-.394-.644C-121.2,218.028-121.193,217.922-121.193,217.748Z" transform="translate(-237.386 -53.655)" fill="#45a7d4"/>
  </g>
</svg>
