<svg xmlns="http://www.w3.org/2000/svg" width="15.7" height="18.966" viewBox="0 0 15.7 18.966">
  <g id="Group_43025" data-name="Group 43025" transform="translate(-230.545 -338.941)">
    <path id="Path_9734" data-name="Path 9734" d="M230.555,347.513c0-2.506.013-5.012-.01-7.517-.005-.557.187-.727.731-.723,2.487.021,4.973.014,7.46,0a1.087,1.087,0,0,1,.86.352q1.334,1.383,2.707,2.73a1.142,1.142,0,0,1,.379.9c-.018,1.683,0,3.367-.014,5.05a.544.544,0,0,0,.426.615,4.73,4.73,0,0,1,3.147,4.715,4.786,4.786,0,0,1-8.771,2.453.69.69,0,0,0-.654-.334c-1.836.013-3.673.007-5.509.006-.722,0-.75-.025-.75-.734Q230.553,351.272,230.555,347.513Zm6.366,7.563a5.062,5.062,0,0,1-.176-2.6,4.767,4.767,0,0,1,4.713-3.842c.3,0,.545.053.536-.412-.029-1.53-.018-3.061-.006-4.591,0-.3-.092-.4-.393-.392-.765.018-1.53,0-2.3.009-.389.006-.556-.16-.55-.55.012-.708-.025-1.417.013-2.123.025-.466-.1-.619-.592-.613q-3.156.042-6.312,0c-.523-.008-.629.161-.627.65.018,4.514.011,9.029.011,13.543,0,.924,0,.924.944.924Zm8.639-1.666a4.106,4.106,0,1,0-4.108,4.127A4.087,4.087,0,0,0,245.56,353.411Zm-6.114-12.849c0,.6,0,1.128,0,1.658,0,.151-.02.332.209.327a11.323,11.323,0,0,0,1.777-.047Z" transform="translate(0 -0.333)" fill="#45a7d4"/>
    <path id="Path_9735" data-name="Path 9735" d="M251.1,381.63q-1.8,0-3.608,0c-.249,0-.542.027-.546-.334s.276-.354.534-.354h7.33c.264,0,.533.023.52.371-.011.314-.27.318-.508.318Z" transform="translate(-14.514 -36.883)" fill="#45a7d4"/>
    <path id="Path_9736" data-name="Path 9736" d="M251.167,398.566c-1.2,0-2.405,0-3.608,0-.261,0-.594.053-.6-.343s.332-.343.592-.344q3.608,0,7.216,0c.27,0,.59-.028.57.368-.018.346-.317.32-.566.32Z" transform="translate(-14.531 -51.873)" fill="#45a7d4"/>
    <path id="Path_9737" data-name="Path 9737" d="M250.426,413.641H247.45c-.259,0-.534,0-.516-.364.016-.311.267-.325.507-.325h6.009c.246,0,.485.037.491.344s-.236.345-.481.344Z" transform="translate(-14.506 -65.218)" fill="#45a7d4"/>
    <path id="Path_9738" data-name="Path 9738" d="M249.247,428.745H247.42c-.237,0-.489-.007-.492-.33s.233-.357.477-.357q1.856,0,3.712,0c.262,0,.531.03.522.373-.009.317-.273.314-.507.315Q250.189,428.747,249.247,428.745Z" transform="translate(-14.501 -78.588)" fill="#45a7d4"/>
    <path id="Path_9739" data-name="Path 9739" d="M248.715,443.882c-.438,0-.875,0-1.313,0-.237,0-.484-.018-.479-.344,0-.276.214-.337.438-.339q1.341-.007,2.682,0c.221,0,.437.052.45.327.016.323-.225.354-.466.356C249.59,443.885,249.152,443.882,248.715,443.882Z" transform="translate(-14.497 -91.987)" fill="#45a7d4"/>
    <path id="Path_9740" data-name="Path 9740" d="M308.572,446.6a2.179,2.179,0,0,1-.19.309c-.787.934-1.584,1.86-2.368,2.8-.225.27-.434.332-.723.093-.5-.414-1.012-.812-1.522-1.213-.194-.153-.363-.332-.185-.575s.4-.134.6.019.358.285.538.427c.867.689.867.689,1.6-.176q.777-.917,1.554-1.835c.125-.147.256-.294.484-.2A.374.374,0,0,1,308.572,446.6Z" transform="translate(-64.585 -94.666)" fill="#45a7d4"/>
  </g>
</svg>
