<svg xmlns="http://www.w3.org/2000/svg" xmlns:xlink="http://www.w3.org/1999/xlink" width="63" height="63" viewBox="0 0 63 63">
  <defs>
    <filter id="Ellipse_8" x="5" y="5" width="53" height="53" filterUnits="userSpaceOnUse">
      <feOffset dy="3" input="SourceAlpha"/>
      <feGaussianBlur stdDeviation="3" result="blur"/>
      <feFlood flood-opacity="0.161"/>
      <feComposite operator="in" in2="blur"/>
      <feComposite in="SourceGraphic"/>
    </filter>
    <filter id="Ellipse_11" x="0" y="0" width="63" height="63" filterUnits="userSpaceOnUse">
      <feOffset dy="3" input="SourceAlpha"/>
      <feGaussianBlur stdDeviation="3" result="blur-2"/>
      <feFlood flood-opacity="0.161"/>
      <feComposite operator="in" in2="blur-2"/>
      <feComposite in="SourceGraphic"/>
    </filter>
    <filter id="Path_24980" x="12" y="12" width="39" height="39" filterUnits="userSpaceOnUse">
      <feOffset dy="3" input="SourceAlpha"/>
      <feGaussianBlur stdDeviation="3" result="blur-3"/>
      <feFlood flood-opacity="0.161"/>
      <feComposite operator="in" in2="blur-3"/>
      <feComposite in="SourceGraphic"/>
    </filter>
  </defs>
  <g id="shops_location" data-name="shops location" transform="translate(12.784 -223.76)">
    <g transform="matrix(1, 0, 0, 1, -12.78, 223.76)" filter="url(#Ellipse_8)">
      <circle id="Ellipse_8-2" data-name="Ellipse 8" cx="17.5" cy="17.5" r="17.5" transform="translate(14 11)" fill="rgba(255,255,255,0.96)"/>
    </g>
    <g transform="matrix(1, 0, 0, 1, -12.78, 223.76)" filter="url(#Ellipse_11)">
      <circle id="Ellipse_11-2" data-name="Ellipse 11" cx="22.5" cy="22.5" r="22.5" transform="translate(9 6)" fill="#1a202e" opacity="0.107"/>
    </g>
    <g transform="matrix(1, 0, 0, 1, -12.78, 223.76)" filter="url(#Path_24980)">
      <g id="Path_24980-2" data-name="Path 24980" transform="translate(21 18)" fill="#1a202e">
        <path d="M 10.5 19.5 C 5.537380218505859 19.5 1.5 15.46261978149414 1.5 10.5 C 1.5 5.537380218505859 5.537380218505859 1.5 10.5 1.5 C 15.46261978149414 1.5 19.5 5.537380218505859 19.5 10.5 C 19.5 15.46261978149414 15.46261978149414 19.5 10.5 19.5 Z" stroke="none"/>
        <path d="M 10.5 3 C 6.364489555358887 3 3 6.364489555358887 3 10.5 C 3 14.6355094909668 6.364489555358887 18 10.5 18 C 14.6355094909668 18 18 14.6355094909668 18 10.5 C 18 6.364489555358887 14.6355094909668 3 10.5 3 M 10.5 0 C 16.29899024963379 0 21 4.701009750366211 21 10.5 C 21 16.29899024963379 16.29899024963379 21 10.5 21 C 4.701009750366211 21 0 16.29899024963379 0 10.5 C 0 4.701009750366211 4.701009750366211 0 10.5 0 Z" stroke="none" fill="#fff"/>
      </g>
    </g>
  </g>
</svg>
