<svg id="Group_50472" data-name="Group 50472" xmlns="http://www.w3.org/2000/svg" width="62.715" height="47.055" viewBox="0 0 62.715 47.055">
  <path id="Path_40844" data-name="Path 40844" d="M5568.032,3591.811c-.208.79-.39,1.587-.628,2.368a14.257,14.257,0,0,1-13.434,10.147q-17.3.107-34.591,0a14.238,14.238,0,0,1-13.819-11.792,5.049,5.049,0,0,0-.243-.721v-3.4a17.619,17.619,0,0,1,2.745-6.809,13.941,13.941,0,0,1,7.774-5.384,1.624,1.624,0,0,0,1.463-1.6,19.533,19.533,0,0,1,38.66-1.041,2.607,2.607,0,0,1,.07.647c-.1,1.266.55,1.72,1.727,2.089,5.6,1.757,8.925,5.616,10.055,11.374a6.957,6.957,0,0,0,.222.725Zm-31.328,9.93c5.27,0,10.539.009,15.809-.009a23.28,23.28,0,0,0,2.861-.192,11.686,11.686,0,0,0,1.638-22.776c-1.042-.287-2.393-.215-3.072-.863-.749-.714-.337-2.137-.475-3.246a16.928,16.928,0,0,0-33.558-.07c-.136,1.115.131,2.561-.475,3.26s-2.076.629-3.158.93a11.743,11.743,0,0,0,3.835,22.959C5525.642,3601.766,5531.173,3601.74,5536.7,3601.741Z" transform="translate(-5505.317 -3557.326)" fill="#45a7d4"/>
  <path id="Path_40845" data-name="Path 40845" d="M5597.057,3613.982c-2.083,2.546-3.9,4.8-5.766,7.021-.306.365-.556,1.351-1.317.465-.518-.6-1.808-.862-.681-2.169,2.81-3.261,5.5-6.623,8.2-9.979.622-.773.97-.961,1.69-.053q4.1,5.162,8.348,10.2c1.036,1.221-.241,1.393-.675,1.959-.61.8-.971.234-1.369-.26-1.851-2.291-3.713-4.571-5.817-7.158v1.583c0,5.873-.032,11.747.029,17.619.012,1.1-.39,1.253-1.338,1.256s-1.343-.157-1.333-1.256C5597.087,3626.946,5597.057,3620.682,5597.057,3613.982Z" transform="translate(-5567.018 -3595.245)" fill="#45a7d4"/>
</svg>
