<svg id="gKXVDD" xmlns="http://www.w3.org/2000/svg" width="24.488" height="12.76" viewBox="0 0 24.488 12.76">
  <g id="Group_47488" data-name="Group 47488" transform="translate(0 0)">
    <path id="Path_39880" data-name="Path 39880" d="M-1871.72,2686.106a12.43,12.43,0,0,0-5.871,2.111,12.946,12.946,0,0,0-3.851,4.06c-.109.18-.154.686-.542.34-.311-.277-1-.427-.613-1.1a13.9,13.9,0,0,1,3.109-3.632,14.257,14.257,0,0,1,21.191,3.5,1.052,1.052,0,0,1-.71,1.338c-.266.007-.282-.269-.383-.432a12.826,12.826,0,0,0-6.886-5.578,13.674,13.674,0,0,0-2.881-.637c3.657,1.75,5.011,4.063,4.241,7.1a5.665,5.665,0,0,1-5.967,4.205,5.667,5.667,0,0,1-5.158-4.774A5.786,5.786,0,0,1-1871.72,2686.106Zm1.289,1.347a4.242,4.242,0,0,0-4.257,4.3,4.242,4.242,0,0,0,4.252,4.24,4.245,4.245,0,0,0,4.293-4.269A4.241,4.241,0,0,0-1870.431,2687.453Z" transform="translate(1882.713 -2684.632)" fill="#34b2e2"/>
    <path id="Path_39881" data-name="Path 39881" d="M-1811.435,2715.45c-.8.872-.883,1.582-.292,2.237s1.321.623,2.322-.148a2.6,2.6,0,0,1-1.086,2.948,2.831,2.831,0,0,1-3.527-.261,2.817,2.817,0,0,1-.508-3.554A2.7,2.7,0,0,1-1811.435,2715.45Z" transform="translate(1824.389 -2711.052)" fill="#34b2e2"/>
  </g>
</svg>
