<svg xmlns="http://www.w3.org/2000/svg" width="12.817" height="13.468" viewBox="0 0 12.817 13.468">
  <g id="Group_50630" data-name="Group 50630" transform="translate(3522.781 6062.116)">
    <path id="Path_39514" data-name="Path 39514" d="M-3522.387-6030.739c0,2.315-.021,4.515.009,6.713a1.585,1.585,0,0,0,1.659,1.6q4.261.017,8.523,0c.627,0,.917-.3.935-.931.009-.305,0-.61,0-.916,0-.131-.016-.3.192-.294s.181.173.183.31c0,.305.005.611,0,.917a1.215,1.215,0,0,1-1.317,1.315c-1.329.011-2.658,0-3.987,0-1.451,0-2.9,0-4.354,0a2.066,2.066,0,0,1-2.24-2.265q0-3.6,0-7.195a1.194,1.194,0,0,1,.938-1.286c.153-.032.333-.075.395.11.072.221-.13.227-.274.269a.769.769,0,0,0-.658.848.779.779,0,0,0,.874.689q4.515.008,9.028,0c1.2,0,1.594.394,1.594,1.586,0,.352,0,.7,0,1.054,0,.129-.026.255-.188.261s-.184-.132-.186-.255c0-.367,0-.733,0-1.1,0-.9-.244-1.15-1.131-1.151q-4.354,0-8.707,0A1.977,1.977,0,0,1-3522.387-6030.739Z" transform="translate(-0.002 -26.631)" fill="#45a7d4"/>
    <path id="Path_39515" data-name="Path 39515" d="M-3419.146-5976.909c.275,0,.55-.009.825,0a.864.864,0,0,1,.9.9c.014.35.016.7,0,1.053a.856.856,0,0,1-.878.868q-.846.023-1.694,0a.858.858,0,0,1-.874-.871c-.018-.351-.017-.7,0-1.053a.866.866,0,0,1,.9-.892C-3419.7-5976.917-3419.421-5976.909-3419.146-5976.909Zm0,2.441c1.377,0,1.377,0,1.336-1.4,0-.016,0-.031,0-.046a.536.536,0,0,0-.613-.616c-.472,0-.943-.005-1.415,0-.5.008-.638.158-.651.667C-3420.523-5974.464-3420.523-5974.464-3419.145-5974.468Z" transform="translate(-92.55 -77.389)" fill="#45a7d4"/>
    <path id="Path_39516" data-name="Path 39516" d="M-3508.34-6022.155c1.388,0,2.775,0,4.163,0,.152,0,.387-.068.391.183s-.229.192-.383.193q-4.163.005-8.327,0c-.156,0-.384.052-.37-.207.012-.216.219-.168.363-.169Q-3510.422-6022.158-3508.34-6022.155Z" transform="translate(-9.005 -36.291)" fill="#45a7d4"/>
    <path id="Path_39517" data-name="Path 39517" d="M-3482.774-6041.845c.012.134,0,.225-.108.257a.206.206,0,0,1-.256-.137,4.6,4.6,0,0,1-.272-.629c-.1-.327-.266-.4-.6-.327-1.621.365-3.249.7-4.875,1.054a.923.923,0,0,1-.134.028c-.156.011-.374.112-.412-.133-.031-.2.173-.208.322-.24,1.64-.353,3.279-.714,4.921-1.056.967-.2.766-.289,1.154.586C-3482.941-6042.232-3482.851-6042.022-3482.774-6041.845Z" transform="translate(-30.288 -17.216)" fill="#45a7d4"/>
    <path id="Path_39518" data-name="Path 39518" d="M-3501.986-6059.047c-.124.006-.186-.03-.218-.108a.168.168,0,0,1,.047-.207,2.326,2.326,0,0,1,.269-.172c1.413-.817,2.831-1.627,4.237-2.457.31-.183.5-.188.694.152.209.371.471.712.71,1.067.074.109.119.225-.014.319s-.229,0-.3-.1c-.2-.289-.407-.573-.584-.875-.142-.245-.276-.249-.51-.111-1.329.781-2.667,1.546-4,2.314C-3501.774-6059.157-3501.9-6059.1-3501.986-6059.047Z" transform="translate(-18.675 -0.001)" fill="#45a7d4"/>
    <path id="Path_39519" data-name="Path 39519" d="M-3413.37-6030.875a.18.18,0,0,1-.164.178c-.165.026-.211-.1-.224-.227a.9.9,0,0,0-.563-.771c-.123-.056-.217-.131-.141-.278s.2-.1.32-.064A1.343,1.343,0,0,1-3413.37-6030.875Z" transform="translate(-98.36 -27.287)" fill="#45a7d4"/>
    <path id="Path_39520" data-name="Path 39520" d="M-3411.656-5963.316c-.194-.022-.458.048-.437-.216.022-.279.3-.174.481-.187.162-.012.4-.035.394.185C-3411.224-5963.24-3411.505-5963.356-3411.656-5963.316Z" transform="translate(-100.536 -89.365)" fill="#45a7d4"/>
  </g>
</svg>
