<svg xmlns="http://www.w3.org/2000/svg" width="8.948" height="8.954" viewBox="0 0 8.948 8.954">
  <path id="Path_39524" data-name="Path 39524" d="M-2957.846,498.491a.579.579,0,0,1-.193.4q-1.567,1.564-3.131,3.13c-.078.078-.151.162-.236.233s-.064.1,0,.167q1.094,1.089,2.182,2.184c.4.4.8.8,1.2,1.2a.579.579,0,0,1,.1.693.581.581,0,0,1-.621.3.659.659,0,0,1-.357-.208q-1.649-1.652-3.3-3.3c-.123-.122-.123-.122-.245,0l-3.311,3.311a.588.588,0,0,1-.794.1.587.587,0,0,1-.061-.9c.476-.48.956-.957,1.434-1.435q.97-.97,1.941-1.938c.072-.071.071-.106,0-.176q-1.682-1.674-3.357-3.354a.59.59,0,0,1,.144-.979.589.589,0,0,1,.688.144l1.769,1.768c.529.529,1.06,1.057,1.585,1.59.079.081.115.065.186-.006q1.665-1.672,3.335-3.34a.6.6,0,0,1,.648-.176A.591.591,0,0,1-2957.846,498.491Z" transform="translate(2966.794 -497.857)" fill="#d00000"/>
</svg>
